<?xml version="1.0" encoding="UTF-8"?>
<svg width="595px" height="269px" viewBox="0 0 595 269" version="1.1" xmlns="http://www.w3.org/2000/svg" xmlns:xlink="http://www.w3.org/1999/xlink">
    <!-- Generator: Sketch 48.2 (47327) - http://www.bohemiancoding.com/sketch -->
    <title>Cgroups</title>
    <desc>Created with Sketch.</desc>
    <defs>
        <path d="M15,12 L172,12 C173.656854,12 175,13.3431458 175,15 L175,178 C175,179.656854 173.656854,181 172,181 L15,181 C13.3431458,181 12,179.656854 12,178 L12,15 C12,13.3431458 13.3431458,12 15,12 Z" id="path-1"></path>
        <filter x="-5.2%" y="-3.8%" width="110.4%" height="110.1%" filterUnits="objectBoundingBox" id="filter-2">
            <feMorphology radius="0.5" operator="dilate" in="SourceAlpha" result="shadowSpreadOuter1"></feMorphology>
            <feOffset dx="0" dy="2" in="shadowSpreadOuter1" result="shadowOffsetOuter1"></feOffset>
            <feGaussianBlur stdDeviation="2" in="shadowOffsetOuter1" result="shadowBlurOuter1"></feGaussianBlur>
            <feColorMatrix values="0 0 0 0 0   0 0 0 0 0   0 0 0 0 0  0 0 0 0.0825124547 0" type="matrix" in="shadowBlurOuter1"></feColorMatrix>
        </filter>
        <rect id="path-3" x="0" y="0" width="70" height="74" rx="5"></rect>
        <rect id="path-4" x="0" y="0" width="70" height="74" rx="5"></rect>
        <rect id="path-5" x="21" y="19" width="70" height="74" rx="5"></rect>
        <rect id="path-6" x="96" y="19" width="70" height="74" rx="5"></rect>
        <path d="M5,0 L88,8.8817842e-16 C90.7614237,-6.97699784e-15 93,2.23857625 93,5 L93,166 C93,168.761424 90.7614237,171 88,171 L5,171 C2.23857625,171 1.2263553e-15,168.761424 8.8817842e-16,166 L8.8817842e-16,5 C5.50001544e-16,2.23857625 2.23857625,1.39544373e-15 5,8.8817842e-16 Z" id="path-7"></path>
        <filter x="-16.7%" y="-6.7%" width="133.3%" height="118.1%" filterUnits="objectBoundingBox" id="filter-8">
            <feMorphology radius="0.5" operator="dilate" in="SourceAlpha" result="shadowSpreadOuter1"></feMorphology>
            <feOffset dx="0" dy="4" in="shadowSpreadOuter1" result="shadowOffsetOuter1"></feOffset>
            <feGaussianBlur stdDeviation="4" in="shadowOffsetOuter1" result="shadowBlurOuter1"></feGaussianBlur>
            <feColorMatrix values="0 0 0 0 0   0 0 0 0 0   0 0 0 0 0  0 0 0 0.1 0" type="matrix" in="shadowBlurOuter1"></feColorMatrix>
        </filter>
        <rect id="path-9" x="9.375" y="81.25" width="75.25" height="79.55" rx="5"></rect>
        <rect id="path-10" x="9" y="8.375" width="76" height="65.575" rx="5"></rect>
        <rect id="path-12" x="0" y="0" width="82.9535064" height="71.767502"></rect>
        <path d="M5,0 L88,8.8817842e-16 C90.7614237,-6.97699784e-15 93,2.23857625 93,5 L93,166 C93,168.761424 90.7614237,171 88,171 L5,171 C2.23857625,171 1.2263553e-15,168.761424 8.8817842e-16,166 L8.8817842e-16,5 C5.50001544e-16,2.23857625 2.23857625,1.39544373e-15 5,8.8817842e-16 Z" id="path-13"></path>
        <filter x="-16.7%" y="-6.7%" width="133.3%" height="118.1%" filterUnits="objectBoundingBox" id="filter-14">
            <feMorphology radius="0.5" operator="dilate" in="SourceAlpha" result="shadowSpreadOuter1"></feMorphology>
            <feOffset dx="0" dy="4" in="shadowSpreadOuter1" result="shadowOffsetOuter1"></feOffset>
            <feGaussianBlur stdDeviation="4" in="shadowOffsetOuter1" result="shadowBlurOuter1"></feGaussianBlur>
            <feColorMatrix values="0 0 0 0 0   0 0 0 0 0   0 0 0 0 0  0 0 0 0.1 0" type="matrix" in="shadowBlurOuter1"></feColorMatrix>
        </filter>
        <rect id="path-15" x="9.375" y="81.25" width="75.25" height="79.55" rx="5"></rect>
        <rect id="path-16" x="9" y="8.375" width="76" height="65.575" rx="5"></rect>
        <rect id="path-18" x="0" y="0" width="82.9535064" height="71.767502"></rect>
        <path d="M5,0 L88,8.8817842e-16 C90.7614237,3.80913106e-16 93,2.23857625 93,5 L93,167.988372 C93,170.749796 90.7614237,172.988372 88,172.988372 L5,172.988372 C2.23857625,172.988372 1.2263553e-15,170.749796 8.8817842e-16,167.988372 L8.8817842e-16,5 C5.50001544e-16,2.23857625 2.23857625,1.39544373e-15 5,8.8817842e-16 Z" id="path-19"></path>
        <filter x="-16.7%" y="-6.6%" width="133.3%" height="117.9%" filterUnits="objectBoundingBox" id="filter-20">
            <feMorphology radius="0.5" operator="dilate" in="SourceAlpha" result="shadowSpreadOuter1"></feMorphology>
            <feOffset dx="0" dy="4" in="shadowSpreadOuter1" result="shadowOffsetOuter1"></feOffset>
            <feGaussianBlur stdDeviation="4" in="shadowOffsetOuter1" result="shadowBlurOuter1"></feGaussianBlur>
            <feColorMatrix values="0 0 0 0 0   0 0 0 0 0   0 0 0 0 0  0 0 0 0.1 0" type="matrix" in="shadowBlurOuter1"></feColorMatrix>
        </filter>
        <rect id="path-21" x="9.375" y="82.1947674" width="75.25" height="80.475" rx="5"></rect>
        <rect id="path-22" x="9" y="8.47238372" width="76" height="66.3375" rx="5"></rect>
        <rect id="path-24" x="0" y="0" width="82.9535064" height="72.7642728"></rect>
        <polygon id="path-25" points="15.7218519 14 0 14 0 0 15.7218519 0 21 7"></polygon>
        <rect id="path-27" x="0" y="0" width="58.9669504" height="58.8094808"></rect>
        <polygon id="path-28" points="15.7218519 14 0 14 0 0 15.7218519 0 21 7"></polygon>
        <rect id="path-30" x="0" y="0" width="58.9669504" height="58.8094808"></rect>
        <polygon id="path-31" points="15.7218519 14 0 14 0 0 15.7218519 0 21 7"></polygon>
        <rect id="path-33" x="0" y="0" width="58.9669504" height="58.8094808"></rect>
    </defs>
    <g id="Page-1" stroke="none" stroke-width="1" fill="none" fill-rule="evenodd">
        <g id="Cgroups">
            <g id="Group-4" transform="translate(255.000000, 24.000000)">
                <g id="Rectangle">
                    <use fill="black" fill-opacity="1" filter="url(#filter-2)" xlink:href="#path-1"></use>
                    <use fill="#4A4A4A" fill-rule="evenodd" xlink:href="#path-1"></use>
                </g>
                <g id="Group" transform="translate(21.000000, 99.000000)">
                    <g id="Rectangle-10">
                        <use fill="#6E6D6F" fill-rule="evenodd" xlink:href="#path-3"></use>
                        <rect stroke-opacity="0.1" stroke="#000000" stroke-width="1" x="0.5" y="0.5" width="69" height="73" rx="5"></rect>
                    </g>
                    <path d="M19.256,53 L19.256,46.664 L20.708,46.664 L20.708,47.648 C21.116,47.048 21.704,46.532 22.688,46.532 C24.128,46.532 24.944,47.48 24.944,48.968 L24.944,53 L23.492,53 L23.492,49.4 C23.492,48.404 23,47.852 22.136,47.852 C21.284,47.852 20.708,48.428 20.708,49.424 L20.708,53 L19.256,53 Z M29.636,51.272 C30.644,51.272 31.496,50.552 31.496,49.532 L31.496,49.508 C31.496,48.464 30.644,47.756 29.636,47.756 C28.628,47.756 27.836,48.452 27.836,49.496 L27.836,49.52 C27.836,50.564 28.64,51.272 29.636,51.272 Z M29.516,54.944 C28.46,54.944 27.512,54.692 26.684,54.188 L27.224,53.096 C27.896,53.516 28.616,53.768 29.48,53.768 C30.776,53.768 31.484,53.108 31.484,51.824 L31.484,51.332 C30.956,52.016 30.296,52.496 29.252,52.496 C27.764,52.496 26.372,51.392 26.372,49.532 L26.372,49.508 C26.372,47.636 27.764,46.532 29.252,46.532 C30.32,46.532 30.98,47.024 31.472,47.612 L31.472,46.664 L32.924,46.664 L32.924,51.704 C32.924,52.76 32.66,53.552 32.12,54.092 C31.544,54.668 30.668,54.944 29.516,54.944 Z M34.82,53 L34.82,46.664 L36.272,46.664 L36.272,53 L34.82,53 Z M34.76,45.692 L34.76,44.312 L36.32,44.312 L36.32,45.692 L34.76,45.692 Z M38.168,53 L38.168,46.664 L39.62,46.664 L39.62,47.648 C40.028,47.048 40.616,46.532 41.6,46.532 C43.04,46.532 43.856,47.48 43.856,48.968 L43.856,53 L42.404,53 L42.404,49.4 C42.404,48.404 41.912,47.852 41.048,47.852 C40.196,47.852 39.62,48.428 39.62,49.424 L39.62,53 L38.168,53 Z M45.056,53 L47.384,49.784 L45.14,46.664 L46.724,46.664 L48.188,48.752 L49.652,46.664 L51.2,46.664 L48.956,49.748 L51.296,53 L49.712,53 L48.152,50.78 L46.604,53 L45.056,53 Z M17.234,65.144 C15.35,65.144 13.958,63.668 13.958,61.868 L13.958,61.844 C13.958,60.044 15.35,58.532 17.246,58.532 C18.446,58.532 19.19,58.964 19.778,59.624 L18.878,60.596 C18.434,60.128 17.966,59.804 17.234,59.804 C16.178,59.804 15.41,60.716 15.41,61.82 L15.41,61.844 C15.41,62.96 16.19,63.884 17.306,63.884 C17.99,63.884 18.482,63.56 18.95,63.092 L19.826,63.956 C19.202,64.664 18.47,65.144 17.234,65.144 Z M24.098,63.272 C25.106,63.272 25.958,62.552 25.958,61.532 L25.958,61.508 C25.958,60.464 25.106,59.756 24.098,59.756 C23.09,59.756 22.298,60.452 22.298,61.496 L22.298,61.52 C22.298,62.564 23.102,63.272 24.098,63.272 Z M23.978,66.944 C22.922,66.944 21.974,66.692 21.146,66.188 L21.686,65.096 C22.358,65.516 23.078,65.768 23.942,65.768 C25.238,65.768 25.946,65.108 25.946,63.824 L25.946,63.332 C25.418,64.016 24.758,64.496 23.714,64.496 C22.226,64.496 20.834,63.392 20.834,61.532 L20.834,61.508 C20.834,59.636 22.226,58.532 23.714,58.532 C24.782,58.532 25.442,59.024 25.934,59.612 L25.934,58.664 L27.386,58.664 L27.386,63.704 C27.386,64.76 27.122,65.552 26.582,66.092 C26.006,66.668 25.13,66.944 23.978,66.944 Z M29.198,65 L29.198,58.664 L30.65,58.664 L30.65,60.092 C31.046,59.132 31.778,58.496 32.894,58.544 L32.894,60.08 L32.81,60.08 C31.526,60.08 30.65,60.908 30.65,62.588 L30.65,65 L29.198,65 Z M37.19,63.884 C38.378,63.884 39.11,62.96 39.11,61.868 L39.11,61.844 C39.11,60.728 38.306,59.804 37.166,59.804 C36.002,59.804 35.258,60.716 35.258,61.82 L35.258,61.844 C35.258,62.948 36.074,63.884 37.19,63.884 Z M37.166,65.144 C35.234,65.144 33.806,63.668 33.806,61.868 L33.806,61.844 C33.806,60.032 35.246,58.532 37.19,58.532 C39.146,58.532 40.562,60.008 40.562,61.82 L40.562,61.844 C40.562,63.632 39.122,65.144 37.166,65.144 Z M44.222,65.132 C42.782,65.132 41.966,64.184 41.966,62.696 L41.966,58.664 L43.418,58.664 L43.418,62.264 C43.418,63.26 43.91,63.812 44.774,63.812 C45.626,63.812 46.202,63.236 46.202,62.24 L46.202,58.664 L47.654,58.664 L47.654,65 L46.202,65 L46.202,64.016 C45.782,64.628 45.194,65.132 44.222,65.132 Z M52.742,63.872 C53.738,63.872 54.554,63.092 54.554,61.844 L54.554,61.82 C54.554,60.596 53.738,59.792 52.742,59.792 C51.746,59.792 50.894,60.608 50.894,61.82 L50.894,61.844 C50.894,63.068 51.746,63.872 52.742,63.872 Z M49.478,66.92 L49.478,58.664 L50.93,58.664 L50.93,59.72 C51.398,59.048 52.058,58.532 53.078,58.532 C54.566,58.532 56.03,59.708 56.03,61.82 L56.03,61.844 C56.03,63.956 54.59,65.132 53.078,65.132 C52.034,65.132 51.374,64.604 50.93,64.016 L50.93,66.92 L49.478,66.92 Z" id="nginx-cgroup" fill="#FFFFFF"></path>
                </g>
                <path d="M47.6875,110 L47,111.28125 L41.6875,120.9375 L41,122.15625 L41.6875,123.375 L47,132.71875 L47.71875,134 L49.1875,134 L60.0625,134 L61.625,134 L62.3125,132.59375 L66.28125,124.59375 L68.0625,120.96875 L64.03125,120.96875 L53.875,121 C52.554218,120.98132 51.339395,122.179086 51.339395,123.5 C51.339395,124.820914 52.554218,126.018679 53.875,126 L60,125.96875 L58.5,129 L50.625,129 L46.71875,122.125 L50.65625,115 L59.033471,115 L60.986596,119.007812 L66.017846,119.007812 L62.845971,111.40625 L62.158471,110 L60.595971,110 L49.1875,110 L47.6875,110 Z" id="Shape" fill="#FFFFFF" fill-rule="nonzero"></path>
                <g id="Group-2" transform="translate(96.000000, 99.000000)">
                    <g id="Rectangle-10">
                        <use fill="#6E6D6F" fill-rule="evenodd" xlink:href="#path-4"></use>
                        <rect stroke-opacity="0.1" stroke="#000000" stroke-width="1" x="0.5" y="0.5" width="69" height="73" rx="5"></rect>
                    </g>
                    <path d="M29.348,53.12 C28.436,53.12 27.464,52.796 26.66,52.172 L27.308,51.188 C27.992,51.704 28.724,51.968 29.384,51.968 C30.008,51.968 30.368,51.704 30.368,51.284 L30.368,51.26 C30.368,50.78 29.696,50.6 28.952,50.372 C28.028,50.12 26.972,49.724 26.972,48.512 L26.972,48.488 C26.972,47.288 27.968,46.556 29.228,46.556 C30.032,46.556 30.884,46.832 31.556,47.276 L30.98,48.308 C30.368,47.936 29.72,47.708 29.192,47.708 C28.628,47.708 28.304,47.972 28.304,48.344 L28.304,48.368 C28.304,48.8 29,49.028 29.732,49.256 C30.644,49.544 31.7,49.964 31.7,51.104 L31.7,51.128 C31.7,52.46 30.668,53.12 29.348,53.12 Z M36.14,51.872 C37.112,51.872 37.976,51.056 37.976,49.844 L37.976,49.82 C37.976,48.596 37.112,47.792 36.14,47.792 C35.144,47.792 34.316,48.56 34.316,49.82 L34.316,49.844 C34.316,51.068 35.144,51.872 36.14,51.872 Z M37.952,54.92 L37.952,51.944 C37.484,52.604 36.812,53.132 35.792,53.132 C34.304,53.132 32.852,51.956 32.852,49.844 L32.852,49.82 C32.852,47.708 34.28,46.532 35.792,46.532 C36.836,46.532 37.484,47.06 37.952,47.648 L37.952,46.664 L39.404,46.664 L39.404,54.92 L37.952,54.92 Z M41.3,53 L41.3,44.24 L42.752,44.24 L42.752,53 L41.3,53 Z M17.234,65.144 C15.35,65.144 13.958,63.668 13.958,61.868 L13.958,61.844 C13.958,60.044 15.35,58.532 17.246,58.532 C18.446,58.532 19.19,58.964 19.778,59.624 L18.878,60.596 C18.434,60.128 17.966,59.804 17.234,59.804 C16.178,59.804 15.41,60.716 15.41,61.82 L15.41,61.844 C15.41,62.96 16.19,63.884 17.306,63.884 C17.99,63.884 18.482,63.56 18.95,63.092 L19.826,63.956 C19.202,64.664 18.47,65.144 17.234,65.144 Z M24.098,63.272 C25.106,63.272 25.958,62.552 25.958,61.532 L25.958,61.508 C25.958,60.464 25.106,59.756 24.098,59.756 C23.09,59.756 22.298,60.452 22.298,61.496 L22.298,61.52 C22.298,62.564 23.102,63.272 24.098,63.272 Z M23.978,66.944 C22.922,66.944 21.974,66.692 21.146,66.188 L21.686,65.096 C22.358,65.516 23.078,65.768 23.942,65.768 C25.238,65.768 25.946,65.108 25.946,63.824 L25.946,63.332 C25.418,64.016 24.758,64.496 23.714,64.496 C22.226,64.496 20.834,63.392 20.834,61.532 L20.834,61.508 C20.834,59.636 22.226,58.532 23.714,58.532 C24.782,58.532 25.442,59.024 25.934,59.612 L25.934,58.664 L27.386,58.664 L27.386,63.704 C27.386,64.76 27.122,65.552 26.582,66.092 C26.006,66.668 25.13,66.944 23.978,66.944 Z M29.198,65 L29.198,58.664 L30.65,58.664 L30.65,60.092 C31.046,59.132 31.778,58.496 32.894,58.544 L32.894,60.08 L32.81,60.08 C31.526,60.08 30.65,60.908 30.65,62.588 L30.65,65 L29.198,65 Z M37.19,63.884 C38.378,63.884 39.11,62.96 39.11,61.868 L39.11,61.844 C39.11,60.728 38.306,59.804 37.166,59.804 C36.002,59.804 35.258,60.716 35.258,61.82 L35.258,61.844 C35.258,62.948 36.074,63.884 37.19,63.884 Z M37.166,65.144 C35.234,65.144 33.806,63.668 33.806,61.868 L33.806,61.844 C33.806,60.032 35.246,58.532 37.19,58.532 C39.146,58.532 40.562,60.008 40.562,61.82 L40.562,61.844 C40.562,63.632 39.122,65.144 37.166,65.144 Z M44.222,65.132 C42.782,65.132 41.966,64.184 41.966,62.696 L41.966,58.664 L43.418,58.664 L43.418,62.264 C43.418,63.26 43.91,63.812 44.774,63.812 C45.626,63.812 46.202,63.236 46.202,62.24 L46.202,58.664 L47.654,58.664 L47.654,65 L46.202,65 L46.202,64.016 C45.782,64.628 45.194,65.132 44.222,65.132 Z M52.742,63.872 C53.738,63.872 54.554,63.092 54.554,61.844 L54.554,61.82 C54.554,60.596 53.738,59.792 52.742,59.792 C51.746,59.792 50.894,60.608 50.894,61.82 L50.894,61.844 C50.894,63.068 51.746,63.872 52.742,63.872 Z M49.478,66.92 L49.478,58.664 L50.93,58.664 L50.93,59.72 C51.398,59.048 52.058,58.532 53.078,58.532 C54.566,58.532 56.03,59.708 56.03,61.82 L56.03,61.844 C56.03,63.956 54.59,65.132 53.078,65.132 C52.034,65.132 51.374,64.604 50.93,64.016 L50.93,66.92 L49.478,66.92 Z" id="sql-cgroup" fill="#FFFFFF"></path>
                </g>
                <path d="M143,131.139303 C143,132.305638 138.32525,134 131,134 C123.67475,134 119,132.305638 119,131.139303 L119,128 C119.33075,128.198507 119.710625,128.383416 120.130625,128.555058 C120.43925,128.681426 120.770562,128.800332 121.121375,128.911774 C121.503875,129.033167 121.908687,129.146269 122.334125,129.250249 C124.79,129.850746 127.903063,130.158209 131,130.158209 C134.097125,130.158209 137.209812,129.850746 139.665875,129.250249 C140.091313,129.146269 140.496312,129.033167 140.878625,128.911774 C141.229437,128.8 141.56075,128.681095 141.869375,128.555058 C142.289375,128.383416 142.669438,128.199005 143,128 L143,131.139303 Z M143,125.139217 C143,125.729913 141.8,126.455432 139.665875,127.028385 C139.193187,127.155247 138.675125,127.274149 138.113375,127.383102 C137.438,127.513612 136.701875,127.629198 135.906875,127.723722 C134.452438,127.89652 132.807687,128 131,128 C129.192688,128 127.547375,127.89652 126.093312,127.723557 C125.298687,127.629198 124.562,127.513446 123.886813,127.382936 C123.32525,127.274315 122.806813,127.155081 122.334312,127.028219 C120.2,126.455432 119,125.729913 119,125.139217 L119,122.000166 C119.33075,122.198668 119.710437,122.383406 120.130437,122.555043 C120.43925,122.681407 120.770375,122.80031 121.121188,122.911583 C121.5035,123.033139 121.908312,123.146071 122.33375,123.25038 C124.789812,123.850861 127.902875,124.158149 131,124.158149 C134.097125,124.158149 137.210188,123.850861 139.66625,123.25038 C140.091875,123.146071 140.496688,123.033139 140.879,122.911583 C141.229813,122.800144 141.560937,122.681076 141.869563,122.555043 C142.289562,122.383406 142.669438,122.198668 143,122 L143,125.139217 Z M143,119.139383 C143,119.729913 141.8,120.455432 139.66625,121.028219 C139.193562,121.155081 138.6755,121.274149 138.11375,121.382936 C137.438562,121.513612 136.702063,121.629032 135.907438,121.723557 C134.453,121.89652 132.807687,122 131,122 C129.192313,122 127.547,121.89652 126.092562,121.723557 C125.297938,121.629032 124.561437,121.513612 123.88625,121.382936 C123.324875,121.274149 122.806438,121.154916 122.333938,121.028219 C120.2,120.455432 119,119.729913 119,119.139383 L119,116.000166 C119.33075,116.198834 119.710625,116.383571 120.130625,116.555209 C120.439437,116.681407 120.770562,116.800475 121.121562,116.911915 C121.503875,117.033471 121.908875,117.146569 122.334125,117.250546 C124.790188,117.850861 127.903063,118.158149 131,118.158149 C134.097125,118.158149 137.209812,117.850861 139.665875,117.25038 C140.091313,117.146403 140.496312,117.033305 140.878625,116.911749 C141.229437,116.800144 141.560563,116.681242 141.869375,116.555043 C142.289375,116.383406 142.669438,116.198668 143,116 L143,119.139383 Z M131,110 C138.32525,110 143,111.77687 143,113 C143,113.619304 141.8,114.380348 139.665875,114.981043 C139.193187,115.114087 138.67475,115.238957 138.113375,115.353043 C137.438,115.490087 136.701875,115.61113 135.906875,115.710261 C134.452438,115.891478 132.807687,116 131,116 C129.192688,116 127.547375,115.891478 126.093312,115.710087 C125.298687,115.610957 124.562,115.489913 123.886813,115.35287 C123.32525,115.238783 122.806813,115.113739 122.334312,114.98087 C120.2,114.380348 119,113.619304 119,113 C119,111.77687 123.67475,110 131,110 Z" id="Shape" fill="#FFFFFF" fill-rule="nonzero"></path>
                <g id="Rectangle-10">
                    <use fill="#6E6D6F" fill-rule="evenodd" xlink:href="#path-5"></use>
                    <rect stroke-opacity="0.1" stroke="#000000" stroke-width="1" x="21.5" y="19.5" width="69" height="73" rx="5"></rect>
                </g>
                <g id="Group-3" transform="translate(0.000000, 25.000000)" fill="#4A4A4A">
                    <rect id="Rectangle-5" x="0" y="0" width="15" height="8" rx="4"></rect>
                    <rect id="Rectangle-5" x="0" y="18.4285714" width="15" height="8" rx="4"></rect>
                    <rect id="Rectangle-5" x="0" y="36.8571429" width="15" height="8" rx="4"></rect>
                    <rect id="Rectangle-5" x="0" y="55.2857143" width="15" height="8" rx="4"></rect>
                    <rect id="Rectangle-5" x="0" y="73.7142857" width="15" height="8" rx="4"></rect>
                    <rect id="Rectangle-5" x="0" y="92.1428571" width="15" height="8" rx="4"></rect>
                    <rect id="Rectangle-5" x="0" y="110.571429" width="15" height="8" rx="4"></rect>
                    <rect id="Rectangle-5" x="0" y="129" width="15" height="8" rx="4"></rect>
                </g>
                <g id="Group-3" transform="translate(172.000000, 25.000000)" fill="#4A4A4A">
                    <rect id="Rectangle-5" x="0" y="0" width="15" height="8" rx="4"></rect>
                    <rect id="Rectangle-5" x="0" y="18.4285714" width="15" height="8" rx="4"></rect>
                    <rect id="Rectangle-5" x="0" y="36.8571429" width="15" height="8" rx="4"></rect>
                    <rect id="Rectangle-5" x="0" y="55.2857143" width="15" height="8" rx="4"></rect>
                    <rect id="Rectangle-5" x="0" y="73.7142857" width="15" height="8" rx="4"></rect>
                    <rect id="Rectangle-5" x="0" y="92.1428571" width="15" height="8" rx="4"></rect>
                    <rect id="Rectangle-5" x="0" y="110.571429" width="15" height="8" rx="4"></rect>
                    <rect id="Rectangle-5" x="0" y="129" width="15" height="8" rx="4"></rect>
                </g>
                <g id="Group-3" transform="translate(93.500000, 7.500000) rotate(90.000000) translate(-93.500000, -7.500000) translate(86.000000, -61.000000)" fill="#4A4A4A">
                    <rect id="Rectangle-5" x="0" y="0" width="15" height="8" rx="4"></rect>
                    <rect id="Rectangle-5" x="0" y="18.4285714" width="15" height="8" rx="4"></rect>
                    <rect id="Rectangle-5" x="0" y="36.8571429" width="15" height="8" rx="4"></rect>
                    <rect id="Rectangle-5" x="0" y="55.2857143" width="15" height="8" rx="4"></rect>
                    <rect id="Rectangle-5" x="0" y="73.7142857" width="15" height="8" rx="4"></rect>
                    <rect id="Rectangle-5" x="0" y="92.1428571" width="15" height="8" rx="4"></rect>
                    <rect id="Rectangle-5" x="0" y="110.571429" width="15" height="8" rx="4"></rect>
                    <rect id="Rectangle-5" x="0" y="129" width="15" height="8" rx="4"></rect>
                </g>
                <g id="Group-3" transform="translate(93.500000, 184.500000) rotate(90.000000) translate(-93.500000, -184.500000) translate(86.000000, 116.000000)" fill="#4A4A4A">
                    <rect id="Rectangle-5" x="0" y="0" width="15" height="8" rx="4"></rect>
                    <rect id="Rectangle-5" x="0" y="18.4285714" width="15" height="8" rx="4"></rect>
                    <rect id="Rectangle-5" x="0" y="36.8571429" width="15" height="8" rx="4"></rect>
                    <rect id="Rectangle-5" x="0" y="55.2857143" width="15" height="8" rx="4"></rect>
                    <rect id="Rectangle-5" x="0" y="73.7142857" width="15" height="8" rx="4"></rect>
                    <rect id="Rectangle-5" x="0" y="92.1428571" width="15" height="8" rx="4"></rect>
                    <rect id="Rectangle-5" x="0" y="110.571429" width="15" height="8" rx="4"></rect>
                    <rect id="Rectangle-5" x="0" y="129" width="15" height="8" rx="4"></rect>
                </g>
                <g id="Rectangle-10">
                    <use fill="#6E6D6F" fill-rule="evenodd" xlink:href="#path-6"></use>
                    <rect stroke-opacity="0.1" stroke="#000000" stroke-width="1" x="96.5" y="19.5" width="69" height="73" rx="5"></rect>
                </g>
            </g>
            <g id="Group-5" transform="translate(9.000000, 47.000000)">
                <path d="M51.5540549,196.801429 L0.669908039,109.586392 L51.5540549,0.248939737 L51.5540549,0 L270,0 L270,197 L51.5540549,197 L51.5540549,196.801429 Z" id="Combined-Shape" fill="#D5E5FC" opacity="0.688405797" transform="translate(135.334954, 98.500000) scale(-1, 1) translate(-135.334954, -98.500000) "></path>
                <g id="box" transform="translate(13.000000, 16.000000)">
                    <g id="Rectangle">
                        <use fill="black" fill-opacity="1" filter="url(#filter-8)" xlink:href="#path-7"></use>
                        <use fill="#FFFFFF" fill-rule="evenodd" xlink:href="#path-7"></use>
                    </g>
                    <g id="Rectangle-10">
                        <use fill="#4A4A4A" fill-rule="evenodd" xlink:href="#path-9"></use>
                        <rect stroke-opacity="0.1" stroke="#000000" stroke-width="1" x="9.875" y="81.75" width="74.25" height="78.55" rx="5"></rect>
                    </g>
                    <path d="M24.2855469,96.55 L23.2660156,96.55 L23.1136719,91.7746094 L23.0492188,89.940625 L22.6917969,91.0070313 L21.5609375,94.0539063 L20.8402344,94.0539063 L19.7621094,91.1242188 L19.4046875,89.940625 L19.38125,91.8566406 L19.2464844,96.55 L18.2621094,96.55 L18.6371094,88.8917969 L19.8734375,88.8917969 L20.9046875,91.7746094 L21.2386719,92.7472656 L21.5609375,91.7746094 L22.6449219,88.8917969 L23.9164063,88.8917969 L24.2855469,96.55 Z M31.1813802,92.6710938 C31.1813802,93.3585972 31.1003263,93.9523413 30.9382162,94.4523438 C30.776106,94.9523463 30.5573582,95.3654281 30.2819662,95.6916016 C30.0065742,96.0177751 29.6843118,96.2599601 29.3151693,96.4181641 C28.9460268,96.576368 28.5563823,96.6554688 28.146224,96.6554688 C27.654034,96.6554688 27.2253274,96.5666025 26.8600912,96.3888672 C26.494855,96.2111319 26.1921236,95.9542986 25.951888,95.6183594 C25.7116525,95.2824202 25.5329433,94.8732446 25.4157552,94.3908203 C25.2985671,93.908396 25.239974,93.3644562 25.239974,92.7589844 C25.239974,92.0792935 25.3200513,91.4894556 25.4802083,90.9894531 C25.6403654,90.4894506 25.8581367,90.0763688 26.1335287,89.7501953 C26.4089207,89.4240218 26.7302065,89.1818367 27.0973958,89.0236328 C27.4645852,88.8654289 27.8532532,88.7863281 28.2634115,88.7863281 C28.7556014,88.7863281 29.1843081,88.876171 29.5495443,89.0558594 C29.9147805,89.2355478 30.2184884,89.4923811 30.4606771,89.8263672 C30.7028658,90.1603532 30.8835281,90.5675757 31.0026693,91.0480469 C31.1218105,91.528518 31.1813802,92.0695282 31.1813802,92.6710938 Z M30.0973958,92.7472656 C30.0973958,92.2980446 30.0632165,91.8869159 29.9948568,91.5138672 C29.9264971,91.1408184 29.8161466,90.8195326 29.6638021,90.55 C29.5114576,90.2804674 29.3151705,90.0714851 29.0749349,89.9230469 C28.8346993,89.7746086 28.5446632,89.7003906 28.2048177,89.7003906 C27.8766911,89.7003906 27.5944673,89.7794914 27.358138,89.9376953 C27.1218087,90.0958992 26.9274747,90.3107408 26.7751302,90.5822266 C26.6227857,90.8537123 26.5095056,91.1720685 26.4352865,91.5373047 C26.3610673,91.9025409 26.3239583,92.2902323 26.3239583,92.7003906 C26.3239583,93.1535179 26.3591142,93.5665997 26.4294271,93.9396484 C26.4997399,94.3126972 26.6100904,94.6330065 26.7604818,94.9005859 C26.9108732,95.1681654 27.1052072,95.3761711 27.3434896,95.5246094 C27.581772,95.6730476 27.8688785,95.7472656 28.2048177,95.7472656 C28.5329444,95.7472656 28.8161447,95.6681649 29.0544271,95.5099609 C29.2927095,95.351757 29.4889966,95.1369154 29.6432943,94.8654297 C29.7975919,94.593944 29.9118486,94.2765643 29.9860677,93.9132813 C30.0602868,93.5499982 30.0973958,93.1613302 30.0973958,92.7472656 Z M38.4111979,88.8917969 L35.8096354,96.55 L34.4033854,96.55 L31.8604167,88.8917969 L33.0381511,88.8917969 L34.6904948,94.0539063 L35.1592448,95.565625 L35.6397136,94.0539063 L37.2979167,88.8917969 L38.4111979,88.8917969 Z M23.1136719,101.891797 L23.1136719,107.212109 C23.1136719,107.540236 23.0648442,107.851756 22.9671875,108.14668 C22.8695308,108.441603 22.7210947,108.698436 22.521875,108.917188 C22.3226553,109.135939 22.0726578,109.309765 21.771875,109.438672 C21.4710922,109.567579 21.1175802,109.632031 20.7113281,109.632031 C20.5589836,109.632031 20.4037117,109.621289 20.2455078,109.599805 C20.0873039,109.57832 19.9349617,109.549024 19.7884766,109.511914 C19.6419915,109.474805 19.5042975,109.429883 19.3753906,109.377148 C19.2464837,109.324414 19.1351567,109.266797 19.0414063,109.204297 L19.0414063,108.155469 C19.283595,108.331251 19.552147,108.469921 19.8470703,108.571484 C20.1419937,108.673047 20.4339829,108.723828 20.7230469,108.723828 C21.1488303,108.723828 21.476952,108.593947 21.7074219,108.33418 C21.9378918,108.074413 22.053125,107.700393 22.053125,107.212109 L22.053125,102.794141 L19.1410156,102.794141 L19.1410156,101.891797 L23.1136719,101.891797 Z M31.2165365,109.55 L30.1970052,109.55 L30.0446615,104.774609 L29.9802083,102.940625 L29.6227865,104.007031 L28.4919271,107.053906 L27.771224,107.053906 L26.693099,104.124219 L26.3356771,102.940625 L26.3122396,104.856641 L26.177474,109.55 L25.193099,109.55 L25.568099,101.891797 L26.8044271,101.891797 L27.8356771,104.774609 L28.1696615,105.747266 L28.4919271,104.774609 L29.5759115,101.891797 L30.8473958,101.891797 L31.2165365,109.55 Z M37.7901042,104.235547 C37.7901042,104.548048 37.731511,104.857616 37.6143229,105.164258 C37.4971349,105.4709 37.315496,105.745311 37.0694011,105.9875 C36.8233061,106.229689 36.5088561,106.425976 36.1260417,106.576367 C35.7432273,106.726759 35.2862006,106.801953 34.7549479,106.801953 L33.8057292,106.801953 L33.8057292,109.55 L32.7627604,109.55 L32.7627604,101.891797 L34.9190104,101.891797 C35.2979186,101.891797 35.6611962,101.933789 36.0088542,102.017773 C36.3565122,102.101758 36.6621732,102.237499 36.9258464,102.425 C37.1895196,102.612501 37.3994784,102.854686 37.5557292,103.151563 C37.71198,103.448439 37.7901042,103.809763 37.7901042,104.235547 Z M36.7061198,104.282422 C36.7061198,103.790232 36.5449886,103.413283 36.2227214,103.151563 C35.9004541,102.889842 35.4502633,102.758984 34.8721354,102.758984 L33.8057292,102.758984 L33.8057292,105.911328 L34.7783854,105.911328 C35.395576,105.911328 35.8711572,105.776564 36.2051432,105.507031 C36.5391293,105.237499 36.7061198,104.8293 36.7061198,104.282422 Z M24.5140625,122.55 L23.3773438,122.55 L22.8441406,120.880078 L19.6566406,120.880078 L19.1175781,122.55 L18.0335938,122.55 L20.5765625,114.891797 L22.00625,114.891797 L24.5140625,122.55 Z M22.5453125,119.948438 L21.2503906,115.852734 L19.9554688,119.948438 L22.5453125,119.948438 Z M31.0759115,118.635938 C31.0759115,119.003127 31.0475914,119.354686 30.9909505,119.690625 C30.9343096,120.026564 30.8434902,120.339061 30.7184896,120.628125 C30.593489,120.917189 30.4313812,121.179882 30.2321615,121.416211 C30.0329417,121.65254 29.7888035,121.854687 29.4997396,122.022656 C29.2106756,122.190626 28.8747415,122.320507 28.4919271,122.412305 C28.1091127,122.504102 27.6735702,122.55 27.1852865,122.55 L25.5446615,122.55 L25.5446615,114.891797 L27.5192708,114.891797 C28.7145893,114.891797 29.606182,115.199411 30.1940755,115.814648 C30.7819691,116.429886 31.0759115,117.370306 31.0759115,118.635938 Z M29.9802083,118.712109 C29.9802083,118.169138 29.9294276,117.710158 29.8278646,117.335156 C29.7263016,116.960154 29.5720063,116.657423 29.364974,116.426953 C29.1579417,116.196483 28.8981787,116.029493 28.5856771,115.925977 C28.2731755,115.82246 27.9059917,115.770703 27.4841146,115.770703 L26.5876302,115.770703 L26.5876302,121.647656 L27.3669271,121.647656 C29.1091233,121.647656 29.9802083,120.66915 29.9802083,118.712109 Z M38.0069011,118.635938 C38.0069011,119.003127 37.978581,119.354686 37.9219401,119.690625 C37.8652992,120.026564 37.7744798,120.339061 37.6494792,120.628125 C37.5244786,120.917189 37.3623708,121.179882 37.1631511,121.416211 C36.9639313,121.65254 36.7197931,121.854687 36.4307292,122.022656 C36.1416652,122.190626 35.8057311,122.320507 35.4229167,122.412305 C35.0401023,122.504102 34.6045598,122.55 34.1162761,122.55 L32.4756511,122.55 L32.4756511,114.891797 L34.4502604,114.891797 C35.6455789,114.891797 36.5371716,115.199411 37.1250651,115.814648 C37.7129587,116.429886 38.0069011,117.370306 38.0069011,118.635938 Z M36.9111979,118.712109 C36.9111979,118.169138 36.8604172,117.710158 36.7588542,117.335156 C36.6572912,116.960154 36.5029958,116.657423 36.2959636,116.426953 C36.0889313,116.196483 35.8291682,116.029493 35.5166667,115.925977 C35.2041651,115.82246 34.8369813,115.770703 34.4151042,115.770703 L33.5186198,115.770703 L33.5186198,121.647656 L34.2979167,121.647656 C36.0401129,121.647656 36.9111979,120.66915 36.9111979,118.712109 Z M24.2855469,135.55 L23.2660156,135.55 L23.1136719,130.774609 L23.0492188,128.940625 L22.6917969,130.007031 L21.5609375,133.053906 L20.8402344,133.053906 L19.7621094,130.124219 L19.4046875,128.940625 L19.38125,130.856641 L19.2464844,135.55 L18.2621094,135.55 L18.6371094,127.891797 L19.8734375,127.891797 L20.9046875,130.774609 L21.2386719,131.747266 L21.5609375,130.774609 L22.6449219,127.891797 L23.9164063,127.891797 L24.2855469,135.55 Z M31.1813802,131.671094 C31.1813802,132.358597 31.1003263,132.952341 30.9382162,133.452344 C30.776106,133.952346 30.5573582,134.365428 30.2819662,134.691602 C30.0065742,135.017775 29.6843118,135.25996 29.3151693,135.418164 C28.9460268,135.576368 28.5563823,135.655469 28.146224,135.655469 C27.654034,135.655469 27.2253274,135.566602 26.8600912,135.388867 C26.494855,135.211132 26.1921236,134.954299 25.951888,134.618359 C25.7116525,134.28242 25.5329433,133.873245 25.4157552,133.39082 C25.2985671,132.908396 25.239974,132.364456 25.239974,131.758984 C25.239974,131.079293 25.3200513,130.489456 25.4802083,129.989453 C25.6403654,129.489451 25.8581367,129.076369 26.1335287,128.750195 C26.4089207,128.424022 26.7302065,128.181837 27.0973958,128.023633 C27.4645852,127.865429 27.8532532,127.786328 28.2634115,127.786328 C28.7556014,127.786328 29.1843081,127.876171 29.5495443,128.055859 C29.9147805,128.235548 30.2184884,128.492381 30.4606771,128.826367 C30.7028658,129.160353 30.8835281,129.567576 31.0026693,130.048047 C31.1218105,130.528518 31.1813802,131.069528 31.1813802,131.671094 Z M30.0973958,131.747266 C30.0973958,131.298045 30.0632165,130.886916 29.9948568,130.513867 C29.9264971,130.140818 29.8161466,129.819533 29.6638021,129.55 C29.5114576,129.280467 29.3151705,129.071485 29.0749349,128.923047 C28.8346993,128.774609 28.5446632,128.700391 28.2048177,128.700391 C27.8766911,128.700391 27.5944673,128.779491 27.358138,128.937695 C27.1218087,129.095899 26.9274747,129.310741 26.7751302,129.582227 C26.6227857,129.853712 26.5095056,130.172068 26.4352865,130.537305 C26.3610673,130.902541 26.3239583,131.290232 26.3239583,131.700391 C26.3239583,132.153518 26.3591142,132.5666 26.4294271,132.939648 C26.4997399,133.312697 26.6100904,133.633006 26.7604818,133.900586 C26.9108732,134.168165 27.1052072,134.376171 27.3434896,134.524609 C27.581772,134.673048 27.8688785,134.747266 28.2048177,134.747266 C28.5329444,134.747266 28.8161447,134.668165 29.0544271,134.509961 C29.2927095,134.351757 29.4889966,134.136915 29.6432943,133.86543 C29.7975919,133.593944 29.9118486,133.276564 29.9860677,132.913281 C30.0602868,132.549998 30.0973958,132.16133 30.0973958,131.747266 Z M38.4111979,127.891797 L35.8096354,135.55 L34.4033854,135.55 L31.8604167,127.891797 L33.0381511,127.891797 L34.6904948,133.053906 L35.1592448,134.565625 L35.6397136,133.053906 L37.2979167,127.891797 L38.4111979,127.891797 Z M23.8050781,148.262891 C23.1917938,148.516798 22.5492221,148.64375 21.8773438,148.64375 C20.7953071,148.64375 19.9642607,148.320511 19.3841797,147.674023 C18.8040987,147.027536 18.5140625,146.071491 18.5140625,144.805859 C18.5140625,144.192575 18.5941398,143.637893 18.7542969,143.141797 C18.9144539,142.645701 19.1429673,142.224806 19.4398438,141.879102 C19.7367202,141.533397 20.0960916,141.266798 20.5179688,141.079297 C20.9398459,140.891796 21.4124974,140.798047 21.9359375,140.798047 C22.291408,140.798047 22.6214829,140.82832 22.9261719,140.888867 C23.2308609,140.949414 23.5238267,141.042187 23.8050781,141.167188 L23.8050781,142.192578 C23.527733,142.040234 23.2406265,141.924024 22.94375,141.843945 C22.6468735,141.763867 22.322658,141.723828 21.9710938,141.723828 C21.611717,141.723828 21.2865249,141.79121 20.9955078,141.925977 C20.7044907,142.060743 20.4574229,142.256053 20.2542969,142.511914 C20.0511709,142.767775 19.8949224,143.080272 19.7855469,143.449414 C19.6761713,143.818557 19.6214844,144.239451 19.6214844,144.712109 C19.6214844,145.704302 19.8226542,146.452341 20.225,146.95625 C20.6273458,147.460159 21.2171836,147.712109 21.9945313,147.712109 C22.3226579,147.712109 22.6371079,147.674024 22.9378906,147.597852 C23.2386734,147.521679 23.527733,147.415235 23.8050781,147.278516 L23.8050781,148.262891 Z M30.8591146,143.235547 C30.8591146,143.548048 30.8005214,143.857616 30.6833333,144.164258 C30.5661453,144.4709 30.3845064,144.745311 30.1384115,144.9875 C29.8923165,145.229689 29.5778665,145.425976 29.1950521,145.576367 C28.8122377,145.726759 28.355211,145.801953 27.8239583,145.801953 L26.8747396,145.801953 L26.8747396,148.55 L25.8317708,148.55 L25.8317708,140.891797 L27.9880208,140.891797 C28.366929,140.891797 28.7302066,140.933789 29.0778646,141.017773 C29.4255226,141.101758 29.7311836,141.237499 29.9948568,141.425 C30.25853,141.612501 30.4684888,141.854686 30.6247396,142.151563 C30.7809904,142.448439 30.8591146,142.809763 30.8591146,143.235547 Z M29.7751302,143.282422 C29.7751302,142.790232 29.613999,142.413283 29.2917318,142.151563 C28.9694645,141.889842 28.5192737,141.758984 27.9411458,141.758984 L26.8747396,141.758984 L26.8747396,144.911328 L27.8473958,144.911328 C28.4645864,144.911328 28.9401676,144.776564 29.2741537,144.507031 C29.6081397,144.237499 29.7751302,143.8293 29.7751302,143.282422 Z M38.4346354,140.891797 L35.6631511,145.813672 L35.6631511,148.55 L34.6084636,148.55 L34.6084636,145.790234 L31.8369792,140.891797 L33.0967448,140.891797 L34.6201823,143.692578 L35.1826823,144.817578 L35.6983073,143.798047 L37.2393229,140.891797 L38.4346354,140.891797 Z" id="ADD-MOV-JMP-MOV-CPY" fill="#FFFFFF"></path>
                    <mask id="mask-11" fill="white">
                        <use xlink:href="#path-10"></use>
                    </mask>
                    <g id="Rectangle">
                        <use fill="#00C89C" fill-rule="evenodd" xlink:href="#path-10"></use>
                        <rect stroke-opacity="0.1" stroke="#000000" stroke-width="1" x="9.5" y="8.875" width="75" height="64.575" rx="5"></rect>
                    </g>
                    <g id="color/Fire" mask="url(#mask-11)">
                        <g transform="translate(5.075000, 4.135849)" id="Rectangle">
                            <g>
                                <use fill="#FD716A" fill-rule="evenodd" xlink:href="#path-12"></use>
                                <rect stroke-opacity="0.1" stroke="#000000" stroke-width="1" x="0.5" y="0.5" width="81.9535064" height="70.767502"></rect>
                            </g>
                        </g>
                    </g>
                    <path d="M34.9861667,28.966 C35.8991667,28.966 36.6471667,28.251 36.6471667,27.107 L36.6471667,27.085 C36.6471667,25.963 35.8991667,25.226 34.9861667,25.226 C34.0731667,25.226 33.2921667,25.974 33.2921667,27.085 L33.2921667,27.107 C33.2921667,28.229 34.0731667,28.966 34.9861667,28.966 Z M31.9941667,31.76 L31.9941667,24.192 L33.3251667,24.192 L33.3251667,25.16 C33.7541667,24.544 34.3591667,24.071 35.2941667,24.071 C36.6581667,24.071 38.0001667,25.149 38.0001667,27.085 L38.0001667,27.107 C38.0001667,29.043 36.6801667,30.121 35.2941667,30.121 C34.3371667,30.121 33.7321667,29.637 33.3251667,29.098 L33.3251667,31.76 L31.9941667,31.76 Z M39.2578333,30 L39.2578333,24.192 L40.5888333,24.192 L40.5888333,30 L39.2578333,30 Z M39.2028333,23.301 L39.2028333,22.036 L40.6328333,22.036 L40.6328333,23.301 L39.2028333,23.301 Z M44.8605,28.966 C45.7515,28.966 46.5435,28.218 46.5435,27.107 L46.5435,27.085 C46.5435,25.963 45.7515,25.226 44.8605,25.226 C43.9475,25.226 43.1885,25.93 43.1885,27.085 L43.1885,27.107 C43.1885,28.229 43.9475,28.966 44.8605,28.966 Z M44.5415,30.121 C43.1775,30.121 41.8465,29.043 41.8465,27.107 L41.8465,27.085 C41.8465,25.149 43.1555,24.071 44.5415,24.071 C45.4985,24.071 46.0925,24.555 46.5215,25.094 L46.5215,21.97 L47.8525,21.97 L47.8525,30 L46.5215,30 L46.5215,29.032 C46.0925,29.637 45.4765,30.121 44.5415,30.121 Z M49.2971667,30 L49.2971667,28.493 L50.7601667,28.493 L50.7601667,30 L49.2971667,30 Z M49.2971667,25.699 L49.2971667,24.192 L50.7601667,24.192 L50.7601667,25.699 L49.2971667,25.699 Z M56.4545,30 L56.4545,23.62 L55.0685,24.005 L54.7825,22.905 L56.8505,22.245 L57.7965,22.245 L57.7965,30 L56.4545,30 Z M60.6271667,30 L60.6271667,23.62 L59.2411667,24.005 L58.9551667,22.905 L61.0231667,22.245 L61.9691667,22.245 L61.9691667,30 L60.6271667,30 Z M33.0263333,45 L33.0263333,39.192 L34.3573333,39.192 L34.3573333,40.094 C34.7313333,39.544 35.2703333,39.071 36.1723333,39.071 C37.4923333,39.071 38.2403333,39.94 38.2403333,41.304 L38.2403333,45 L36.9093333,45 L36.9093333,41.7 C36.9093333,40.787 36.4583333,40.281 35.6663333,40.281 C34.8853333,40.281 34.3573333,40.809 34.3573333,41.722 L34.3573333,45 L33.0263333,45 Z M42.358,43.416 C43.282,43.416 44.063,42.756 44.063,41.821 L44.063,41.799 C44.063,40.842 43.282,40.193 42.358,40.193 C41.434,40.193 40.708,40.831 40.708,41.788 L40.708,41.81 C40.708,42.767 41.445,43.416 42.358,43.416 Z M42.248,46.782 C41.28,46.782 40.411,46.551 39.652,46.089 L40.147,45.088 C40.763,45.473 41.423,45.704 42.215,45.704 C43.403,45.704 44.052,45.099 44.052,43.922 L44.052,43.471 C43.568,44.098 42.963,44.538 42.006,44.538 C40.642,44.538 39.366,43.526 39.366,41.821 L39.366,41.799 C39.366,40.083 40.642,39.071 42.006,39.071 C42.985,39.071 43.59,39.522 44.041,40.061 L44.041,39.192 L45.372,39.192 L45.372,43.812 C45.372,44.78 45.13,45.506 44.635,46.001 C44.107,46.529 43.304,46.782 42.248,46.782 Z M46.9266667,45 L46.9266667,39.192 L48.2576667,39.192 L48.2576667,45 L46.9266667,45 Z M46.8716667,38.301 L46.8716667,37.036 L48.3016667,37.036 L48.3016667,38.301 L46.8716667,38.301 Z M49.8123333,45 L49.8123333,39.192 L51.1433333,39.192 L51.1433333,40.094 C51.5173333,39.544 52.0563333,39.071 52.9583333,39.071 C54.2783333,39.071 55.0263333,39.94 55.0263333,41.304 L55.0263333,45 L53.6953333,45 L53.6953333,41.7 C53.6953333,40.787 53.2443333,40.281 52.4523333,40.281 C51.6713333,40.281 51.1433333,40.809 51.1433333,41.722 L51.1433333,45 L49.8123333,45 Z M55.943,45 L58.077,42.052 L56.02,39.192 L57.472,39.192 L58.814,41.106 L60.156,39.192 L61.575,39.192 L59.518,42.019 L61.663,45 L60.211,45 L58.781,42.965 L57.362,45 L55.943,45 Z M41.7933333,56.304 L43.3663333,56.304 C44.3893333,56.304 45.0273333,55.732 45.0273333,54.929 L45.0273333,54.907 C45.0273333,53.994 44.3783333,53.532 43.3663333,53.532 L41.7933333,53.532 L41.7933333,56.304 Z M40.4403333,60 L40.4403333,52.3 L43.4763333,52.3 C45.2803333,52.3 46.4023333,53.323 46.4023333,54.874 L46.4023333,54.896 C46.4023333,56.612 45.0273333,57.525 43.3223333,57.525 L41.7933333,57.525 L41.7933333,60 L40.4403333,60 Z M51.18,60.132 C48.936,60.132 47.264,58.383 47.264,56.172 L47.264,56.15 C47.264,53.961 48.903,52.168 51.235,52.168 C52.643,52.168 53.512,52.663 54.249,53.367 L53.38,54.368 C52.764,53.796 52.104,53.411 51.224,53.411 C49.75,53.411 48.683,54.632 48.683,56.128 L48.683,56.15 C48.683,57.657 49.75,58.889 51.224,58.889 C52.159,58.889 52.775,58.504 53.435,57.888 L54.304,58.768 C53.523,59.615 52.61,60.132 51.18,60.132 Z" id="pid:-0-OS" fill="#FFFFFF" mask="url(#mask-11)"></path>
                </g>
                <g id="box" transform="translate(114.000000, 16.000000)">
                    <g id="Rectangle">
                        <use fill="black" fill-opacity="1" filter="url(#filter-14)" xlink:href="#path-13"></use>
                        <use fill="#FFFFFF" fill-rule="evenodd" xlink:href="#path-13"></use>
                    </g>
                    <g id="Rectangle-10">
                        <use fill="#4A4A4A" fill-rule="evenodd" xlink:href="#path-15"></use>
                        <rect stroke-opacity="0.1" stroke="#000000" stroke-width="1" x="9.875" y="81.75" width="74.25" height="78.55" rx="5"></rect>
                    </g>
                    <path d="M24.2855469,96.55 L23.2660156,96.55 L23.1136719,91.7746094 L23.0492188,89.940625 L22.6917969,91.0070313 L21.5609375,94.0539063 L20.8402344,94.0539063 L19.7621094,91.1242188 L19.4046875,89.940625 L19.38125,91.8566406 L19.2464844,96.55 L18.2621094,96.55 L18.6371094,88.8917969 L19.8734375,88.8917969 L20.9046875,91.7746094 L21.2386719,92.7472656 L21.5609375,91.7746094 L22.6449219,88.8917969 L23.9164063,88.8917969 L24.2855469,96.55 Z M31.1813802,92.6710938 C31.1813802,93.3585972 31.1003263,93.9523413 30.9382162,94.4523438 C30.776106,94.9523463 30.5573582,95.3654281 30.2819662,95.6916016 C30.0065742,96.0177751 29.6843118,96.2599601 29.3151693,96.4181641 C28.9460268,96.576368 28.5563823,96.6554688 28.146224,96.6554688 C27.654034,96.6554688 27.2253274,96.5666025 26.8600912,96.3888672 C26.494855,96.2111319 26.1921236,95.9542986 25.951888,95.6183594 C25.7116525,95.2824202 25.5329433,94.8732446 25.4157552,94.3908203 C25.2985671,93.908396 25.239974,93.3644562 25.239974,92.7589844 C25.239974,92.0792935 25.3200513,91.4894556 25.4802083,90.9894531 C25.6403654,90.4894506 25.8581367,90.0763688 26.1335287,89.7501953 C26.4089207,89.4240218 26.7302065,89.1818367 27.0973958,89.0236328 C27.4645852,88.8654289 27.8532532,88.7863281 28.2634115,88.7863281 C28.7556014,88.7863281 29.1843081,88.876171 29.5495443,89.0558594 C29.9147805,89.2355478 30.2184884,89.4923811 30.4606771,89.8263672 C30.7028658,90.1603532 30.8835281,90.5675757 31.0026693,91.0480469 C31.1218105,91.528518 31.1813802,92.0695282 31.1813802,92.6710938 Z M30.0973958,92.7472656 C30.0973958,92.2980446 30.0632165,91.8869159 29.9948568,91.5138672 C29.9264971,91.1408184 29.8161466,90.8195326 29.6638021,90.55 C29.5114576,90.2804674 29.3151705,90.0714851 29.0749349,89.9230469 C28.8346993,89.7746086 28.5446632,89.7003906 28.2048177,89.7003906 C27.8766911,89.7003906 27.5944673,89.7794914 27.358138,89.9376953 C27.1218087,90.0958992 26.9274747,90.3107408 26.7751302,90.5822266 C26.6227857,90.8537123 26.5095056,91.1720685 26.4352865,91.5373047 C26.3610673,91.9025409 26.3239583,92.2902323 26.3239583,92.7003906 C26.3239583,93.1535179 26.3591142,93.5665997 26.4294271,93.9396484 C26.4997399,94.3126972 26.6100904,94.6330065 26.7604818,94.9005859 C26.9108732,95.1681654 27.1052072,95.3761711 27.3434896,95.5246094 C27.581772,95.6730476 27.8688785,95.7472656 28.2048177,95.7472656 C28.5329444,95.7472656 28.8161447,95.6681649 29.0544271,95.5099609 C29.2927095,95.351757 29.4889966,95.1369154 29.6432943,94.8654297 C29.7975919,94.593944 29.9118486,94.2765643 29.9860677,93.9132813 C30.0602868,93.5499982 30.0973958,93.1613302 30.0973958,92.7472656 Z M38.4111979,88.8917969 L35.8096354,96.55 L34.4033854,96.55 L31.8604167,88.8917969 L33.0381511,88.8917969 L34.6904948,94.0539063 L35.1592448,95.565625 L35.6397136,94.0539063 L37.2979167,88.8917969 L38.4111979,88.8917969 Z M23.1136719,101.891797 L23.1136719,107.212109 C23.1136719,107.540236 23.0648442,107.851756 22.9671875,108.14668 C22.8695308,108.441603 22.7210947,108.698436 22.521875,108.917188 C22.3226553,109.135939 22.0726578,109.309765 21.771875,109.438672 C21.4710922,109.567579 21.1175802,109.632031 20.7113281,109.632031 C20.5589836,109.632031 20.4037117,109.621289 20.2455078,109.599805 C20.0873039,109.57832 19.9349617,109.549024 19.7884766,109.511914 C19.6419915,109.474805 19.5042975,109.429883 19.3753906,109.377148 C19.2464837,109.324414 19.1351567,109.266797 19.0414063,109.204297 L19.0414063,108.155469 C19.283595,108.331251 19.552147,108.469921 19.8470703,108.571484 C20.1419937,108.673047 20.4339829,108.723828 20.7230469,108.723828 C21.1488303,108.723828 21.476952,108.593947 21.7074219,108.33418 C21.9378918,108.074413 22.053125,107.700393 22.053125,107.212109 L22.053125,102.794141 L19.1410156,102.794141 L19.1410156,101.891797 L23.1136719,101.891797 Z M31.2165365,109.55 L30.1970052,109.55 L30.0446615,104.774609 L29.9802083,102.940625 L29.6227865,104.007031 L28.4919271,107.053906 L27.771224,107.053906 L26.693099,104.124219 L26.3356771,102.940625 L26.3122396,104.856641 L26.177474,109.55 L25.193099,109.55 L25.568099,101.891797 L26.8044271,101.891797 L27.8356771,104.774609 L28.1696615,105.747266 L28.4919271,104.774609 L29.5759115,101.891797 L30.8473958,101.891797 L31.2165365,109.55 Z M37.7901042,104.235547 C37.7901042,104.548048 37.731511,104.857616 37.6143229,105.164258 C37.4971349,105.4709 37.315496,105.745311 37.0694011,105.9875 C36.8233061,106.229689 36.5088561,106.425976 36.1260417,106.576367 C35.7432273,106.726759 35.2862006,106.801953 34.7549479,106.801953 L33.8057292,106.801953 L33.8057292,109.55 L32.7627604,109.55 L32.7627604,101.891797 L34.9190104,101.891797 C35.2979186,101.891797 35.6611962,101.933789 36.0088542,102.017773 C36.3565122,102.101758 36.6621732,102.237499 36.9258464,102.425 C37.1895196,102.612501 37.3994784,102.854686 37.5557292,103.151563 C37.71198,103.448439 37.7901042,103.809763 37.7901042,104.235547 Z M36.7061198,104.282422 C36.7061198,103.790232 36.5449886,103.413283 36.2227214,103.151563 C35.9004541,102.889842 35.4502633,102.758984 34.8721354,102.758984 L33.8057292,102.758984 L33.8057292,105.911328 L34.7783854,105.911328 C35.395576,105.911328 35.8711572,105.776564 36.2051432,105.507031 C36.5391293,105.237499 36.7061198,104.8293 36.7061198,104.282422 Z M24.5140625,122.55 L23.3773438,122.55 L22.8441406,120.880078 L19.6566406,120.880078 L19.1175781,122.55 L18.0335938,122.55 L20.5765625,114.891797 L22.00625,114.891797 L24.5140625,122.55 Z M22.5453125,119.948438 L21.2503906,115.852734 L19.9554688,119.948438 L22.5453125,119.948438 Z M31.0759115,118.635938 C31.0759115,119.003127 31.0475914,119.354686 30.9909505,119.690625 C30.9343096,120.026564 30.8434902,120.339061 30.7184896,120.628125 C30.593489,120.917189 30.4313812,121.179882 30.2321615,121.416211 C30.0329417,121.65254 29.7888035,121.854687 29.4997396,122.022656 C29.2106756,122.190626 28.8747415,122.320507 28.4919271,122.412305 C28.1091127,122.504102 27.6735702,122.55 27.1852865,122.55 L25.5446615,122.55 L25.5446615,114.891797 L27.5192708,114.891797 C28.7145893,114.891797 29.606182,115.199411 30.1940755,115.814648 C30.7819691,116.429886 31.0759115,117.370306 31.0759115,118.635938 Z M29.9802083,118.712109 C29.9802083,118.169138 29.9294276,117.710158 29.8278646,117.335156 C29.7263016,116.960154 29.5720063,116.657423 29.364974,116.426953 C29.1579417,116.196483 28.8981787,116.029493 28.5856771,115.925977 C28.2731755,115.82246 27.9059917,115.770703 27.4841146,115.770703 L26.5876302,115.770703 L26.5876302,121.647656 L27.3669271,121.647656 C29.1091233,121.647656 29.9802083,120.66915 29.9802083,118.712109 Z M38.0069011,118.635938 C38.0069011,119.003127 37.978581,119.354686 37.9219401,119.690625 C37.8652992,120.026564 37.7744798,120.339061 37.6494792,120.628125 C37.5244786,120.917189 37.3623708,121.179882 37.1631511,121.416211 C36.9639313,121.65254 36.7197931,121.854687 36.4307292,122.022656 C36.1416652,122.190626 35.8057311,122.320507 35.4229167,122.412305 C35.0401023,122.504102 34.6045598,122.55 34.1162761,122.55 L32.4756511,122.55 L32.4756511,114.891797 L34.4502604,114.891797 C35.6455789,114.891797 36.5371716,115.199411 37.1250651,115.814648 C37.7129587,116.429886 38.0069011,117.370306 38.0069011,118.635938 Z M36.9111979,118.712109 C36.9111979,118.169138 36.8604172,117.710158 36.7588542,117.335156 C36.6572912,116.960154 36.5029958,116.657423 36.2959636,116.426953 C36.0889313,116.196483 35.8291682,116.029493 35.5166667,115.925977 C35.2041651,115.82246 34.8369813,115.770703 34.4151042,115.770703 L33.5186198,115.770703 L33.5186198,121.647656 L34.2979167,121.647656 C36.0401129,121.647656 36.9111979,120.66915 36.9111979,118.712109 Z M24.2855469,135.55 L23.2660156,135.55 L23.1136719,130.774609 L23.0492188,128.940625 L22.6917969,130.007031 L21.5609375,133.053906 L20.8402344,133.053906 L19.7621094,130.124219 L19.4046875,128.940625 L19.38125,130.856641 L19.2464844,135.55 L18.2621094,135.55 L18.6371094,127.891797 L19.8734375,127.891797 L20.9046875,130.774609 L21.2386719,131.747266 L21.5609375,130.774609 L22.6449219,127.891797 L23.9164063,127.891797 L24.2855469,135.55 Z M31.1813802,131.671094 C31.1813802,132.358597 31.1003263,132.952341 30.9382162,133.452344 C30.776106,133.952346 30.5573582,134.365428 30.2819662,134.691602 C30.0065742,135.017775 29.6843118,135.25996 29.3151693,135.418164 C28.9460268,135.576368 28.5563823,135.655469 28.146224,135.655469 C27.654034,135.655469 27.2253274,135.566602 26.8600912,135.388867 C26.494855,135.211132 26.1921236,134.954299 25.951888,134.618359 C25.7116525,134.28242 25.5329433,133.873245 25.4157552,133.39082 C25.2985671,132.908396 25.239974,132.364456 25.239974,131.758984 C25.239974,131.079293 25.3200513,130.489456 25.4802083,129.989453 C25.6403654,129.489451 25.8581367,129.076369 26.1335287,128.750195 C26.4089207,128.424022 26.7302065,128.181837 27.0973958,128.023633 C27.4645852,127.865429 27.8532532,127.786328 28.2634115,127.786328 C28.7556014,127.786328 29.1843081,127.876171 29.5495443,128.055859 C29.9147805,128.235548 30.2184884,128.492381 30.4606771,128.826367 C30.7028658,129.160353 30.8835281,129.567576 31.0026693,130.048047 C31.1218105,130.528518 31.1813802,131.069528 31.1813802,131.671094 Z M30.0973958,131.747266 C30.0973958,131.298045 30.0632165,130.886916 29.9948568,130.513867 C29.9264971,130.140818 29.8161466,129.819533 29.6638021,129.55 C29.5114576,129.280467 29.3151705,129.071485 29.0749349,128.923047 C28.8346993,128.774609 28.5446632,128.700391 28.2048177,128.700391 C27.8766911,128.700391 27.5944673,128.779491 27.358138,128.937695 C27.1218087,129.095899 26.9274747,129.310741 26.7751302,129.582227 C26.6227857,129.853712 26.5095056,130.172068 26.4352865,130.537305 C26.3610673,130.902541 26.3239583,131.290232 26.3239583,131.700391 C26.3239583,132.153518 26.3591142,132.5666 26.4294271,132.939648 C26.4997399,133.312697 26.6100904,133.633006 26.7604818,133.900586 C26.9108732,134.168165 27.1052072,134.376171 27.3434896,134.524609 C27.581772,134.673048 27.8688785,134.747266 28.2048177,134.747266 C28.5329444,134.747266 28.8161447,134.668165 29.0544271,134.509961 C29.2927095,134.351757 29.4889966,134.136915 29.6432943,133.86543 C29.7975919,133.593944 29.9118486,133.276564 29.9860677,132.913281 C30.0602868,132.549998 30.0973958,132.16133 30.0973958,131.747266 Z M38.4111979,127.891797 L35.8096354,135.55 L34.4033854,135.55 L31.8604167,127.891797 L33.0381511,127.891797 L34.6904948,133.053906 L35.1592448,134.565625 L35.6397136,133.053906 L37.2979167,127.891797 L38.4111979,127.891797 Z M23.8050781,148.262891 C23.1917938,148.516798 22.5492221,148.64375 21.8773438,148.64375 C20.7953071,148.64375 19.9642607,148.320511 19.3841797,147.674023 C18.8040987,147.027536 18.5140625,146.071491 18.5140625,144.805859 C18.5140625,144.192575 18.5941398,143.637893 18.7542969,143.141797 C18.9144539,142.645701 19.1429673,142.224806 19.4398438,141.879102 C19.7367202,141.533397 20.0960916,141.266798 20.5179688,141.079297 C20.9398459,140.891796 21.4124974,140.798047 21.9359375,140.798047 C22.291408,140.798047 22.6214829,140.82832 22.9261719,140.888867 C23.2308609,140.949414 23.5238267,141.042187 23.8050781,141.167188 L23.8050781,142.192578 C23.527733,142.040234 23.2406265,141.924024 22.94375,141.843945 C22.6468735,141.763867 22.322658,141.723828 21.9710938,141.723828 C21.611717,141.723828 21.2865249,141.79121 20.9955078,141.925977 C20.7044907,142.060743 20.4574229,142.256053 20.2542969,142.511914 C20.0511709,142.767775 19.8949224,143.080272 19.7855469,143.449414 C19.6761713,143.818557 19.6214844,144.239451 19.6214844,144.712109 C19.6214844,145.704302 19.8226542,146.452341 20.225,146.95625 C20.6273458,147.460159 21.2171836,147.712109 21.9945313,147.712109 C22.3226579,147.712109 22.6371079,147.674024 22.9378906,147.597852 C23.2386734,147.521679 23.527733,147.415235 23.8050781,147.278516 L23.8050781,148.262891 Z M30.8591146,143.235547 C30.8591146,143.548048 30.8005214,143.857616 30.6833333,144.164258 C30.5661453,144.4709 30.3845064,144.745311 30.1384115,144.9875 C29.8923165,145.229689 29.5778665,145.425976 29.1950521,145.576367 C28.8122377,145.726759 28.355211,145.801953 27.8239583,145.801953 L26.8747396,145.801953 L26.8747396,148.55 L25.8317708,148.55 L25.8317708,140.891797 L27.9880208,140.891797 C28.366929,140.891797 28.7302066,140.933789 29.0778646,141.017773 C29.4255226,141.101758 29.7311836,141.237499 29.9948568,141.425 C30.25853,141.612501 30.4684888,141.854686 30.6247396,142.151563 C30.7809904,142.448439 30.8591146,142.809763 30.8591146,143.235547 Z M29.7751302,143.282422 C29.7751302,142.790232 29.613999,142.413283 29.2917318,142.151563 C28.9694645,141.889842 28.5192737,141.758984 27.9411458,141.758984 L26.8747396,141.758984 L26.8747396,144.911328 L27.8473958,144.911328 C28.4645864,144.911328 28.9401676,144.776564 29.2741537,144.507031 C29.6081397,144.237499 29.7751302,143.8293 29.7751302,143.282422 Z M38.4346354,140.891797 L35.6631511,145.813672 L35.6631511,148.55 L34.6084636,148.55 L34.6084636,145.790234 L31.8369792,140.891797 L33.0967448,140.891797 L34.6201823,143.692578 L35.1826823,144.817578 L35.6983073,143.798047 L37.2393229,140.891797 L38.4346354,140.891797 Z" id="ADD-MOV-JMP-MOV-CPY" fill="#FFFFFF"></path>
                    <mask id="mask-17" fill="white">
                        <use xlink:href="#path-16"></use>
                    </mask>
                    <g id="Rectangle">
                        <use fill="#00C89C" fill-rule="evenodd" xlink:href="#path-16"></use>
                        <rect stroke-opacity="0.1" stroke="#000000" stroke-width="1" x="9.5" y="8.875" width="75" height="64.575" rx="5"></rect>
                    </g>
                    <g id="color/Fire" mask="url(#mask-17)">
                        <g transform="translate(5.075000, 4.135849)" id="Rectangle">
                            <g>
                                <use fill="#FD716A" fill-rule="evenodd" xlink:href="#path-18"></use>
                                <rect stroke-opacity="0.1" stroke="#000000" stroke-width="1" x="0.5" y="0.5" width="81.9535064" height="70.767502"></rect>
                            </g>
                        </g>
                    </g>
                    <path d="M33.7926667,28.966 C34.7056667,28.966 35.4536667,28.251 35.4536667,27.107 L35.4536667,27.085 C35.4536667,25.963 34.7056667,25.226 33.7926667,25.226 C32.8796667,25.226 32.0986667,25.974 32.0986667,27.085 L32.0986667,27.107 C32.0986667,28.229 32.8796667,28.966 33.7926667,28.966 Z M30.8006667,31.76 L30.8006667,24.192 L32.1316667,24.192 L32.1316667,25.16 C32.5606667,24.544 33.1656667,24.071 34.1006667,24.071 C35.4646667,24.071 36.8066667,25.149 36.8066667,27.085 L36.8066667,27.107 C36.8066667,29.043 35.4866667,30.121 34.1006667,30.121 C33.1436667,30.121 32.5386667,29.637 32.1316667,29.098 L32.1316667,31.76 L30.8006667,31.76 Z M38.0643333,30 L38.0643333,24.192 L39.3953333,24.192 L39.3953333,30 L38.0643333,30 Z M38.0093333,23.301 L38.0093333,22.036 L39.4393333,22.036 L39.4393333,23.301 L38.0093333,23.301 Z M43.667,28.966 C44.558,28.966 45.35,28.218 45.35,27.107 L45.35,27.085 C45.35,25.963 44.558,25.226 43.667,25.226 C42.754,25.226 41.995,25.93 41.995,27.085 L41.995,27.107 C41.995,28.229 42.754,28.966 43.667,28.966 Z M43.348,30.121 C41.984,30.121 40.653,29.043 40.653,27.107 L40.653,27.085 C40.653,25.149 41.962,24.071 43.348,24.071 C44.305,24.071 44.899,24.555 45.328,25.094 L45.328,21.97 L46.659,21.97 L46.659,30 L45.328,30 L45.328,29.032 C44.899,29.637 44.283,30.121 43.348,30.121 Z M48.1036667,30 L48.1036667,28.493 L49.5666667,28.493 L49.5666667,30 L48.1036667,30 Z M48.1036667,25.699 L48.1036667,24.192 L49.5666667,24.192 L49.5666667,25.699 L48.1036667,25.699 Z M55.261,30 L55.261,23.62 L53.875,24.005 L53.589,22.905 L55.657,22.245 L56.603,22.245 L56.603,30 L55.261,30 Z M58.0146667,30 L58.0146667,28.933 L60.6656667,26.678 C61.7216667,25.798 62.1066667,25.292 62.1066667,24.599 C62.1066667,23.84 61.5676667,23.4 60.8636667,23.4 C60.1596667,23.4 59.6866667,23.774 59.0816667,24.555 L58.1246667,23.807 C58.8616667,22.773 59.5986667,22.19 60.9626667,22.19 C62.4586667,22.19 63.5036667,23.114 63.5036667,24.489 L63.5036667,24.511 C63.5036667,25.732 62.8546667,26.37 61.5016667,27.492 L59.9176667,28.812 L63.5806667,28.812 L63.5806667,30 L58.0146667,30 Z M33.0263333,45 L33.0263333,39.192 L34.3573333,39.192 L34.3573333,40.094 C34.7313333,39.544 35.2703333,39.071 36.1723333,39.071 C37.4923333,39.071 38.2403333,39.94 38.2403333,41.304 L38.2403333,45 L36.9093333,45 L36.9093333,41.7 C36.9093333,40.787 36.4583333,40.281 35.6663333,40.281 C34.8853333,40.281 34.3573333,40.809 34.3573333,41.722 L34.3573333,45 L33.0263333,45 Z M42.358,43.416 C43.282,43.416 44.063,42.756 44.063,41.821 L44.063,41.799 C44.063,40.842 43.282,40.193 42.358,40.193 C41.434,40.193 40.708,40.831 40.708,41.788 L40.708,41.81 C40.708,42.767 41.445,43.416 42.358,43.416 Z M42.248,46.782 C41.28,46.782 40.411,46.551 39.652,46.089 L40.147,45.088 C40.763,45.473 41.423,45.704 42.215,45.704 C43.403,45.704 44.052,45.099 44.052,43.922 L44.052,43.471 C43.568,44.098 42.963,44.538 42.006,44.538 C40.642,44.538 39.366,43.526 39.366,41.821 L39.366,41.799 C39.366,40.083 40.642,39.071 42.006,39.071 C42.985,39.071 43.59,39.522 44.041,40.061 L44.041,39.192 L45.372,39.192 L45.372,43.812 C45.372,44.78 45.13,45.506 44.635,46.001 C44.107,46.529 43.304,46.782 42.248,46.782 Z M46.9266667,45 L46.9266667,39.192 L48.2576667,39.192 L48.2576667,45 L46.9266667,45 Z M46.8716667,38.301 L46.8716667,37.036 L48.3016667,37.036 L48.3016667,38.301 L46.8716667,38.301 Z M49.8123333,45 L49.8123333,39.192 L51.1433333,39.192 L51.1433333,40.094 C51.5173333,39.544 52.0563333,39.071 52.9583333,39.071 C54.2783333,39.071 55.0263333,39.94 55.0263333,41.304 L55.0263333,45 L53.6953333,45 L53.6953333,41.7 C53.6953333,40.787 53.2443333,40.281 52.4523333,40.281 C51.6713333,40.281 51.1433333,40.809 51.1433333,41.722 L51.1433333,45 L49.8123333,45 Z M55.943,45 L58.077,42.052 L56.02,39.192 L57.472,39.192 L58.814,41.106 L60.156,39.192 L61.575,39.192 L59.518,42.019 L61.663,45 L60.211,45 L58.781,42.965 L57.362,45 L55.943,45 Z M41.7933333,56.304 L43.3663333,56.304 C44.3893333,56.304 45.0273333,55.732 45.0273333,54.929 L45.0273333,54.907 C45.0273333,53.994 44.3783333,53.532 43.3663333,53.532 L41.7933333,53.532 L41.7933333,56.304 Z M40.4403333,60 L40.4403333,52.3 L43.4763333,52.3 C45.2803333,52.3 46.4023333,53.323 46.4023333,54.874 L46.4023333,54.896 C46.4023333,56.612 45.0273333,57.525 43.3223333,57.525 L41.7933333,57.525 L41.7933333,60 L40.4403333,60 Z M51.18,60.132 C48.936,60.132 47.264,58.383 47.264,56.172 L47.264,56.15 C47.264,53.961 48.903,52.168 51.235,52.168 C52.643,52.168 53.512,52.663 54.249,53.367 L53.38,54.368 C52.764,53.796 52.104,53.411 51.224,53.411 C49.75,53.411 48.683,54.632 48.683,56.128 L48.683,56.15 C48.683,57.657 49.75,58.889 51.224,58.889 C52.159,58.889 52.775,58.504 53.435,57.888 L54.304,58.768 C53.523,59.615 52.61,60.132 51.18,60.132 Z" id="pid:-0-OS" fill="#FFFFFF" mask="url(#mask-17)"></path>
                </g>
            </g>
            <g id="Group-6" transform="translate(419.000000, 47.000000)">
                <path d="M51.5540549,196.801429 L0.669908039,109.586392 L51.5540549,0.248939737 L51.5540549,0 L160,0 L160,197 L51.5540549,197 L51.5540549,196.801429 Z" id="Combined-Shape" fill="#D5E5FC" opacity="0.688405797"></path>
                <g id="box" transform="translate(54.000000, 12.011628)">
                    <g id="Rectangle">
                        <use fill="black" fill-opacity="1" filter="url(#filter-20)" xlink:href="#path-19"></use>
                        <use fill="#FFFFFF" fill-rule="evenodd" xlink:href="#path-19"></use>
                    </g>
                    <g id="Rectangle-10">
                        <use fill="#4A4A4A" fill-rule="evenodd" xlink:href="#path-21"></use>
                        <rect stroke-opacity="0.1" stroke="#000000" stroke-width="1" x="9.875" y="82.6947674" width="74.25" height="79.475" rx="5"></rect>
                    </g>
                    <path d="M24.2855469,97.5447674 L23.2660156,97.5447674 L23.1136719,92.7693768 L23.0492188,90.9353924 L22.6917969,92.0017987 L21.5609375,95.0486737 L20.8402344,95.0486737 L19.7621094,92.1189862 L19.4046875,90.9353924 L19.38125,92.8514081 L19.2464844,97.5447674 L18.2621094,97.5447674 L18.6371094,89.8865643 L19.8734375,89.8865643 L20.9046875,92.7693768 L21.2386719,93.7420331 L21.5609375,92.7693768 L22.6449219,89.8865643 L23.9164063,89.8865643 L24.2855469,97.5447674 Z M31.1813802,93.6658612 C31.1813802,94.3533646 31.1003263,94.9471087 30.9382162,95.4471112 C30.776106,95.9471137 30.5573582,96.3601955 30.2819662,96.686369 C30.0065742,97.0125425 29.6843118,97.2547276 29.3151693,97.4129315 C28.9460268,97.5711354 28.5563823,97.6502362 28.146224,97.6502362 C27.654034,97.6502362 27.2253274,97.5613699 26.8600912,97.3836346 C26.494855,97.2058994 26.1921236,96.949066 25.951888,96.6131268 C25.7116525,96.2771876 25.5329433,95.868012 25.4157552,95.3855878 C25.2985671,94.9031635 25.239974,94.3592236 25.239974,93.7537518 C25.239974,93.0740609 25.3200513,92.4842231 25.4802083,91.9842206 C25.6403654,91.4842181 25.8581367,91.0711363 26.1335287,90.7449628 C26.4089207,90.4187892 26.7302065,90.1766042 27.0973958,90.0184003 C27.4645852,89.8601963 27.8532532,89.7810956 28.2634115,89.7810956 C28.7556014,89.7810956 29.1843081,89.8709384 29.5495443,90.0506268 C29.9147805,90.2303152 30.2184884,90.4871486 30.4606771,90.8211346 C30.7028658,91.1551207 30.8835281,91.5623432 31.0026693,92.0428143 C31.1218105,92.5232855 31.1813802,93.0642957 31.1813802,93.6658612 Z M30.0973958,93.7420331 C30.0973958,93.2928121 30.0632165,92.8816834 29.9948568,92.5086346 C29.9264971,92.1355859 29.8161466,91.8143 29.6638021,91.5447674 C29.5114576,91.2752348 29.3151705,91.0662526 29.0749349,90.9178143 C28.8346993,90.7693761 28.5446632,90.6951581 28.2048177,90.6951581 C27.8766911,90.6951581 27.5944673,90.7742588 27.358138,90.9324628 C27.1218087,91.0906667 26.9274747,91.3055083 26.7751302,91.576994 C26.6227857,91.8484797 26.5095056,92.1668359 26.4352865,92.5320721 C26.3610673,92.8973083 26.3239583,93.2849998 26.3239583,93.6951581 C26.3239583,94.1482853 26.3591142,94.5613671 26.4294271,94.9344159 C26.4997399,95.3074646 26.6100904,95.6277739 26.7604818,95.8953534 C26.9108732,96.1629328 27.1052072,96.3709386 27.3434896,96.5193768 C27.581772,96.6678151 27.8688785,96.7420331 28.2048177,96.7420331 C28.5329444,96.7420331 28.8161447,96.6629323 29.0544271,96.5047284 C29.2927095,96.3465245 29.4889966,96.1316829 29.6432943,95.8601971 C29.7975919,95.5887114 29.9118486,95.2713318 29.9860677,94.9080487 C30.0602868,94.5447656 30.0973958,94.1560976 30.0973958,93.7420331 Z M38.4111979,89.8865643 L35.8096354,97.5447674 L34.4033854,97.5447674 L31.8604167,89.8865643 L33.0381511,89.8865643 L34.6904948,95.0486737 L35.1592448,96.5603924 L35.6397136,95.0486737 L37.2979167,89.8865643 L38.4111979,89.8865643 Z M23.8050781,110.257658 C23.1917938,110.511566 22.5492221,110.638517 21.8773438,110.638517 C20.7953071,110.638517 19.9642607,110.315278 19.3841797,109.668791 C18.8040987,109.022303 18.5140625,108.066258 18.5140625,106.800627 C18.5140625,106.187343 18.5941398,105.632661 18.7542969,105.136564 C18.9144539,104.640468 19.1429673,104.219574 19.4398438,103.873869 C19.7367202,103.528164 20.0960916,103.261565 20.5179688,103.074064 C20.9398459,102.886563 21.4124974,102.792814 21.9359375,102.792814 C22.291408,102.792814 22.6214829,102.823087 22.9261719,102.883635 C23.2308609,102.944182 23.5238267,103.036954 23.8050781,103.161955 L23.8050781,104.187346 C23.527733,104.035001 23.2406265,103.918791 22.94375,103.838713 C22.6468735,103.758634 22.322658,103.718596 21.9710938,103.718596 C21.611717,103.718596 21.2865249,103.785978 20.9955078,103.920744 C20.7044907,104.05551 20.4574229,104.250821 20.2542969,104.506682 C20.0511709,104.762542 19.8949224,105.075039 19.7855469,105.444182 C19.6761713,105.813324 19.6214844,106.234218 19.6214844,106.706877 C19.6214844,107.699069 19.8226542,108.447109 20.225,108.951017 C20.6273458,109.454926 21.2171836,109.706877 21.9945313,109.706877 C22.3226579,109.706877 22.6371079,109.668791 22.9378906,109.592619 C23.2386734,109.516447 23.527733,109.410003 23.8050781,109.273283 L23.8050781,110.257658 Z M30.8591146,105.230314 C30.8591146,105.542816 30.8005214,105.852383 30.6833333,106.159025 C30.5661453,106.465667 30.3845064,106.740079 30.1384115,106.982267 C29.8923165,107.224456 29.5778665,107.420743 29.1950521,107.571135 C28.8122377,107.721526 28.355211,107.796721 27.8239583,107.796721 L26.8747396,107.796721 L26.8747396,110.544767 L25.8317708,110.544767 L25.8317708,102.886564 L27.9880208,102.886564 C28.366929,102.886564 28.7302066,102.928556 29.0778646,103.012541 C29.4255226,103.096526 29.7311836,103.232267 29.9948568,103.419767 C30.25853,103.607268 30.4684888,103.849453 30.6247396,104.14633 C30.7809904,104.443206 30.8591146,104.804531 30.8591146,105.230314 Z M29.7751302,105.277189 C29.7751302,104.784999 29.613999,104.40805 29.2917318,104.14633 C28.9694645,103.88461 28.5192737,103.753752 27.9411458,103.753752 L26.8747396,103.753752 L26.8747396,106.906096 L27.8473958,106.906096 C28.4645864,106.906096 28.9401676,106.771331 29.2741537,106.501799 C29.6081397,106.232266 29.7751302,105.824067 29.7751302,105.277189 Z M38.4346354,102.886564 L35.6631511,107.808439 L35.6631511,110.544767 L34.6084636,110.544767 L34.6084636,107.785002 L31.8369792,102.886564 L33.0967448,102.886564 L34.6201823,105.687346 L35.1826823,106.812346 L35.6983073,105.792814 L37.2393229,102.886564 L38.4346354,102.886564 Z M24.5140625,123.544767 L23.3773438,123.544767 L22.8441406,121.874846 L19.6566406,121.874846 L19.1175781,123.544767 L18.0335938,123.544767 L20.5765625,115.886564 L22.00625,115.886564 L24.5140625,123.544767 Z M22.5453125,120.943205 L21.2503906,116.847502 L19.9554688,120.943205 L22.5453125,120.943205 Z M31.0759115,119.630705 C31.0759115,119.997894 31.0475914,120.349453 30.9909505,120.685392 C30.9343096,121.021332 30.8434902,121.333828 30.7184896,121.622892 C30.593489,121.911956 30.4313812,122.174649 30.2321615,122.410978 C30.0329417,122.647308 29.7888035,122.849454 29.4997396,123.017424 C29.2106756,123.185393 28.8747415,123.315275 28.4919271,123.407072 C28.1091127,123.498869 27.6735702,123.544767 27.1852865,123.544767 L25.5446615,123.544767 L25.5446615,115.886564 L27.5192708,115.886564 C28.7145893,115.886564 29.606182,116.194178 30.1940755,116.809416 C30.7819691,117.424653 31.0759115,118.365074 31.0759115,119.630705 Z M29.9802083,119.706877 C29.9802083,119.163905 29.9294276,118.704926 29.8278646,118.329924 C29.7263016,117.954922 29.5720063,117.65219 29.364974,117.421721 C29.1579417,117.191251 28.8981787,117.02426 28.5856771,116.920744 C28.2731755,116.817228 27.9059917,116.765471 27.4841146,116.765471 L26.5876302,116.765471 L26.5876302,122.642424 L27.3669271,122.642424 C29.1091233,122.642424 29.9802083,121.663918 29.9802083,119.706877 Z M38.0069011,119.630705 C38.0069011,119.997894 37.978581,120.349453 37.9219401,120.685392 C37.8652992,121.021332 37.7744798,121.333828 37.6494792,121.622892 C37.5244786,121.911956 37.3623708,122.174649 37.1631511,122.410978 C36.9639313,122.647308 36.7197931,122.849454 36.4307292,123.017424 C36.1416652,123.185393 35.8057311,123.315275 35.4229167,123.407072 C35.0401023,123.498869 34.6045598,123.544767 34.1162761,123.544767 L32.4756511,123.544767 L32.4756511,115.886564 L34.4502604,115.886564 C35.6455789,115.886564 36.5371716,116.194178 37.1250651,116.809416 C37.7129587,117.424653 38.0069011,118.365074 38.0069011,119.630705 Z M36.9111979,119.706877 C36.9111979,119.163905 36.8604172,118.704926 36.7588542,118.329924 C36.6572912,117.954922 36.5029958,117.65219 36.2959636,117.421721 C36.0889313,117.191251 35.8291682,117.02426 35.5166667,116.920744 C35.2041651,116.817228 34.8369813,116.765471 34.4151042,116.765471 L33.5186198,116.765471 L33.5186198,122.642424 L34.2979167,122.642424 C36.0401129,122.642424 36.9111979,121.663918 36.9111979,119.706877 Z M24.2855469,136.544767 L23.2660156,136.544767 L23.1136719,131.769377 L23.0492188,129.935392 L22.6917969,131.001799 L21.5609375,134.048674 L20.8402344,134.048674 L19.7621094,131.118986 L19.4046875,129.935392 L19.38125,131.851408 L19.2464844,136.544767 L18.2621094,136.544767 L18.6371094,128.886564 L19.8734375,128.886564 L20.9046875,131.769377 L21.2386719,132.742033 L21.5609375,131.769377 L22.6449219,128.886564 L23.9164063,128.886564 L24.2855469,136.544767 Z M31.1813802,132.665861 C31.1813802,133.353365 31.1003263,133.947109 30.9382162,134.447111 C30.776106,134.947114 30.5573582,135.360195 30.2819662,135.686369 C30.0065742,136.012543 29.6843118,136.254728 29.3151693,136.412932 C28.9460268,136.571135 28.5563823,136.650236 28.146224,136.650236 C27.654034,136.650236 27.2253274,136.56137 26.8600912,136.383635 C26.494855,136.205899 26.1921236,135.949066 25.951888,135.613127 C25.7116525,135.277188 25.5329433,134.868012 25.4157552,134.385588 C25.2985671,133.903163 25.239974,133.359224 25.239974,132.753752 C25.239974,132.074061 25.3200513,131.484223 25.4802083,130.984221 C25.6403654,130.484218 25.8581367,130.071136 26.1335287,129.744963 C26.4089207,129.418789 26.7302065,129.176604 27.0973958,129.0184 C27.4645852,128.860196 27.8532532,128.781096 28.2634115,128.781096 C28.7556014,128.781096 29.1843081,128.870938 29.5495443,129.050627 C29.9147805,129.230315 30.2184884,129.487149 30.4606771,129.821135 C30.7028658,130.155121 30.8835281,130.562343 31.0026693,131.042814 C31.1218105,131.523285 31.1813802,132.064296 31.1813802,132.665861 Z M30.0973958,132.742033 C30.0973958,132.292812 30.0632165,131.881683 29.9948568,131.508635 C29.9264971,131.135586 29.8161466,130.8143 29.6638021,130.544767 C29.5114576,130.275235 29.3151705,130.066253 29.0749349,129.917814 C28.8346993,129.769376 28.5446632,129.695158 28.2048177,129.695158 C27.8766911,129.695158 27.5944673,129.774259 27.358138,129.932463 C27.1218087,130.090667 26.9274747,130.305508 26.7751302,130.576994 C26.6227857,130.84848 26.5095056,131.166836 26.4352865,131.532072 C26.3610673,131.897308 26.3239583,132.285 26.3239583,132.695158 C26.3239583,133.148285 26.3591142,133.561367 26.4294271,133.934416 C26.4997399,134.307465 26.6100904,134.627774 26.7604818,134.895353 C26.9108732,135.162933 27.1052072,135.370939 27.3434896,135.519377 C27.581772,135.667815 27.8688785,135.742033 28.2048177,135.742033 C28.5329444,135.742033 28.8161447,135.662932 29.0544271,135.504728 C29.2927095,135.346524 29.4889966,135.131683 29.6432943,134.860197 C29.7975919,134.588711 29.9118486,134.271332 29.9860677,133.908049 C30.0602868,133.544766 30.0973958,133.156098 30.0973958,132.742033 Z M38.4111979,128.886564 L35.8096354,136.544767 L34.4033854,136.544767 L31.8604167,128.886564 L33.0381511,128.886564 L34.6904948,134.048674 L35.1592448,135.560392 L35.6397136,134.048674 L37.2979167,128.886564 L38.4111979,128.886564 Z M23.1136719,141.886564 L23.1136719,147.206877 C23.1136719,147.535003 23.0648442,147.846524 22.9671875,148.141447 C22.8695308,148.43637 22.7210947,148.693204 22.521875,148.911955 C22.3226553,149.130706 22.0726578,149.304532 21.771875,149.433439 C21.4710922,149.562346 21.1175802,149.626799 20.7113281,149.626799 C20.5589836,149.626799 20.4037117,149.616057 20.2455078,149.594572 C20.0873039,149.573088 19.9349617,149.543791 19.7884766,149.506682 C19.6419915,149.469572 19.5042975,149.424651 19.3753906,149.371916 C19.2464837,149.319181 19.1351567,149.261565 19.0414063,149.199064 L19.0414063,148.150236 C19.283595,148.326018 19.552147,148.464689 19.8470703,148.566252 C20.1419937,148.667815 20.4339829,148.718596 20.7230469,148.718596 C21.1488303,148.718596 21.476952,148.588714 21.7074219,148.328947 C21.9378918,148.06918 22.053125,147.695161 22.053125,147.206877 L22.053125,142.788908 L19.1410156,142.788908 L19.1410156,141.886564 L23.1136719,141.886564 Z M31.2165365,149.544767 L30.1970052,149.544767 L30.0446615,144.769377 L29.9802083,142.935392 L29.6227865,144.001799 L28.4919271,147.048674 L27.771224,147.048674 L26.693099,144.118986 L26.3356771,142.935392 L26.3122396,144.851408 L26.177474,149.544767 L25.193099,149.544767 L25.568099,141.886564 L26.8044271,141.886564 L27.8356771,144.769377 L28.1696615,145.742033 L28.4919271,144.769377 L29.5759115,141.886564 L30.8473958,141.886564 L31.2165365,149.544767 Z M37.7901042,144.230314 C37.7901042,144.542816 37.731511,144.852383 37.6143229,145.159025 C37.4971349,145.465667 37.315496,145.740079 37.0694011,145.982267 C36.8233061,146.224456 36.5088561,146.420743 36.1260417,146.571135 C35.7432273,146.721526 35.2862006,146.796721 34.7549479,146.796721 L33.8057292,146.796721 L33.8057292,149.544767 L32.7627604,149.544767 L32.7627604,141.886564 L34.9190104,141.886564 C35.2979186,141.886564 35.6611962,141.928556 36.0088542,142.012541 C36.3565122,142.096526 36.6621732,142.232267 36.9258464,142.419767 C37.1895196,142.607268 37.3994784,142.849453 37.5557292,143.14633 C37.71198,143.443206 37.7901042,143.804531 37.7901042,144.230314 Z M36.7061198,144.277189 C36.7061198,143.784999 36.5449886,143.40805 36.2227214,143.14633 C35.9004541,142.88461 35.4502633,142.753752 34.8721354,142.753752 L33.8057292,142.753752 L33.8057292,145.906096 L34.7783854,145.906096 C35.395576,145.906096 35.8711572,145.771331 36.2051432,145.501799 C36.5391293,145.232266 36.7061198,144.824067 36.7061198,144.277189 Z" id="ADD-MOV-JMP-MOV-CPY" fill="#FFFFFF"></path>
                    <mask id="mask-23" fill="white">
                        <use xlink:href="#path-22"></use>
                    </mask>
                    <g id="Rectangle">
                        <use fill="#00C89C" fill-rule="evenodd" xlink:href="#path-22"></use>
                        <rect stroke-opacity="0.1" stroke="#000000" stroke-width="1" x="9.5" y="8.97238372" width="75" height="65.3375" rx="5"></rect>
                    </g>
                    <g id="color/Pitch" mask="url(#mask-23)">
                        <g transform="translate(5.075000, 4.183940)" id="Rectangle">
                            <g>
                                <use fill="#00C89C" fill-rule="evenodd" xlink:href="#path-24"></use>
                                <rect stroke-opacity="0.1" stroke="#000000" stroke-width="1" x="0.5" y="0.5" width="81.9535064" height="71.7642728"></rect>
                            </g>
                        </g>
                    </g>
                    <path d="M33.7651667,29.4427442 C34.6781667,29.4427442 35.4261667,28.7277442 35.4261667,27.5837442 L35.4261667,27.5617442 C35.4261667,26.4397442 34.6781667,25.7027442 33.7651667,25.7027442 C32.8521667,25.7027442 32.0711667,26.4507442 32.0711667,27.5617442 L32.0711667,27.5837442 C32.0711667,28.7057442 32.8521667,29.4427442 33.7651667,29.4427442 Z M30.7731667,32.2367442 L30.7731667,24.6687442 L32.1041667,24.6687442 L32.1041667,25.6367442 C32.5331667,25.0207442 33.1381667,24.5477442 34.0731667,24.5477442 C35.4371667,24.5477442 36.7791667,25.6257442 36.7791667,27.5617442 L36.7791667,27.5837442 C36.7791667,29.5197442 35.4591667,30.5977442 34.0731667,30.5977442 C33.1161667,30.5977442 32.5111667,30.1137442 32.1041667,29.5747442 L32.1041667,32.2367442 L30.7731667,32.2367442 Z M38.0368333,30.4767442 L38.0368333,24.6687442 L39.3678333,24.6687442 L39.3678333,30.4767442 L38.0368333,30.4767442 Z M37.9818333,23.7777442 L37.9818333,22.5127442 L39.4118333,22.5127442 L39.4118333,23.7777442 L37.9818333,23.7777442 Z M43.6395,29.4427442 C44.5305,29.4427442 45.3225,28.6947442 45.3225,27.5837442 L45.3225,27.5617442 C45.3225,26.4397442 44.5305,25.7027442 43.6395,25.7027442 C42.7265,25.7027442 41.9675,26.4067442 41.9675,27.5617442 L41.9675,27.5837442 C41.9675,28.7057442 42.7265,29.4427442 43.6395,29.4427442 Z M43.3205,30.5977442 C41.9565,30.5977442 40.6255,29.5197442 40.6255,27.5837442 L40.6255,27.5617442 C40.6255,25.6257442 41.9345,24.5477442 43.3205,24.5477442 C44.2775,24.5477442 44.8715,25.0317442 45.3005,25.5707442 L45.3005,22.4467442 L46.6315,22.4467442 L46.6315,30.4767442 L45.3005,30.4767442 L45.3005,29.5087442 C44.8715,30.1137442 44.2555,30.5977442 43.3205,30.5977442 Z M48.0761667,30.4767442 L48.0761667,28.9697442 L49.5391667,28.9697442 L49.5391667,30.4767442 L48.0761667,30.4767442 Z M48.0761667,26.1757442 L48.0761667,24.6687442 L49.5391667,24.6687442 L49.5391667,26.1757442 L48.0761667,26.1757442 Z M55.2335,30.4767442 L55.2335,24.0967442 L53.8475,24.4817442 L53.5615,23.3817442 L55.6295,22.7217442 L56.5755,22.7217442 L56.5755,30.4767442 L55.2335,30.4767442 Z M60.8691667,30.6087442 C59.5161667,30.6087442 58.5811667,30.0477442 57.9211667,29.2557442 L58.8671667,28.3757442 C59.4281667,29.0357442 60.0221667,29.3877442 60.8911667,29.3877442 C61.6501667,29.3877442 62.2221667,28.9257442 62.2221667,28.2217442 L62.2221667,28.1997442 C62.2221667,27.4407442 61.5401667,27.0117442 60.4511667,27.0117442 L59.8241667,27.0117442 L59.6041667,26.1647442 L61.6831667,23.9537442 L58.3501667,23.9537442 L58.3501667,22.7767442 L63.4431667,22.7767442 L63.4431667,23.7887442 L61.2981667,25.9887442 C62.4641667,26.1317442 63.5641667,26.7257442 63.5641667,28.1557442 L63.5641667,28.1777442 C63.5641667,29.5967442 62.4641667,30.6087442 60.8691667,30.6087442 Z M25.5811667,45.4767442 L25.5811667,39.6687442 L26.9121667,39.6687442 L26.9121667,40.5487442 C27.2861667,40.0317442 27.7921667,39.5477442 28.6831667,39.5477442 C29.5191667,39.5477442 30.1021667,39.9547442 30.4101667,40.5707442 C30.8831667,39.9547442 31.4991667,39.5477442 32.3791667,39.5477442 C33.6551667,39.5477442 34.4141667,40.3507442 34.4141667,41.7697442 L34.4141667,45.4767442 L33.0831667,45.4767442 L33.0831667,42.1767442 C33.0831667,41.2527442 32.6541667,40.7577442 31.9061667,40.7577442 C31.1691667,40.7577442 30.6631667,41.2637442 30.6631667,42.1987442 L30.6631667,45.4767442 L29.3321667,45.4767442 L29.3321667,42.1657442 C29.3321667,41.2527442 28.9031667,40.7577442 28.1551667,40.7577442 C27.4071667,40.7577442 26.9121667,41.2967442 26.9121667,42.2097442 L26.9121667,45.4767442 L25.5811667,45.4767442 Z M39.4338333,43.3757442 L39.4338333,43.0457442 C39.0928333,42.9137442 38.6198333,42.8147442 38.1028333,42.8147442 C37.2668333,42.8147442 36.7718333,43.1557442 36.7718333,43.7167442 L36.7718333,43.7387442 C36.7718333,44.2997442 37.2668333,44.5967442 37.8938333,44.5967442 C38.7738333,44.5967442 39.4338333,44.1127442 39.4338333,43.3757442 Z M40.7208333,45.4767442 L39.4008333,45.4767442 L39.4008333,44.7617442 C39.0048333,45.2347442 38.3998333,45.5977442 37.5198333,45.5977442 C36.4198333,45.5977442 35.4518333,44.9817442 35.4518333,43.8047442 L35.4518333,43.7827442 C35.4518333,42.4957442 36.4418333,41.8797442 37.8058333,41.8797442 C38.5098333,41.8797442 38.9608333,41.9787442 39.4118333,42.1217442 L39.4118333,42.0117442 C39.4118333,41.2087442 38.9058333,40.7687442 37.9818333,40.7687442 C37.3218333,40.7687442 36.8488333,40.9117442 36.3208333,41.1317442 L35.9578333,40.0647442 C36.6068333,39.7677442 37.2118333,39.5807442 38.1688333,39.5807442 C39.8958333,39.5807442 40.7208333,40.4827442 40.7208333,42.0337442 L40.7208333,45.4767442 Z M42.1215,45.4767442 L42.1215,39.6687442 L43.4525,39.6687442 L43.4525,40.9777442 C43.8155,40.0977442 44.4865,39.5147442 45.5095,39.5587442 L45.5095,40.9667442 L45.4325,40.9667442 C44.2555,40.9667442 43.4525,41.7257442 43.4525,43.2657442 L43.4525,45.4767442 L42.1215,45.4767442 Z M46.5581667,45.4767442 L46.5581667,39.6687442 L47.8891667,39.6687442 L47.8891667,45.4767442 L46.5581667,45.4767442 Z M46.5031667,38.7777442 L46.5031667,37.5127442 L47.9331667,37.5127442 L47.9331667,38.7777442 L46.5031667,38.7777442 Z M53.0298333,43.3757442 L53.0298333,43.0457442 C52.6888333,42.9137442 52.2158333,42.8147442 51.6988333,42.8147442 C50.8628333,42.8147442 50.3678333,43.1557442 50.3678333,43.7167442 L50.3678333,43.7387442 C50.3678333,44.2997442 50.8628333,44.5967442 51.4898333,44.5967442 C52.3698333,44.5967442 53.0298333,44.1127442 53.0298333,43.3757442 Z M54.3168333,45.4767442 L52.9968333,45.4767442 L52.9968333,44.7617442 C52.6008333,45.2347442 51.9958333,45.5977442 51.1158333,45.5977442 C50.0158333,45.5977442 49.0478333,44.9817442 49.0478333,43.8047442 L49.0478333,43.7827442 C49.0478333,42.4957442 50.0378333,41.8797442 51.4018333,41.8797442 C52.1058333,41.8797442 52.5568333,41.9787442 53.0078333,42.1217442 L53.0078333,42.0117442 C53.0078333,41.2087442 52.5018333,40.7687442 51.5778333,40.7687442 C50.9178333,40.7687442 50.4448333,40.9117442 49.9168333,41.1317442 L49.5538333,40.0647442 C50.2028333,39.7677442 50.8078333,39.5807442 51.7648333,39.5807442 C53.4918333,39.5807442 54.3168333,40.4827442 54.3168333,42.0337442 L54.3168333,45.4767442 Z M58.4345,44.4427442 C59.3255,44.4427442 60.1175,43.6947442 60.1175,42.5837442 L60.1175,42.5617442 C60.1175,41.4397442 59.3255,40.7027442 58.4345,40.7027442 C57.5215,40.7027442 56.7625,41.4067442 56.7625,42.5617442 L56.7625,42.5837442 C56.7625,43.7057442 57.5215,44.4427442 58.4345,44.4427442 Z M58.1155,45.5977442 C56.7515,45.5977442 55.4205,44.5197442 55.4205,42.5837442 L55.4205,42.5617442 C55.4205,40.6257442 56.7295,39.5477442 58.1155,39.5477442 C59.0725,39.5477442 59.6665,40.0317442 60.0955,40.5707442 L60.0955,37.4467442 L61.4265,37.4467442 L61.4265,45.4767442 L60.0955,45.4767442 L60.0955,44.5087442 C59.6665,45.1137442 59.0505,45.5977442 58.1155,45.5977442 Z M65.8961667,44.4427442 C66.8091667,44.4427442 67.5571667,43.7277442 67.5571667,42.5837442 L67.5571667,42.5617442 C67.5571667,41.4397442 66.8091667,40.7027442 65.8961667,40.7027442 C64.9831667,40.7027442 64.2021667,41.4507442 64.2021667,42.5617442 L64.2021667,42.5837442 C64.2021667,43.7057442 64.9831667,44.4427442 65.8961667,44.4427442 Z M66.2041667,45.5977442 C65.2471667,45.5977442 64.6421667,45.1137442 64.2351667,44.5747442 L64.2351667,45.4767442 L62.9041667,45.4767442 L62.9041667,37.4467442 L64.2351667,37.4467442 L64.2351667,40.6367442 C64.6641667,40.0207442 65.2691667,39.5477442 66.2041667,39.5477442 C67.5681667,39.5477442 68.9101667,40.6257442 68.9101667,42.5617442 L68.9101667,42.5837442 C68.9101667,44.5197442 67.5901667,45.5977442 66.2041667,45.5977442 Z M41.7933333,56.7807442 L43.3663333,56.7807442 C44.3893333,56.7807442 45.0273333,56.2087442 45.0273333,55.4057442 L45.0273333,55.3837442 C45.0273333,54.4707442 44.3783333,54.0087442 43.3663333,54.0087442 L41.7933333,54.0087442 L41.7933333,56.7807442 Z M40.4403333,60.4767442 L40.4403333,52.7767442 L43.4763333,52.7767442 C45.2803333,52.7767442 46.4023333,53.7997442 46.4023333,55.3507442 L46.4023333,55.3727442 C46.4023333,57.0887442 45.0273333,58.0017442 43.3223333,58.0017442 L41.7933333,58.0017442 L41.7933333,60.4767442 L40.4403333,60.4767442 Z M51.18,60.6087442 C48.936,60.6087442 47.264,58.8597442 47.264,56.6487442 L47.264,56.6267442 C47.264,54.4377442 48.903,52.6447442 51.235,52.6447442 C52.643,52.6447442 53.512,53.1397442 54.249,53.8437442 L53.38,54.8447442 C52.764,54.2727442 52.104,53.8877442 51.224,53.8877442 C49.75,53.8877442 48.683,55.1087442 48.683,56.6047442 L48.683,56.6267442 C48.683,58.1337442 49.75,59.3657442 51.224,59.3657442 C52.159,59.3657442 52.775,58.9807442 53.435,58.3647442 L54.304,59.2447442 C53.523,60.0917442 52.61,60.6087442 51.18,60.6087442 Z" id="pid:-0-OS" fill="#FFFFFF" mask="url(#mask-23)"></path>
                </g>
            </g>
            <g id="tintable-arrow-marker" transform="translate(16.000000, 188.000000)">
                <mask id="mask-26" fill="white">
                    <use xlink:href="#path-25"></use>
                </mask>
                <use id="Triangle" fill="#4786FF" fill-rule="evenodd" transform="translate(10.500000, 7.000000) scale(1, -1) translate(-10.500000, -7.000000) " xlink:href="#path-25"></use>
                <g id="color/Fire" mask="url(#mask-26)">
                    <g transform="translate(-7.000000, -13.000000)" id="Rectangle">
                        <g>
                            <use fill="#FD716A" fill-rule="evenodd" xlink:href="#path-27"></use>
                            <rect stroke-opacity="0.1" stroke="#000000" stroke-width="1" x="0.5" y="0.5" width="57.9669504" height="57.8094808"></rect>
                        </g>
                    </g>
                </g>
                <text id="PC" mask="url(#mask-26)" font-family="Gotham-Bold, Gotham" font-size="9" font-weight="bold" fill="#FFFFFF">
                    <tspan x="2.173" y="10">PC</tspan>
                </text>
            </g>
            <g id="tintable-arrow-marker" transform="translate(117.000000, 149.000000)">
                <mask id="mask-29" fill="white">
                    <use xlink:href="#path-28"></use>
                </mask>
                <use id="Triangle" fill="#4786FF" fill-rule="evenodd" transform="translate(10.500000, 7.000000) scale(1, -1) translate(-10.500000, -7.000000) " xlink:href="#path-28"></use>
                <g id="color/Fire" mask="url(#mask-29)">
                    <g transform="translate(-7.000000, -13.000000)" id="Rectangle">
                        <g>
                            <use fill="#FD716A" fill-rule="evenodd" xlink:href="#path-30"></use>
                            <rect stroke-opacity="0.1" stroke="#000000" stroke-width="1" x="0.5" y="0.5" width="57.9669504" height="57.8094808"></rect>
                        </g>
                    </g>
                </g>
                <text id="PC" mask="url(#mask-29)" font-family="Gotham-Bold, Gotham" font-size="9" font-weight="bold" fill="#FFFFFF">
                    <tspan x="2.173" y="10">PC</tspan>
                </text>
            </g>
            <g id="tintable-arrow-marker" transform="translate(467.000000, 200.000000)">
                <mask id="mask-32" fill="white">
                    <use xlink:href="#path-31"></use>
                </mask>
                <use id="Triangle" fill="#4786FF" fill-rule="evenodd" transform="translate(10.500000, 7.000000) scale(1, -1) translate(-10.500000, -7.000000) " xlink:href="#path-31"></use>
                <g id="color/Pitch" mask="url(#mask-32)">
                    <g transform="translate(-7.000000, -13.000000)" id="Rectangle">
                        <g>
                            <use fill="#00C89C" fill-rule="evenodd" xlink:href="#path-33"></use>
                            <rect stroke-opacity="0.1" stroke="#000000" stroke-width="1" x="0.5" y="0.5" width="57.9669504" height="57.8094808"></rect>
                        </g>
                    </g>
                </g>
                <text id="PC" mask="url(#mask-32)" font-family="Gotham-Bold, Gotham" font-size="9" font-weight="bold" fill="#FFFFFF">
                    <tspan x="2.173" y="10">PC</tspan>
                </text>
            </g>
        </g>
    </g>
</svg>