<?xml version="1.0" encoding="UTF-8"?>
<svg width="595px" height="330px" viewBox="0 0 595 330" version="1.1" xmlns="http://www.w3.org/2000/svg" xmlns:xlink="http://www.w3.org/1999/xlink">
    <!-- Generator: Sketch 48.2 (47327) - http://www.bohemiancoding.com/sketch -->
    <title>docker filesystem</title>
    <desc>Created with Sketch.</desc>
    <defs>
        <path d="M3,0 L119,0 C120.656854,-3.04359188e-16 122,1.34314575 122,3 L122,168 C122,169.656854 120.656854,171 119,171 L3,171 C1.34314575,171 2.02906125e-16,169.656854 0,168 L0,3 C-2.02906125e-16,1.34314575 1.34314575,3.04359188e-16 3,0 Z" id="path-1"></path>
        <filter x="-12.7%" y="-6.7%" width="125.4%" height="118.1%" filterUnits="objectBoundingBox" id="filter-2">
            <feMorphology radius="0.5" operator="dilate" in="SourceAlpha" result="shadowSpreadOuter1"></feMorphology>
            <feOffset dx="0" dy="4" in="shadowSpreadOuter1" result="shadowOffsetOuter1"></feOffset>
            <feGaussianBlur stdDeviation="4" in="shadowOffsetOuter1" result="shadowBlurOuter1"></feGaussianBlur>
            <feComposite in="shadowBlurOuter1" in2="SourceAlpha" operator="out" result="shadowBlurOuter1"></feComposite>
            <feColorMatrix values="0 0 0 0 0   0 0 0 0 0   0 0 0 0 0  0 0 0 0.1 0" type="matrix" in="shadowBlurOuter1"></feColorMatrix>
        </filter>
        <path d="M3,0 L119,0 C120.656854,-3.04359188e-16 122,1.34314575 122,3 L122,186 C122,187.656854 120.656854,189 119,189 L3,189 C1.34314575,189 2.02906125e-16,187.656854 0,186 L0,3 C-2.02906125e-16,1.34314575 1.34314575,3.04359188e-16 3,0 Z" id="path-3"></path>
        <filter x="-12.7%" y="-6.1%" width="125.4%" height="116.4%" filterUnits="objectBoundingBox" id="filter-4">
            <feMorphology radius="0.5" operator="dilate" in="SourceAlpha" result="shadowSpreadOuter1"></feMorphology>
            <feOffset dx="0" dy="4" in="shadowSpreadOuter1" result="shadowOffsetOuter1"></feOffset>
            <feGaussianBlur stdDeviation="4" in="shadowOffsetOuter1" result="shadowBlurOuter1"></feGaussianBlur>
            <feColorMatrix values="0 0 0 0 0   0 0 0 0 0   0 0 0 0 0  0 0 0 0.1 0" type="matrix" in="shadowBlurOuter1"></feColorMatrix>
        </filter>
        <path d="M3,0 L119,0 C120.656854,-3.04359188e-16 122,1.34314575 122,3 L122,204 C122,205.656854 120.656854,207 119,207 L3,207 C1.34314575,207 2.02906125e-16,205.656854 0,204 L0,3 C-2.02906125e-16,1.34314575 1.34314575,3.04359188e-16 3,0 Z" id="path-5"></path>
        <filter x="-12.7%" y="-5.6%" width="125.4%" height="115.0%" filterUnits="objectBoundingBox" id="filter-6">
            <feMorphology radius="0.5" operator="dilate" in="SourceAlpha" result="shadowSpreadOuter1"></feMorphology>
            <feOffset dx="0" dy="4" in="shadowSpreadOuter1" result="shadowOffsetOuter1"></feOffset>
            <feGaussianBlur stdDeviation="4" in="shadowOffsetOuter1" result="shadowBlurOuter1"></feGaussianBlur>
            <feColorMatrix values="0 0 0 0 0   0 0 0 0 0   0 0 0 0 0  0 0 0 0.1 0" type="matrix" in="shadowBlurOuter1"></feColorMatrix>
        </filter>
        <path d="M3,0 L128,0 C129.656854,-3.04359188e-16 131,1.34314575 131,3 L131,266 C131,267.656854 129.656854,269 128,269 L3,269 C1.34314575,269 2.02906125e-16,267.656854 0,266 L0,3 C-2.02906125e-16,1.34314575 1.34314575,3.04359188e-16 3,0 Z" id="path-7"></path>
        <filter x="-11.8%" y="-4.3%" width="123.7%" height="111.5%" filterUnits="objectBoundingBox" id="filter-8">
            <feMorphology radius="0.5" operator="dilate" in="SourceAlpha" result="shadowSpreadOuter1"></feMorphology>
            <feOffset dx="0" dy="4" in="shadowSpreadOuter1" result="shadowOffsetOuter1"></feOffset>
            <feGaussianBlur stdDeviation="4" in="shadowOffsetOuter1" result="shadowBlurOuter1"></feGaussianBlur>
            <feColorMatrix values="0 0 0 0 0   0 0 0 0 0   0 0 0 0 0  0 0 0 0.1 0" type="matrix" in="shadowBlurOuter1"></feColorMatrix>
        </filter>
        <circle id="path-9" cx="8.5" cy="8.5" r="8.5"></circle>
        <filter x="-29.4%" y="-23.5%" width="158.8%" height="158.8%" filterUnits="objectBoundingBox" id="filter-10">
            <feOffset dx="0" dy="1" in="SourceAlpha" result="shadowOffsetOuter1"></feOffset>
            <feGaussianBlur stdDeviation="1.5" in="shadowOffsetOuter1" result="shadowBlurOuter1"></feGaussianBlur>
            <feColorMatrix values="0 0 0 0 0   0 0 0 0 0   0 0 0 0 0  0 0 0 0.27 0" type="matrix" in="shadowBlurOuter1"></feColorMatrix>
        </filter>
        <circle id="path-11" cx="8.5" cy="8.5" r="8.5"></circle>
        <filter x="-29.4%" y="-23.5%" width="158.8%" height="158.8%" filterUnits="objectBoundingBox" id="filter-12">
            <feOffset dx="0" dy="1" in="SourceAlpha" result="shadowOffsetOuter1"></feOffset>
            <feGaussianBlur stdDeviation="1.5" in="shadowOffsetOuter1" result="shadowBlurOuter1"></feGaussianBlur>
            <feColorMatrix values="0 0 0 0 0   0 0 0 0 0   0 0 0 0 0  0 0 0 0.27 0" type="matrix" in="shadowBlurOuter1"></feColorMatrix>
        </filter>
        <circle id="path-13" cx="8.5" cy="8.5" r="8.5"></circle>
        <filter x="-29.4%" y="-23.5%" width="158.8%" height="158.8%" filterUnits="objectBoundingBox" id="filter-14">
            <feOffset dx="0" dy="1" in="SourceAlpha" result="shadowOffsetOuter1"></feOffset>
            <feGaussianBlur stdDeviation="1.5" in="shadowOffsetOuter1" result="shadowBlurOuter1"></feGaussianBlur>
            <feColorMatrix values="0 0 0 0 0   0 0 0 0 0   0 0 0 0 0  0 0 0 0.27 0" type="matrix" in="shadowBlurOuter1"></feColorMatrix>
        </filter>
    </defs>
    <g id="Page-1" stroke="none" stroke-width="1" fill="none" fill-rule="evenodd">
        <g id="docker-filesystem">
            <g id="Group" transform="translate(22.000000, 13.000000)">
                <g id="Group-1">
                    <g id="Rectangle">
                        <use fill="black" fill-opacity="1" filter="url(#filter-2)" xlink:href="#path-1"></use>
                        <use fill-opacity="0.188377491" fill="#F5A623" fill-rule="evenodd" xlink:href="#path-1"></use>
                    </g>
                    <path d="M30,63 L38,63 L38,64 L30,64 L29,64 L29,51 L30,51 L30,63 Z M14,85 L14,107 L23,107 L23,108 L14,108 L14,131 L23,131 L23,132 L14,132 L13,132 L13,31 L14,31 L14,39 L23,39 L23,40 L14,40 L14,84 L22,84 L22,85 L14,85 Z" id="lines" fill-opacity="0.6" fill="#98A0AB"></path>
                    <path d="M30.338,38.786 L34.132,38.786 C34.02,37.708 33.376,36.84 32.256,36.84 C31.206,36.84 30.492,37.624 30.338,38.786 Z M32.452,43.168 C30.324,43.168 28.658,41.614 28.658,39.332 L28.658,39.304 C28.658,37.176 30.156,35.454 32.27,35.454 C34.622,35.454 35.812,37.302 35.812,39.43 C35.812,39.584 35.798,39.738 35.784,39.906 L30.352,39.906 C30.534,41.124 31.374,41.782 32.48,41.782 C33.32,41.782 33.88,41.474 34.482,40.9 L35.476,41.782 C34.762,42.622 33.81,43.168 32.452,43.168 Z M39.998,43.126 C38.752,43.126 37.87,42.58 37.87,40.956 L37.87,37.064 L36.932,37.064 L36.932,35.608 L37.87,35.608 L37.87,33.578 L39.564,33.578 L39.564,35.608 L41.552,35.608 L41.552,37.064 L39.564,37.064 L39.564,40.69 C39.564,41.348 39.9,41.614 40.474,41.614 C40.838,41.614 41.188,41.53 41.524,41.362 L41.524,42.748 C41.09,42.986 40.628,43.126 39.998,43.126 Z M46.676,43.168 C44.478,43.168 42.854,41.446 42.854,39.346 L42.854,39.318 C42.854,37.218 44.478,35.454 46.69,35.454 C48.09,35.454 48.958,35.958 49.644,36.728 L48.594,37.862 C48.076,37.316 47.53,36.938 46.676,36.938 C45.444,36.938 44.548,38.002 44.548,39.29 L44.548,39.318 C44.548,40.62 45.458,41.698 46.76,41.698 C47.558,41.698 48.132,41.32 48.678,40.774 L49.7,41.782 C48.972,42.608 48.118,43.168 46.676,43.168 Z M49.84,44.792 L56.168,31.828 L57.638,31.828 L51.31,44.792 L49.84,44.792 Z" id="etc/" fill="#4A4A4A"></path>
                    <path d="M29.162,111 L29.162,100.78 L30.856,100.78 L30.856,111 L29.162,111 Z M33.166,111 L33.166,103.608 L34.86,103.608 L34.86,111 L33.166,111 Z M33.096,102.474 L33.096,100.864 L34.916,100.864 L34.916,102.474 L33.096,102.474 Z M40.88,109.684 C42.042,109.684 42.994,108.774 42.994,107.318 L42.994,107.29 C42.994,105.862 42.042,104.924 40.88,104.924 C39.718,104.924 38.724,105.876 38.724,107.29 L38.724,107.318 C38.724,108.746 39.718,109.684 40.88,109.684 Z M41.272,111.154 C40.054,111.154 39.284,110.538 38.766,109.852 L38.766,111 L37.072,111 L37.072,100.78 L38.766,100.78 L38.766,104.84 C39.312,104.056 40.082,103.454 41.272,103.454 C43.008,103.454 44.716,104.826 44.716,107.29 L44.716,107.318 C44.716,109.782 43.036,111.154 41.272,111.154 Z M45.038,112.792 L51.366,99.828 L52.836,99.828 L46.508,112.792 L45.038,112.792 Z" id="lib/" fill="#4A4A4A"></path>
                    <path d="M45.064,67 L45.064,56.78 L46.758,56.78 L46.758,60.756 C47.234,60.056 47.92,59.454 49.068,59.454 C50.748,59.454 51.7,60.56 51.7,62.296 L51.7,67 L50.006,67 L50.006,62.8 C50.006,61.638 49.432,60.994 48.424,60.994 C47.43,60.994 46.758,61.666 46.758,62.828 L46.758,67 L45.064,67 Z M57.286,65.698 C58.672,65.698 59.526,64.62 59.526,63.346 L59.526,63.318 C59.526,62.016 58.588,60.938 57.258,60.938 C55.9,60.938 55.032,62.002 55.032,63.29 L55.032,63.318 C55.032,64.606 55.984,65.698 57.286,65.698 Z M57.258,67.168 C55.004,67.168 53.338,65.446 53.338,63.346 L53.338,63.318 C53.338,61.204 55.018,59.454 57.286,59.454 C59.568,59.454 61.22,61.176 61.22,63.29 L61.22,63.318 C61.22,65.404 59.54,67.168 57.258,67.168 Z M65.476,67.14 C64.412,67.14 63.278,66.762 62.34,66.034 L63.096,64.886 C63.894,65.488 64.748,65.796 65.518,65.796 C66.246,65.796 66.666,65.488 66.666,64.998 L66.666,64.97 C66.666,64.41 65.882,64.2 65.014,63.934 C63.936,63.64 62.704,63.178 62.704,61.764 L62.704,61.736 C62.704,60.336 63.866,59.482 65.336,59.482 C66.274,59.482 67.268,59.804 68.052,60.322 L67.38,61.526 C66.666,61.092 65.91,60.826 65.294,60.826 C64.636,60.826 64.258,61.134 64.258,61.568 L64.258,61.596 C64.258,62.1 65.07,62.366 65.924,62.632 C66.988,62.968 68.22,63.458 68.22,64.788 L68.22,64.816 C68.22,66.37 67.016,67.14 65.476,67.14 Z M72.42,67.126 C71.174,67.126 70.292,66.58 70.292,64.956 L70.292,61.064 L69.354,61.064 L69.354,59.608 L70.292,59.608 L70.292,57.578 L71.986,57.578 L71.986,59.608 L73.974,59.608 L73.974,61.064 L71.986,61.064 L71.986,64.69 C71.986,65.348 72.322,65.614 72.896,65.614 C73.26,65.614 73.61,65.53 73.946,65.362 L73.946,66.748 C73.512,66.986 73.05,67.126 72.42,67.126 Z M78.216,67.14 C77.152,67.14 76.018,66.762 75.08,66.034 L75.836,64.886 C76.634,65.488 77.488,65.796 78.258,65.796 C78.986,65.796 79.406,65.488 79.406,64.998 L79.406,64.97 C79.406,64.41 78.622,64.2 77.754,63.934 C76.676,63.64 75.444,63.178 75.444,61.764 L75.444,61.736 C75.444,60.336 76.606,59.482 78.076,59.482 C79.014,59.482 80.008,59.804 80.792,60.322 L80.12,61.526 C79.406,61.092 78.65,60.826 78.034,60.826 C77.376,60.826 76.998,61.134 76.998,61.568 L76.998,61.596 C76.998,62.1 77.81,62.366 78.664,62.632 C79.728,62.968 80.96,63.458 80.96,64.788 L80.96,64.816 C80.96,66.37 79.756,67.14 78.216,67.14 Z" id="hosts" fill="#4A4A4A"></path>
                    <polygon id="/" fill="#4A4A4A" points="14.074 21.536 19.498 10.424 20.758 10.424 15.334 21.536"></polygon>
                    <path d="M31.612,88.154 C29.932,88.154 28.98,87.048 28.98,85.312 L28.98,80.608 L30.674,80.608 L30.674,84.808 C30.674,85.97 31.248,86.614 32.256,86.614 C33.25,86.614 33.922,85.942 33.922,84.78 L33.922,80.608 L35.616,80.608 L35.616,88 L33.922,88 L33.922,86.852 C33.432,87.566 32.746,88.154 31.612,88.154 Z M40.278,88.14 C39.214,88.14 38.08,87.762 37.142,87.034 L37.898,85.886 C38.696,86.488 39.55,86.796 40.32,86.796 C41.048,86.796 41.468,86.488 41.468,85.998 L41.468,85.97 C41.468,85.41 40.684,85.2 39.816,84.934 C38.738,84.64 37.506,84.178 37.506,82.764 L37.506,82.736 C37.506,81.336 38.668,80.482 40.138,80.482 C41.076,80.482 42.07,80.804 42.854,81.322 L42.182,82.526 C41.468,82.092 40.712,81.826 40.096,81.826 C39.438,81.826 39.06,82.134 39.06,82.568 L39.06,82.596 C39.06,83.1 39.872,83.366 40.726,83.632 C41.79,83.968 43.022,84.458 43.022,85.788 L43.022,85.816 C43.022,87.37 41.818,88.14 40.278,88.14 Z M44.744,88 L44.744,80.608 L46.438,80.608 L46.438,82.274 C46.9,81.154 47.754,80.412 49.056,80.468 L49.056,82.26 L48.958,82.26 C47.46,82.26 46.438,83.226 46.438,85.186 L46.438,88 L44.744,88 Z M49.112,89.792 L55.44,76.828 L56.91,76.828 L50.582,89.792 L49.112,89.792 Z" id="usr/" fill="#4A4A4A"></path>
                </g>
                <g id="Group-2" transform="translate(109.000000, 10.000000)">
                    <g id="Rectangle">
                        <use fill="black" fill-opacity="1" filter="url(#filter-4)" xlink:href="#path-3"></use>
                        <use fill="#E9EFFF" fill-rule="evenodd" xlink:href="#path-3"></use>
                    </g>
                    <path d="M44,152 L52,152 L52,153 L44,153 L43,153 L43,140 L44,140 L44,152 Z M27,131 L35,131 L35,132 L27,132 L26,132 L26,119 L27,119 L27,131 Z M11,107 L11,31 L12,31 L12,39 L20,39 L20,40 L12,40 L12,107 L20,107 L20,108 L11,108 L11,107 Z M44,84 L52,84 L52,85 L44,85 L43,85 L43,72 L44,72 L44,84 Z M27,63 L35,63 L35,64 L27,64 L26,64 L26,51 L27,51 L27,63 Z" id="lines" fill-opacity="0.6" fill="#98A0AB"></path>
                    <path d="M27.338,38.786 L31.132,38.786 C31.02,37.708 30.376,36.84 29.256,36.84 C28.206,36.84 27.492,37.624 27.338,38.786 Z M29.452,43.168 C27.324,43.168 25.658,41.614 25.658,39.332 L25.658,39.304 C25.658,37.176 27.156,35.454 29.27,35.454 C31.622,35.454 32.812,37.302 32.812,39.43 C32.812,39.584 32.798,39.738 32.784,39.906 L27.352,39.906 C27.534,41.124 28.374,41.782 29.48,41.782 C30.32,41.782 30.88,41.474 31.482,40.9 L32.476,41.782 C31.762,42.622 30.81,43.168 29.452,43.168 Z M36.998,43.126 C35.752,43.126 34.87,42.58 34.87,40.956 L34.87,37.064 L33.932,37.064 L33.932,35.608 L34.87,35.608 L34.87,33.578 L36.564,33.578 L36.564,35.608 L38.552,35.608 L38.552,37.064 L36.564,37.064 L36.564,40.69 C36.564,41.348 36.9,41.614 37.474,41.614 C37.838,41.614 38.188,41.53 38.524,41.362 L38.524,42.748 C38.09,42.986 37.628,43.126 36.998,43.126 Z M43.676,43.168 C41.478,43.168 39.854,41.446 39.854,39.346 L39.854,39.318 C39.854,37.218 41.478,35.454 43.69,35.454 C45.09,35.454 45.958,35.958 46.644,36.728 L45.594,37.862 C45.076,37.316 44.53,36.938 43.676,36.938 C42.444,36.938 41.548,38.002 41.548,39.29 L41.548,39.318 C41.548,40.62 42.458,41.698 43.76,41.698 C44.558,41.698 45.132,41.32 45.678,40.774 L46.7,41.782 C45.972,42.608 45.118,43.168 43.676,43.168 Z M46.84,44.792 L53.168,31.828 L54.638,31.828 L48.31,44.792 L46.84,44.792 Z" id="etc/" fill="#4A4A4A"></path>
                    <path d="M42.064,67 L42.064,59.608 L43.758,59.608 L43.758,60.728 C44.234,60.07 44.878,59.454 46.012,59.454 C47.076,59.454 47.818,59.972 48.21,60.756 C48.812,59.972 49.596,59.454 50.716,59.454 C52.34,59.454 53.306,60.476 53.306,62.282 L53.306,67 L51.612,67 L51.612,62.8 C51.612,61.624 51.066,60.994 50.114,60.994 C49.176,60.994 48.532,61.638 48.532,62.828 L48.532,67 L46.838,67 L46.838,62.786 C46.838,61.624 46.292,60.994 45.34,60.994 C44.388,60.994 43.758,61.68 43.758,62.842 L43.758,67 L42.064,67 Z M56.876,69.282 C56.162,69.282 55.644,69.114 55.126,68.834 L55.7,67.574 C56.022,67.742 56.344,67.854 56.694,67.854 C57.184,67.854 57.464,67.658 57.744,67 L54.664,59.608 L56.47,59.608 L58.57,65.096 L60.488,59.608 L62.252,59.608 L59.312,67.21 C58.724,68.722 58.066,69.282 56.876,69.282 Z M66.242,67.14 C65.178,67.14 64.044,66.762 63.106,66.034 L63.862,64.886 C64.66,65.488 65.514,65.796 66.284,65.796 C67.012,65.796 67.432,65.488 67.432,64.998 L67.432,64.97 C67.432,64.41 66.648,64.2 65.78,63.934 C64.702,63.64 63.47,63.178 63.47,61.764 L63.47,61.736 C63.47,60.336 64.632,59.482 66.102,59.482 C67.04,59.482 68.034,59.804 68.818,60.322 L68.146,61.526 C67.432,61.092 66.676,60.826 66.06,60.826 C65.402,60.826 65.024,61.134 65.024,61.568 L65.024,61.596 C65.024,62.1 65.836,62.366 66.69,62.632 C67.754,62.968 68.986,63.458 68.986,64.788 L68.986,64.816 C68.986,66.37 67.782,67.14 66.242,67.14 Z M74.166,65.684 C75.3,65.684 76.308,64.732 76.308,63.318 L76.308,63.29 C76.308,61.862 75.3,60.924 74.166,60.924 C73.004,60.924 72.038,61.82 72.038,63.29 L72.038,63.318 C72.038,64.746 73.004,65.684 74.166,65.684 Z M76.28,69.24 L76.28,65.768 C75.734,66.538 74.95,67.154 73.76,67.154 C72.024,67.154 70.33,65.782 70.33,63.318 L70.33,63.29 C70.33,60.826 71.996,59.454 73.76,59.454 C74.978,59.454 75.734,60.07 76.28,60.756 L76.28,59.608 L77.974,59.608 L77.974,69.24 L76.28,69.24 Z M80.186,67 L80.186,56.78 L81.88,56.78 L81.88,67 L80.186,67 Z M82.678,68.792 L89.006,55.828 L90.476,55.828 L84.148,68.792 L82.678,68.792 Z" id="mysql/" fill="#4A4A4A"></path>
                    <path d="M59.064,88 L59.064,80.608 L60.758,80.608 L60.758,81.728 C61.234,81.07 61.878,80.454 63.012,80.454 C64.076,80.454 64.818,80.972 65.21,81.756 C65.812,80.972 66.596,80.454 67.716,80.454 C69.34,80.454 70.306,81.476 70.306,83.282 L70.306,88 L68.612,88 L68.612,83.8 C68.612,82.624 68.066,81.994 67.114,81.994 C66.176,81.994 65.532,82.638 65.532,83.828 L65.532,88 L63.838,88 L63.838,83.786 C63.838,82.624 63.292,81.994 62.34,81.994 C61.388,81.994 60.758,82.68 60.758,83.842 L60.758,88 L59.064,88 Z M73.876,90.282 C73.162,90.282 72.644,90.114 72.126,89.834 L72.7,88.574 C73.022,88.742 73.344,88.854 73.694,88.854 C74.184,88.854 74.464,88.658 74.744,88 L71.664,80.608 L73.47,80.608 L75.57,86.096 L77.488,80.608 L79.252,80.608 L76.312,88.21 C75.724,89.722 75.066,90.282 73.876,90.282 Z M80.596,88 L80.596,86.082 L82.458,86.082 L82.458,88 L80.596,88 Z M87.89,88.168 C85.692,88.168 84.068,86.446 84.068,84.346 L84.068,84.318 C84.068,82.218 85.692,80.454 87.904,80.454 C89.304,80.454 90.172,80.958 90.858,81.728 L89.808,82.862 C89.29,82.316 88.744,81.938 87.89,81.938 C86.658,81.938 85.762,83.002 85.762,84.29 L85.762,84.318 C85.762,85.62 86.672,86.698 87.974,86.698 C88.772,86.698 89.346,86.32 89.892,85.774 L90.914,86.782 C90.186,87.608 89.332,88.168 87.89,88.168 Z M92.468,88 L92.468,80.608 L94.162,80.608 L94.162,81.756 C94.638,81.056 95.324,80.454 96.472,80.454 C98.152,80.454 99.104,81.56 99.104,83.296 L99.104,88 L97.41,88 L97.41,83.8 C97.41,82.638 96.836,81.994 95.828,81.994 C94.834,81.994 94.162,82.666 94.162,83.828 L94.162,88 L92.468,88 Z M101.526,88 L101.526,82.064 L100.588,82.064 L100.588,80.65 L101.526,80.65 L101.526,80.118 C101.526,79.292 101.722,78.69 102.128,78.284 C102.52,77.892 103.08,77.696 103.794,77.696 C104.396,77.696 104.788,77.78 105.166,77.892 L105.166,79.32 C104.83,79.208 104.55,79.138 104.172,79.138 C103.514,79.138 103.192,79.516 103.192,80.258 L103.192,80.664 L105.152,80.664 L105.152,82.064 L103.22,82.064 L103.22,88 L101.526,88 Z" id="my.cnf" fill="#4A4A4A"></path>
                    <path d="M28.612,111.154 C26.932,111.154 25.98,110.048 25.98,108.312 L25.98,103.608 L27.674,103.608 L27.674,107.808 C27.674,108.97 28.248,109.614 29.256,109.614 C30.25,109.614 30.922,108.942 30.922,107.78 L30.922,103.608 L32.616,103.608 L32.616,111 L30.922,111 L30.922,109.852 C30.432,110.566 29.746,111.154 28.612,111.154 Z M37.278,111.14 C36.214,111.14 35.08,110.762 34.142,110.034 L34.898,108.886 C35.696,109.488 36.55,109.796 37.32,109.796 C38.048,109.796 38.468,109.488 38.468,108.998 L38.468,108.97 C38.468,108.41 37.684,108.2 36.816,107.934 C35.738,107.64 34.506,107.178 34.506,105.764 L34.506,105.736 C34.506,104.336 35.668,103.482 37.138,103.482 C38.076,103.482 39.07,103.804 39.854,104.322 L39.182,105.526 C38.468,105.092 37.712,104.826 37.096,104.826 C36.438,104.826 36.06,105.134 36.06,105.568 L36.06,105.596 C36.06,106.1 36.872,106.366 37.726,106.632 C38.79,106.968 40.022,107.458 40.022,108.788 L40.022,108.816 C40.022,110.37 38.818,111.14 37.278,111.14 Z M41.744,111 L41.744,103.608 L43.438,103.608 L43.438,105.274 C43.9,104.154 44.754,103.412 46.056,103.468 L46.056,105.26 L45.958,105.26 C44.46,105.26 43.438,106.226 43.438,108.186 L43.438,111 L41.744,111 Z M46.112,112.792 L52.44,99.828 L53.91,99.828 L47.582,112.792 L46.112,112.792 Z" id="usr/" fill="#4A4A4A"></path>
                    <path d="M45.872,133.684 C47.034,133.684 47.986,132.774 47.986,131.318 L47.986,131.29 C47.986,129.862 47.034,128.924 45.872,128.924 C44.71,128.924 43.716,129.876 43.716,131.29 L43.716,131.318 C43.716,132.746 44.71,133.684 45.872,133.684 Z M46.264,135.154 C45.046,135.154 44.276,134.538 43.758,133.852 L43.758,135 L42.064,135 L42.064,124.78 L43.758,124.78 L43.758,128.84 C44.304,128.056 45.074,127.454 46.264,127.454 C48,127.454 49.708,128.826 49.708,131.29 L49.708,131.318 C49.708,133.782 48.028,135.154 46.264,135.154 Z M51.542,135 L51.542,127.608 L53.236,127.608 L53.236,135 L51.542,135 Z M51.472,126.474 L51.472,124.864 L53.292,124.864 L53.292,126.474 L51.472,126.474 Z M55.448,135 L55.448,127.608 L57.142,127.608 L57.142,128.756 C57.618,128.056 58.304,127.454 59.452,127.454 C61.132,127.454 62.084,128.56 62.084,130.296 L62.084,135 L60.39,135 L60.39,130.8 C60.39,129.638 59.816,128.994 58.808,128.994 C57.814,128.994 57.142,129.666 57.142,130.828 L57.142,135 L55.448,135 Z M62.714,136.792 L69.042,123.828 L70.512,123.828 L64.184,136.792 L62.714,136.792 Z" id="bin/" fill="#4A4A4A"></path>
                    <path d="M59.064,156 L59.064,148.608 L60.758,148.608 L60.758,149.728 C61.234,149.07 61.878,148.454 63.012,148.454 C64.076,148.454 64.818,148.972 65.21,149.756 C65.812,148.972 66.596,148.454 67.716,148.454 C69.34,148.454 70.306,149.476 70.306,151.282 L70.306,156 L68.612,156 L68.612,151.8 C68.612,150.624 68.066,149.994 67.114,149.994 C66.176,149.994 65.532,150.638 65.532,151.828 L65.532,156 L63.838,156 L63.838,151.786 C63.838,150.624 63.292,149.994 62.34,149.994 C61.388,149.994 60.758,150.68 60.758,151.842 L60.758,156 L59.064,156 Z M76.928,153.326 L76.928,152.906 C76.494,152.738 75.892,152.612 75.234,152.612 C74.17,152.612 73.54,153.046 73.54,153.76 L73.54,153.788 C73.54,154.502 74.17,154.88 74.968,154.88 C76.088,154.88 76.928,154.264 76.928,153.326 Z M78.566,156 L76.886,156 L76.886,155.09 C76.382,155.692 75.612,156.154 74.492,156.154 C73.092,156.154 71.86,155.37 71.86,153.872 L71.86,153.844 C71.86,152.206 73.12,151.422 74.856,151.422 C75.752,151.422 76.326,151.548 76.9,151.73 L76.9,151.59 C76.9,150.568 76.256,150.008 75.08,150.008 C74.24,150.008 73.638,150.19 72.966,150.47 L72.504,149.112 C73.33,148.734 74.1,148.496 75.318,148.496 C77.516,148.496 78.566,149.644 78.566,151.618 L78.566,156 Z M80.582,156 L80.582,148.608 L82.276,148.608 L82.276,150.274 C82.738,149.154 83.592,148.412 84.894,148.468 L84.894,150.26 L84.796,150.26 C83.298,150.26 82.276,151.226 82.276,153.186 L82.276,156 L80.582,156 Z M86.462,156 L86.462,148.608 L88.156,148.608 L88.156,156 L86.462,156 Z M86.392,147.474 L86.392,145.864 L88.212,145.864 L88.212,147.474 L86.392,147.474 Z M94.932,153.326 L94.932,152.906 C94.498,152.738 93.896,152.612 93.238,152.612 C92.174,152.612 91.544,153.046 91.544,153.76 L91.544,153.788 C91.544,154.502 92.174,154.88 92.972,154.88 C94.092,154.88 94.932,154.264 94.932,153.326 Z M96.57,156 L94.89,156 L94.89,155.09 C94.386,155.692 93.616,156.154 92.496,156.154 C91.096,156.154 89.864,155.37 89.864,153.872 L89.864,153.844 C89.864,152.206 91.124,151.422 92.86,151.422 C93.756,151.422 94.33,151.548 94.904,151.73 L94.904,151.59 C94.904,150.568 94.26,150.008 93.084,150.008 C92.244,150.008 91.642,150.19 90.97,150.47 L90.508,149.112 C91.334,148.734 92.104,148.496 93.322,148.496 C95.52,148.496 96.57,149.644 96.57,151.618 L96.57,156 Z M102.044,154.684 C103.178,154.684 104.186,153.732 104.186,152.318 L104.186,152.29 C104.186,150.862 103.178,149.924 102.044,149.924 C100.882,149.924 99.916,150.82 99.916,152.29 L99.916,152.318 C99.916,153.746 100.882,154.684 102.044,154.684 Z M101.638,156.154 C99.902,156.154 98.208,154.782 98.208,152.318 L98.208,152.29 C98.208,149.826 99.874,148.454 101.638,148.454 C102.856,148.454 103.612,149.07 104.158,149.756 L104.158,145.78 L105.852,145.78 L105.852,156 L104.158,156 L104.158,154.768 C103.612,155.538 102.828,156.154 101.638,156.154 Z M111.774,154.684 C112.936,154.684 113.888,153.774 113.888,152.318 L113.888,152.29 C113.888,150.862 112.936,149.924 111.774,149.924 C110.612,149.924 109.618,150.876 109.618,152.29 L109.618,152.318 C109.618,153.746 110.612,154.684 111.774,154.684 Z M112.166,156.154 C110.948,156.154 110.178,155.538 109.66,154.852 L109.66,156 L107.966,156 L107.966,145.78 L109.66,145.78 L109.66,149.84 C110.206,149.056 110.976,148.454 112.166,148.454 C113.902,148.454 115.61,149.826 115.61,152.29 L115.61,152.318 C115.61,154.782 113.93,156.154 112.166,156.154 Z" id="mariadb" fill="#4A4A4A"></path>
                    <polygon id="/" fill="#4A4A4A" points="11.074 21.536 16.498 10.424 17.758 10.424 12.334 21.536"></polygon>
                </g>
                <g id="Group-3" transform="translate(219.000000, 20.000000)">
                    <g id="Rectangle">
                        <use fill="black" fill-opacity="1" filter="url(#filter-6)" xlink:href="#path-5"></use>
                        <use fill="#F1FFE3" fill-rule="evenodd" xlink:href="#path-5"></use>
                    </g>
                    <path d="M29,63 L37,63 L37,64 L29,64 L28,64 L28,51 L29,51 L29,63 Z M14,39 L22,39 L22,40 L14,40 L13,40 L13,31 L14,31 L14,39 Z" id="lines" fill-opacity="0.6" fill="#98A0AB"></path>
                    <path d="M28.064,43 L28.064,32.78 L29.758,32.78 L29.758,36.756 C30.234,36.056 30.92,35.454 32.068,35.454 C33.748,35.454 34.7,36.56 34.7,38.296 L34.7,43 L33.006,43 L33.006,38.8 C33.006,37.638 32.432,36.994 31.424,36.994 C30.43,36.994 29.758,37.666 29.758,38.828 L29.758,43 L28.064,43 Z M40.286,41.698 C41.672,41.698 42.526,40.62 42.526,39.346 L42.526,39.318 C42.526,38.016 41.588,36.938 40.258,36.938 C38.9,36.938 38.032,38.002 38.032,39.29 L38.032,39.318 C38.032,40.606 38.984,41.698 40.286,41.698 Z M40.258,43.168 C38.004,43.168 36.338,41.446 36.338,39.346 L36.338,39.318 C36.338,37.204 38.018,35.454 40.286,35.454 C42.568,35.454 44.22,37.176 44.22,39.29 L44.22,39.318 C44.22,41.404 42.54,43.168 40.258,43.168 Z M45.942,43 L45.942,35.608 L47.636,35.608 L47.636,36.728 C48.112,36.07 48.756,35.454 49.89,35.454 C50.954,35.454 51.696,35.972 52.088,36.756 C52.69,35.972 53.474,35.454 54.594,35.454 C56.218,35.454 57.184,36.476 57.184,38.282 L57.184,43 L55.49,43 L55.49,38.8 C55.49,37.624 54.944,36.994 53.992,36.994 C53.054,36.994 52.41,37.638 52.41,38.828 L52.41,43 L50.716,43 L50.716,38.786 C50.716,37.624 50.17,36.994 49.218,36.994 C48.266,36.994 47.636,37.68 47.636,38.842 L47.636,43 L45.942,43 Z M60.516,38.786 L64.31,38.786 C64.198,37.708 63.554,36.84 62.434,36.84 C61.384,36.84 60.67,37.624 60.516,38.786 Z M62.63,43.168 C60.502,43.168 58.836,41.614 58.836,39.332 L58.836,39.304 C58.836,37.176 60.334,35.454 62.448,35.454 C64.8,35.454 65.99,37.302 65.99,39.43 C65.99,39.584 65.976,39.738 65.962,39.906 L60.53,39.906 C60.712,41.124 61.552,41.782 62.658,41.782 C63.498,41.782 64.058,41.474 64.66,40.9 L65.654,41.782 C64.94,42.622 63.988,43.168 62.63,43.168 Z M66.284,44.792 L72.612,31.828 L74.082,31.828 L67.754,44.792 L66.284,44.792 Z" id="home/" fill="#4A4A4A"></path>
                    <path d="M44.064,67 L44.064,59.608 L45.758,59.608 L45.758,60.728 C46.234,60.07 46.878,59.454 48.012,59.454 C49.076,59.454 49.818,59.972 50.21,60.756 C50.812,59.972 51.596,59.454 52.716,59.454 C54.34,59.454 55.306,60.476 55.306,62.282 L55.306,67 L53.612,67 L53.612,62.8 C53.612,61.624 53.066,60.994 52.114,60.994 C51.176,60.994 50.532,61.638 50.532,62.828 L50.532,67 L48.838,67 L48.838,62.786 C48.838,61.624 48.292,60.994 47.34,60.994 C46.388,60.994 45.758,61.68 45.758,62.842 L45.758,67 L44.064,67 Z M58.638,62.786 L62.432,62.786 C62.32,61.708 61.676,60.84 60.556,60.84 C59.506,60.84 58.792,61.624 58.638,62.786 Z M60.752,67.168 C58.624,67.168 56.958,65.614 56.958,63.332 L56.958,63.304 C56.958,61.176 58.456,59.454 60.57,59.454 C62.922,59.454 64.112,61.302 64.112,63.43 C64.112,63.584 64.098,63.738 64.084,63.906 L58.652,63.906 C58.834,65.124 59.674,65.782 60.78,65.782 C61.62,65.782 62.18,65.474 62.782,64.9 L63.776,65.782 C63.062,66.622 62.11,67.168 60.752,67.168 Z M64.406,68.792 L70.734,55.828 L72.204,55.828 L65.876,68.792 L64.406,68.792 Z" id="me/" fill="#4A4A4A"></path>
                    <polygon id="/" fill="#4A4A4A" points="13.074 21.536 18.498 10.424 19.758 10.424 14.334 21.536"></polygon>
                </g>
            </g>
            <g id="Group-4" transform="translate(347.000000, 43.000000)">
                <g id="Rectangle">
                    <use fill="black" fill-opacity="1" filter="url(#filter-8)" xlink:href="#path-7"></use>
                    <use fill="#FCFCFC" fill-rule="evenodd" xlink:href="#path-7"></use>
                </g>
                <rect id="Rectangle-12" fill="#F1FFE3" x="22" y="121" width="98" height="45"></rect>
                <rect id="Rectangle-12" fill="#FDEED6" x="22" y="30" width="98" height="41"></rect>
                <rect id="Rectangle-12" fill="#FDEED6" x="22" y="168" width="98" height="44"></rect>
                <rect id="Rectangle-12" fill="#E9EFFF" x="22" y="73" width="98" height="45"></rect>
                <rect id="Rectangle-12" fill="#E9EFFF" x="22" y="213" width="98" height="45"></rect>
                <path d="M27,62 L35,62 L35,63 L27,63 L26,63 L26,50 L27,50 L27,62 Z M12,178 L12,200 L20,200 L20,201 L12,201 L11,201 L11,31 L12,31 L12,39 L20,39 L20,40 L12,40 L12,131 L20,131 L20,132 L12,132 L12,177 L20,177 L20,178 L12,178 Z M27,155 L35,155 L35,156 L27,156 L26,156 L26,143 L27,143 L27,155 Z M44,245 L52,245 L52,246 L44,246 L43,246 L43,233 L44,233 L44,245 Z M27,224 L35,224 L35,225 L27,225 L26,225 L26,212 L27,212 L27,224 Z M44,106 L52,106 L52,107 L44,107 L43,107 L43,94 L44,94 L44,106 Z M27,84 L35,84 L35,85 L27,85 L26,85 L26,72 L27,72 L27,84 Z" id="lines" fill-opacity="0.6" fill="#98A0AB"></path>
                <path d="M26.064,135 L26.064,124.78 L27.758,124.78 L27.758,128.756 C28.234,128.056 28.92,127.454 30.068,127.454 C31.748,127.454 32.7,128.56 32.7,130.296 L32.7,135 L31.006,135 L31.006,130.8 C31.006,129.638 30.432,128.994 29.424,128.994 C28.43,128.994 27.758,129.666 27.758,130.828 L27.758,135 L26.064,135 Z M38.286,133.698 C39.672,133.698 40.526,132.62 40.526,131.346 L40.526,131.318 C40.526,130.016 39.588,128.938 38.258,128.938 C36.9,128.938 36.032,130.002 36.032,131.29 L36.032,131.318 C36.032,132.606 36.984,133.698 38.286,133.698 Z M38.258,135.168 C36.004,135.168 34.338,133.446 34.338,131.346 L34.338,131.318 C34.338,129.204 36.018,127.454 38.286,127.454 C40.568,127.454 42.22,129.176 42.22,131.29 L42.22,131.318 C42.22,133.404 40.54,135.168 38.258,135.168 Z M43.942,135 L43.942,127.608 L45.636,127.608 L45.636,128.728 C46.112,128.07 46.756,127.454 47.89,127.454 C48.954,127.454 49.696,127.972 50.088,128.756 C50.69,127.972 51.474,127.454 52.594,127.454 C54.218,127.454 55.184,128.476 55.184,130.282 L55.184,135 L53.49,135 L53.49,130.8 C53.49,129.624 52.944,128.994 51.992,128.994 C51.054,128.994 50.41,129.638 50.41,130.828 L50.41,135 L48.716,135 L48.716,130.786 C48.716,129.624 48.17,128.994 47.218,128.994 C46.266,128.994 45.636,129.68 45.636,130.842 L45.636,135 L43.942,135 Z M58.516,130.786 L62.31,130.786 C62.198,129.708 61.554,128.84 60.434,128.84 C59.384,128.84 58.67,129.624 58.516,130.786 Z M60.63,135.168 C58.502,135.168 56.836,133.614 56.836,131.332 L56.836,131.304 C56.836,129.176 58.334,127.454 60.448,127.454 C62.8,127.454 63.99,129.302 63.99,131.43 C63.99,131.584 63.976,131.738 63.962,131.906 L58.53,131.906 C58.712,133.124 59.552,133.782 60.658,133.782 C61.498,133.782 62.058,133.474 62.66,132.9 L63.654,133.782 C62.94,134.622 61.988,135.168 60.63,135.168 Z M64.284,136.792 L70.612,123.828 L72.082,123.828 L65.754,136.792 L64.284,136.792 Z" id="home/" fill="#4A4A4A"></path>
                <path d="M42.064,159 L42.064,151.608 L43.758,151.608 L43.758,152.728 C44.234,152.07 44.878,151.454 46.012,151.454 C47.076,151.454 47.818,151.972 48.21,152.756 C48.812,151.972 49.596,151.454 50.716,151.454 C52.34,151.454 53.306,152.476 53.306,154.282 L53.306,159 L51.612,159 L51.612,154.8 C51.612,153.624 51.066,152.994 50.114,152.994 C49.176,152.994 48.532,153.638 48.532,154.828 L48.532,159 L46.838,159 L46.838,154.786 C46.838,153.624 46.292,152.994 45.34,152.994 C44.388,152.994 43.758,153.68 43.758,154.842 L43.758,159 L42.064,159 Z M56.638,154.786 L60.432,154.786 C60.32,153.708 59.676,152.84 58.556,152.84 C57.506,152.84 56.792,153.624 56.638,154.786 Z M58.752,159.168 C56.624,159.168 54.958,157.614 54.958,155.332 L54.958,155.304 C54.958,153.176 56.456,151.454 58.57,151.454 C60.922,151.454 62.112,153.302 62.112,155.43 C62.112,155.584 62.098,155.738 62.084,155.906 L56.652,155.906 C56.834,157.124 57.674,157.782 58.78,157.782 C59.62,157.782 60.18,157.474 60.782,156.9 L61.776,157.782 C61.062,158.622 60.11,159.168 58.752,159.168 Z M62.406,160.792 L68.734,147.828 L70.204,147.828 L63.876,160.792 L62.406,160.792 Z" id="me/" fill="#4A4A4A"></path>
                <path d="M27.338,38.786 L31.132,38.786 C31.02,37.708 30.376,36.84 29.256,36.84 C28.206,36.84 27.492,37.624 27.338,38.786 Z M29.452,43.168 C27.324,43.168 25.658,41.614 25.658,39.332 L25.658,39.304 C25.658,37.176 27.156,35.454 29.27,35.454 C31.622,35.454 32.812,37.302 32.812,39.43 C32.812,39.584 32.798,39.738 32.784,39.906 L27.352,39.906 C27.534,41.124 28.374,41.782 29.48,41.782 C30.32,41.782 30.88,41.474 31.482,40.9 L32.476,41.782 C31.762,42.622 30.81,43.168 29.452,43.168 Z M36.998,43.126 C35.752,43.126 34.87,42.58 34.87,40.956 L34.87,37.064 L33.932,37.064 L33.932,35.608 L34.87,35.608 L34.87,33.578 L36.564,33.578 L36.564,35.608 L38.552,35.608 L38.552,37.064 L36.564,37.064 L36.564,40.69 C36.564,41.348 36.9,41.614 37.474,41.614 C37.838,41.614 38.188,41.53 38.524,41.362 L38.524,42.748 C38.09,42.986 37.628,43.126 36.998,43.126 Z M43.676,43.168 C41.478,43.168 39.854,41.446 39.854,39.346 L39.854,39.318 C39.854,37.218 41.478,35.454 43.69,35.454 C45.09,35.454 45.958,35.958 46.644,36.728 L45.594,37.862 C45.076,37.316 44.53,36.938 43.676,36.938 C42.444,36.938 41.548,38.002 41.548,39.29 L41.548,39.318 C41.548,40.62 42.458,41.698 43.76,41.698 C44.558,41.698 45.132,41.32 45.678,40.774 L46.7,41.782 C45.972,42.608 45.118,43.168 43.676,43.168 Z M46.84,44.792 L53.168,31.828 L54.638,31.828 L48.31,44.792 L46.84,44.792 Z" id="etc/" fill="#4A4A4A"></path>
                <path d="M26.162,181 L26.162,170.78 L27.856,170.78 L27.856,181 L26.162,181 Z M30.166,181 L30.166,173.608 L31.86,173.608 L31.86,181 L30.166,181 Z M30.096,172.474 L30.096,170.864 L31.916,170.864 L31.916,172.474 L30.096,172.474 Z M37.88,179.684 C39.042,179.684 39.994,178.774 39.994,177.318 L39.994,177.29 C39.994,175.862 39.042,174.924 37.88,174.924 C36.718,174.924 35.724,175.876 35.724,177.29 L35.724,177.318 C35.724,178.746 36.718,179.684 37.88,179.684 Z M38.272,181.154 C37.054,181.154 36.284,180.538 35.766,179.852 L35.766,181 L34.072,181 L34.072,170.78 L35.766,170.78 L35.766,174.84 C36.312,174.056 37.082,173.454 38.272,173.454 C40.008,173.454 41.716,174.826 41.716,177.29 L41.716,177.318 C41.716,179.782 40.036,181.154 38.272,181.154 Z M42.038,182.792 L48.366,169.828 L49.836,169.828 L43.508,182.792 L42.038,182.792 Z" id="lib/" fill="#4A4A4A"></path>
                <path d="M42.064,88 L42.064,80.608 L43.758,80.608 L43.758,81.728 C44.234,81.07 44.878,80.454 46.012,80.454 C47.076,80.454 47.818,80.972 48.21,81.756 C48.812,80.972 49.596,80.454 50.716,80.454 C52.34,80.454 53.306,81.476 53.306,83.282 L53.306,88 L51.612,88 L51.612,83.8 C51.612,82.624 51.066,81.994 50.114,81.994 C49.176,81.994 48.532,82.638 48.532,83.828 L48.532,88 L46.838,88 L46.838,83.786 C46.838,82.624 46.292,81.994 45.34,81.994 C44.388,81.994 43.758,82.68 43.758,83.842 L43.758,88 L42.064,88 Z M56.876,90.282 C56.162,90.282 55.644,90.114 55.126,89.834 L55.7,88.574 C56.022,88.742 56.344,88.854 56.694,88.854 C57.184,88.854 57.464,88.658 57.744,88 L54.664,80.608 L56.47,80.608 L58.57,86.096 L60.488,80.608 L62.252,80.608 L59.312,88.21 C58.724,89.722 58.066,90.282 56.876,90.282 Z M66.242,88.14 C65.178,88.14 64.044,87.762 63.106,87.034 L63.862,85.886 C64.66,86.488 65.514,86.796 66.284,86.796 C67.012,86.796 67.432,86.488 67.432,85.998 L67.432,85.97 C67.432,85.41 66.648,85.2 65.78,84.934 C64.702,84.64 63.47,84.178 63.47,82.764 L63.47,82.736 C63.47,81.336 64.632,80.482 66.102,80.482 C67.04,80.482 68.034,80.804 68.818,81.322 L68.146,82.526 C67.432,82.092 66.676,81.826 66.06,81.826 C65.402,81.826 65.024,82.134 65.024,82.568 L65.024,82.596 C65.024,83.1 65.836,83.366 66.69,83.632 C67.754,83.968 68.986,84.458 68.986,85.788 L68.986,85.816 C68.986,87.37 67.782,88.14 66.242,88.14 Z M74.166,86.684 C75.3,86.684 76.308,85.732 76.308,84.318 L76.308,84.29 C76.308,82.862 75.3,81.924 74.166,81.924 C73.004,81.924 72.038,82.82 72.038,84.29 L72.038,84.318 C72.038,85.746 73.004,86.684 74.166,86.684 Z M76.28,90.24 L76.28,86.768 C75.734,87.538 74.95,88.154 73.76,88.154 C72.024,88.154 70.33,86.782 70.33,84.318 L70.33,84.29 C70.33,81.826 71.996,80.454 73.76,80.454 C74.978,80.454 75.734,81.07 76.28,81.756 L76.28,80.608 L77.974,80.608 L77.974,90.24 L76.28,90.24 Z M80.186,88 L80.186,77.78 L81.88,77.78 L81.88,88 L80.186,88 Z M82.678,89.792 L89.006,76.828 L90.476,76.828 L84.148,89.792 L82.678,89.792 Z" id="mysql/" fill="#4A4A4A"></path>
                <path d="M42.064,66 L42.064,55.78 L43.758,55.78 L43.758,59.756 C44.234,59.056 44.92,58.454 46.068,58.454 C47.748,58.454 48.7,59.56 48.7,61.296 L48.7,66 L47.006,66 L47.006,61.8 C47.006,60.638 46.432,59.994 45.424,59.994 C44.43,59.994 43.758,60.666 43.758,61.828 L43.758,66 L42.064,66 Z M54.286,64.698 C55.672,64.698 56.526,63.62 56.526,62.346 L56.526,62.318 C56.526,61.016 55.588,59.938 54.258,59.938 C52.9,59.938 52.032,61.002 52.032,62.29 L52.032,62.318 C52.032,63.606 52.984,64.698 54.286,64.698 Z M54.258,66.168 C52.004,66.168 50.338,64.446 50.338,62.346 L50.338,62.318 C50.338,60.204 52.018,58.454 54.286,58.454 C56.568,58.454 58.22,60.176 58.22,62.29 L58.22,62.318 C58.22,64.404 56.54,66.168 54.258,66.168 Z M62.476,66.14 C61.412,66.14 60.278,65.762 59.34,65.034 L60.096,63.886 C60.894,64.488 61.748,64.796 62.518,64.796 C63.246,64.796 63.666,64.488 63.666,63.998 L63.666,63.97 C63.666,63.41 62.882,63.2 62.014,62.934 C60.936,62.64 59.704,62.178 59.704,60.764 L59.704,60.736 C59.704,59.336 60.866,58.482 62.336,58.482 C63.274,58.482 64.268,58.804 65.052,59.322 L64.38,60.526 C63.666,60.092 62.91,59.826 62.294,59.826 C61.636,59.826 61.258,60.134 61.258,60.568 L61.258,60.596 C61.258,61.1 62.07,61.366 62.924,61.632 C63.988,61.968 65.22,62.458 65.22,63.788 L65.22,63.816 C65.22,65.37 64.016,66.14 62.476,66.14 Z M69.42,66.126 C68.174,66.126 67.292,65.58 67.292,63.956 L67.292,60.064 L66.354,60.064 L66.354,58.608 L67.292,58.608 L67.292,56.578 L68.986,56.578 L68.986,58.608 L70.974,58.608 L70.974,60.064 L68.986,60.064 L68.986,63.69 C68.986,64.348 69.322,64.614 69.896,64.614 C70.26,64.614 70.61,64.53 70.946,64.362 L70.946,65.748 C70.512,65.986 70.05,66.126 69.42,66.126 Z M75.216,66.14 C74.152,66.14 73.018,65.762 72.08,65.034 L72.836,63.886 C73.634,64.488 74.488,64.796 75.258,64.796 C75.986,64.796 76.406,64.488 76.406,63.998 L76.406,63.97 C76.406,63.41 75.622,63.2 74.754,62.934 C73.676,62.64 72.444,62.178 72.444,60.764 L72.444,60.736 C72.444,59.336 73.606,58.482 75.076,58.482 C76.014,58.482 77.008,58.804 77.792,59.322 L77.12,60.526 C76.406,60.092 75.65,59.826 75.034,59.826 C74.376,59.826 73.998,60.134 73.998,60.568 L73.998,60.596 C73.998,61.1 74.81,61.366 75.664,61.632 C76.728,61.968 77.96,62.458 77.96,63.788 L77.96,63.816 C77.96,65.37 76.756,66.14 75.216,66.14 Z" id="hosts" fill="#4A4A4A"></path>
                <path d="M59.064,110 L59.064,102.608 L60.758,102.608 L60.758,103.728 C61.234,103.07 61.878,102.454 63.012,102.454 C64.076,102.454 64.818,102.972 65.21,103.756 C65.812,102.972 66.596,102.454 67.716,102.454 C69.34,102.454 70.306,103.476 70.306,105.282 L70.306,110 L68.612,110 L68.612,105.8 C68.612,104.624 68.066,103.994 67.114,103.994 C66.176,103.994 65.532,104.638 65.532,105.828 L65.532,110 L63.838,110 L63.838,105.786 C63.838,104.624 63.292,103.994 62.34,103.994 C61.388,103.994 60.758,104.68 60.758,105.842 L60.758,110 L59.064,110 Z M73.876,112.282 C73.162,112.282 72.644,112.114 72.126,111.834 L72.7,110.574 C73.022,110.742 73.344,110.854 73.694,110.854 C74.184,110.854 74.464,110.658 74.744,110 L71.664,102.608 L73.47,102.608 L75.57,108.096 L77.488,102.608 L79.252,102.608 L76.312,110.21 C75.724,111.722 75.066,112.282 73.876,112.282 Z M80.596,110 L80.596,108.082 L82.458,108.082 L82.458,110 L80.596,110 Z M87.89,110.168 C85.692,110.168 84.068,108.446 84.068,106.346 L84.068,106.318 C84.068,104.218 85.692,102.454 87.904,102.454 C89.304,102.454 90.172,102.958 90.858,103.728 L89.808,104.862 C89.29,104.316 88.744,103.938 87.89,103.938 C86.658,103.938 85.762,105.002 85.762,106.29 L85.762,106.318 C85.762,107.62 86.672,108.698 87.974,108.698 C88.772,108.698 89.346,108.32 89.892,107.774 L90.914,108.782 C90.186,109.608 89.332,110.168 87.89,110.168 Z M92.468,110 L92.468,102.608 L94.162,102.608 L94.162,103.756 C94.638,103.056 95.324,102.454 96.472,102.454 C98.152,102.454 99.104,103.56 99.104,105.296 L99.104,110 L97.41,110 L97.41,105.8 C97.41,104.638 96.836,103.994 95.828,103.994 C94.834,103.994 94.162,104.666 94.162,105.828 L94.162,110 L92.468,110 Z M101.526,110 L101.526,104.064 L100.588,104.064 L100.588,102.65 L101.526,102.65 L101.526,102.118 C101.526,101.292 101.722,100.69 102.128,100.284 C102.52,99.892 103.08,99.696 103.794,99.696 C104.396,99.696 104.788,99.78 105.166,99.892 L105.166,101.32 C104.83,101.208 104.55,101.138 104.172,101.138 C103.514,101.138 103.192,101.516 103.192,102.258 L103.192,102.664 L105.152,102.664 L105.152,104.064 L103.22,104.064 L103.22,110 L101.526,110 Z" id="my.cnf" fill="#4A4A4A"></path>
                <path d="M28.612,204.154 C26.932,204.154 25.98,203.048 25.98,201.312 L25.98,196.608 L27.674,196.608 L27.674,200.808 C27.674,201.97 28.248,202.614 29.256,202.614 C30.25,202.614 30.922,201.942 30.922,200.78 L30.922,196.608 L32.616,196.608 L32.616,204 L30.922,204 L30.922,202.852 C30.432,203.566 29.746,204.154 28.612,204.154 Z M37.278,204.14 C36.214,204.14 35.08,203.762 34.142,203.034 L34.898,201.886 C35.696,202.488 36.55,202.796 37.32,202.796 C38.048,202.796 38.468,202.488 38.468,201.998 L38.468,201.97 C38.468,201.41 37.684,201.2 36.816,200.934 C35.738,200.64 34.506,200.178 34.506,198.764 L34.506,198.736 C34.506,197.336 35.668,196.482 37.138,196.482 C38.076,196.482 39.07,196.804 39.854,197.322 L39.182,198.526 C38.468,198.092 37.712,197.826 37.096,197.826 C36.438,197.826 36.06,198.134 36.06,198.568 L36.06,198.596 C36.06,199.1 36.872,199.366 37.726,199.632 C38.79,199.968 40.022,200.458 40.022,201.788 L40.022,201.816 C40.022,203.37 38.818,204.14 37.278,204.14 Z M41.744,204 L41.744,196.608 L43.438,196.608 L43.438,198.274 C43.9,197.154 44.754,196.412 46.056,196.468 L46.056,198.26 L45.958,198.26 C44.46,198.26 43.438,199.226 43.438,201.186 L43.438,204 L41.744,204 Z M46.112,205.792 L52.44,192.828 L53.91,192.828 L47.582,205.792 L46.112,205.792 Z" id="usr/" fill="#4A4A4A"></path>
                <path d="M45.872,226.684 C47.034,226.684 47.986,225.774 47.986,224.318 L47.986,224.29 C47.986,222.862 47.034,221.924 45.872,221.924 C44.71,221.924 43.716,222.876 43.716,224.29 L43.716,224.318 C43.716,225.746 44.71,226.684 45.872,226.684 Z M46.264,228.154 C45.046,228.154 44.276,227.538 43.758,226.852 L43.758,228 L42.064,228 L42.064,217.78 L43.758,217.78 L43.758,221.84 C44.304,221.056 45.074,220.454 46.264,220.454 C48,220.454 49.708,221.826 49.708,224.29 L49.708,224.318 C49.708,226.782 48.028,228.154 46.264,228.154 Z M51.542,228 L51.542,220.608 L53.236,220.608 L53.236,228 L51.542,228 Z M51.472,219.474 L51.472,217.864 L53.292,217.864 L53.292,219.474 L51.472,219.474 Z M55.448,228 L55.448,220.608 L57.142,220.608 L57.142,221.756 C57.618,221.056 58.304,220.454 59.452,220.454 C61.132,220.454 62.084,221.56 62.084,223.296 L62.084,228 L60.39,228 L60.39,223.8 C60.39,222.638 59.816,221.994 58.808,221.994 C57.814,221.994 57.142,222.666 57.142,223.828 L57.142,228 L55.448,228 Z M62.714,229.792 L69.042,216.828 L70.512,216.828 L64.184,229.792 L62.714,229.792 Z" id="bin/" fill="#4A4A4A"></path>
                <path d="M59.064,249 L59.064,241.608 L60.758,241.608 L60.758,242.728 C61.234,242.07 61.878,241.454 63.012,241.454 C64.076,241.454 64.818,241.972 65.21,242.756 C65.812,241.972 66.596,241.454 67.716,241.454 C69.34,241.454 70.306,242.476 70.306,244.282 L70.306,249 L68.612,249 L68.612,244.8 C68.612,243.624 68.066,242.994 67.114,242.994 C66.176,242.994 65.532,243.638 65.532,244.828 L65.532,249 L63.838,249 L63.838,244.786 C63.838,243.624 63.292,242.994 62.34,242.994 C61.388,242.994 60.758,243.68 60.758,244.842 L60.758,249 L59.064,249 Z M76.928,246.326 L76.928,245.906 C76.494,245.738 75.892,245.612 75.234,245.612 C74.17,245.612 73.54,246.046 73.54,246.76 L73.54,246.788 C73.54,247.502 74.17,247.88 74.968,247.88 C76.088,247.88 76.928,247.264 76.928,246.326 Z M78.566,249 L76.886,249 L76.886,248.09 C76.382,248.692 75.612,249.154 74.492,249.154 C73.092,249.154 71.86,248.37 71.86,246.872 L71.86,246.844 C71.86,245.206 73.12,244.422 74.856,244.422 C75.752,244.422 76.326,244.548 76.9,244.73 L76.9,244.59 C76.9,243.568 76.256,243.008 75.08,243.008 C74.24,243.008 73.638,243.19 72.966,243.47 L72.504,242.112 C73.33,241.734 74.1,241.496 75.318,241.496 C77.516,241.496 78.566,242.644 78.566,244.618 L78.566,249 Z M80.582,249 L80.582,241.608 L82.276,241.608 L82.276,243.274 C82.738,242.154 83.592,241.412 84.894,241.468 L84.894,243.26 L84.796,243.26 C83.298,243.26 82.276,244.226 82.276,246.186 L82.276,249 L80.582,249 Z M86.462,249 L86.462,241.608 L88.156,241.608 L88.156,249 L86.462,249 Z M86.392,240.474 L86.392,238.864 L88.212,238.864 L88.212,240.474 L86.392,240.474 Z M94.932,246.326 L94.932,245.906 C94.498,245.738 93.896,245.612 93.238,245.612 C92.174,245.612 91.544,246.046 91.544,246.76 L91.544,246.788 C91.544,247.502 92.174,247.88 92.972,247.88 C94.092,247.88 94.932,247.264 94.932,246.326 Z M96.57,249 L94.89,249 L94.89,248.09 C94.386,248.692 93.616,249.154 92.496,249.154 C91.096,249.154 89.864,248.37 89.864,246.872 L89.864,246.844 C89.864,245.206 91.124,244.422 92.86,244.422 C93.756,244.422 94.33,244.548 94.904,244.73 L94.904,244.59 C94.904,243.568 94.26,243.008 93.084,243.008 C92.244,243.008 91.642,243.19 90.97,243.47 L90.508,242.112 C91.334,241.734 92.104,241.496 93.322,241.496 C95.52,241.496 96.57,242.644 96.57,244.618 L96.57,249 Z M102.044,247.684 C103.178,247.684 104.186,246.732 104.186,245.318 L104.186,245.29 C104.186,243.862 103.178,242.924 102.044,242.924 C100.882,242.924 99.916,243.82 99.916,245.29 L99.916,245.318 C99.916,246.746 100.882,247.684 102.044,247.684 Z M101.638,249.154 C99.902,249.154 98.208,247.782 98.208,245.318 L98.208,245.29 C98.208,242.826 99.874,241.454 101.638,241.454 C102.856,241.454 103.612,242.07 104.158,242.756 L104.158,238.78 L105.852,238.78 L105.852,249 L104.158,249 L104.158,247.768 C103.612,248.538 102.828,249.154 101.638,249.154 Z M111.774,247.684 C112.936,247.684 113.888,246.774 113.888,245.318 L113.888,245.29 C113.888,243.862 112.936,242.924 111.774,242.924 C110.612,242.924 109.618,243.876 109.618,245.29 L109.618,245.318 C109.618,246.746 110.612,247.684 111.774,247.684 Z M112.166,249.154 C110.948,249.154 110.178,248.538 109.66,247.852 L109.66,249 L107.966,249 L107.966,238.78 L109.66,238.78 L109.66,242.84 C110.206,242.056 110.976,241.454 112.166,241.454 C113.902,241.454 115.61,242.826 115.61,245.29 L115.61,245.318 C115.61,247.782 113.93,249.154 112.166,249.154 Z" id="mariadb" fill="#4A4A4A"></path>
                <polygon id="/" fill="#4A4A4A" points="11.074 21.536 16.498 10.424 17.758 10.424 12.334 21.536"></polygon>
            </g>
            <g id="PLUS" transform="translate(123.000000, 119.000000)">
                <g id="Oval-2">
                    <use fill="black" fill-opacity="1" filter="url(#filter-10)" xlink:href="#path-9"></use>
                    <use fill="#4A4A4A" fill-rule="evenodd" xlink:href="#path-9"></use>
                </g>
                <text id="+" font-family="Gotham-Book, Gotham" font-size="14" font-weight="300" fill="#FFFFFF">
                    <tspan x="4" y="11.5">+</tspan>
                </text>
            </g>
            <g id="PLUS" transform="translate(233.000000, 119.000000)">
                <g id="Oval-2">
                    <use fill="black" fill-opacity="1" filter="url(#filter-12)" xlink:href="#path-11"></use>
                    <use fill="#4A4A4A" fill-rule="evenodd" xlink:href="#path-11"></use>
                </g>
                <text id="+" font-family="Gotham-Book, Gotham" font-size="14" font-weight="300" fill="#FFFFFF">
                    <tspan x="4" y="11.5">+</tspan>
                </text>
            </g>
            <g id="PLUS" transform="translate(339.000000, 119.000000)">
                <g id="Oval-2">
                    <use fill="black" fill-opacity="1" filter="url(#filter-14)" xlink:href="#path-13"></use>
                    <use fill="#4A4A4A" fill-rule="evenodd" xlink:href="#path-13"></use>
                </g>
                <text id="+" font-family="Gotham-Book, Gotham" font-size="14" font-weight="300" fill="#FFFFFF">
                    <tspan x="4" y="11.5">=</tspan>
                </text>
            </g>
        </g>
    </g>
</svg>