<?xml version="1.0" encoding="UTF-8"?>
<svg width="608px" height="205px" viewBox="0 0 608 205" version="1.1" xmlns="http://www.w3.org/2000/svg" xmlns:xlink="http://www.w3.org/1999/xlink">
    <!-- Generator: Sketch 48.2 (47327) - http://www.bohemiancoding.com/sketch -->
    <title>platformsh legos</title>
    <desc>Created with Sketch.</desc>
    <defs></defs>
    <g id="Page-1" stroke="none" stroke-width="1" fill="none" fill-rule="evenodd">
        <g id="platformsh-legos">
            <g id="Group-2" transform="translate(225.000000, 48.000000)">
                <path d="M77.5894737,46.6909091 L81,46.6909091 L81,86 L0,86 L0,46.6909091 L3.41052632,46.6909091 L3.41052632,40 C3.41052632,39.4477153 3.85824157,39 4.41052632,39 L16.0526316,39 C16.6049163,39 17.0526316,39.4477153 17.0526316,40 L17.0526316,46.6909091 L23.5894737,46.6909091 L23.5894737,40 C23.5894737,39.4477153 24.0371889,39 24.5894737,39 L36.2315789,39 C36.7838637,39 37.2315789,39.4477153 37.2315789,40 L37.2315789,46.6909091 L43.7684211,46.6909091 L43.7684211,40 C43.7684211,39.4477153 44.2161363,39 44.7684211,39 L56.4105263,39 C56.9628111,39 57.4105263,39.4477153 57.4105263,40 L57.4105263,46.6909091 L63.9473684,46.6909091 L63.9473684,40 C63.9473684,39.4477153 64.3950837,39 64.9473684,39 L76.5894737,39 C77.1417584,39 77.5894737,39.4477153 77.5894737,40 L77.5894737,46.6909091 Z" id="Combined-Shape" fill="#00C89C"></path>
                <path d="M158.589474,46.6909091 L162,46.6909091 L162,86 L81,86 L81,46.6909091 L84.4105263,46.6909091 L84.4105263,40 C84.4105263,39.4477153 84.8582416,39 85.4105263,39 L97.0526316,39 C97.6049163,39 98.0526316,39.4477153 98.0526316,40 L98.0526316,46.6909091 L104.589474,46.6909091 L104.589474,40 C104.589474,39.4477153 105.037189,39 105.589474,39 L117.231579,39 C117.783864,39 118.231579,39.4477153 118.231579,40 L118.231579,46.6909091 L124.768421,46.6909091 L124.768421,40 C124.768421,39.4477153 125.216136,39 125.768421,39 L137.410526,39 C137.962811,39 138.410526,39.4477153 138.410526,40 L138.410526,46.6909091 L144.947368,46.6909091 L144.947368,40 C144.947368,39.4477153 145.395084,39 145.947368,39 L157.589474,39 C158.141758,39 158.589474,39.4477153 158.589474,40 L158.589474,46.6909091 Z" id="Combined-Shape" fill="#FD716A"></path>
                <path d="M118.589474,7.69090909 L122,7.69090909 L122,47 L41,47 L41,7.69090909 L44.4105263,7.69090909 L44.4105263,1 C44.4105263,0.44771525 44.8582416,1.01453063e-16 45.4105263,0 L57.0526316,0 C57.6049163,-1.08250786e-15 58.0526316,0.44771525 58.0526316,1 L58.0526316,7.69090909 L64.5894737,7.69090909 L64.5894737,1 C64.5894737,0.44771525 65.0371889,1.01453063e-16 65.5894737,0 L77.2315789,0 C77.7838637,-1.01453063e-16 78.2315789,0.44771525 78.2315789,1 L78.2315789,7.69090909 L84.7684211,7.69090909 L84.7684211,1 C84.7684211,0.44771525 85.2161363,1.01453063e-16 85.7684211,0 L97.4105263,0 C97.9628111,-1.01453063e-16 98.4105263,0.44771525 98.4105263,1 L98.4105263,7.69090909 L104.947368,7.69090909 L104.947368,1 C104.947368,0.44771525 105.395084,1.01453063e-16 105.947368,0 L117.589474,0 C118.141758,-1.01453063e-16 118.589474,0.44771525 118.589474,1 L118.589474,7.69090909 Z" id="Combined-Shape" fill="#4786FF"></path>
                <path d="M45.2835,21.992 L46.5255,21.992 C47.8485,21.992 48.7125,21.101 48.7125,19.868 L48.7125,19.85 C48.7125,18.617 47.8485,17.708 46.5255,17.708 L45.2835,17.708 L45.2835,21.992 Z M44.1765,23 L44.1765,16.7 L46.5255,16.7 C48.5055,16.7 49.8735,18.059 49.8735,19.832 L49.8735,19.85 C49.8735,21.623 48.5055,23 46.5255,23 L44.1765,23 Z M51.9075,20.291 L54.3465,20.291 C54.2745,19.598 53.8605,19.04 53.1405,19.04 C52.4655,19.04 52.0065,19.544 51.9075,20.291 Z M53.2665,23.108 C51.8985,23.108 50.8275,22.109 50.8275,20.642 L50.8275,20.624 C50.8275,19.256 51.7905,18.149 53.1495,18.149 C54.6615,18.149 55.4265,19.337 55.4265,20.705 C55.4265,20.804 55.4175,20.903 55.4085,21.011 L51.9165,21.011 C52.0335,21.794 52.5735,22.217 53.2845,22.217 C53.8245,22.217 54.1845,22.019 54.5715,21.65 L55.2105,22.217 C54.7515,22.757 54.1395,23.108 53.2665,23.108 Z M58.9725,22.154 C59.7195,22.154 60.3315,21.569 60.3315,20.633 L60.3315,20.615 C60.3315,19.697 59.7195,19.094 58.9725,19.094 C58.2255,19.094 57.5865,19.706 57.5865,20.615 L57.5865,20.633 C57.5865,21.551 58.2255,22.154 58.9725,22.154 Z M59.2245,23.099 C58.4415,23.099 57.9465,22.703 57.6135,22.262 L57.6135,23 L56.5245,23 L56.5245,16.43 L57.6135,16.43 L57.6135,19.04 C57.9645,18.536 58.4595,18.149 59.2245,18.149 C60.3405,18.149 61.4385,19.031 61.4385,20.615 L61.4385,20.633 C61.4385,22.217 60.3585,23.099 59.2245,23.099 Z M62.6175,23 L62.6175,18.248 L63.7065,18.248 L63.7065,23 L62.6175,23 Z M62.5725,17.519 L62.5725,16.484 L63.7425,16.484 L63.7425,17.519 L62.5725,17.519 Z M68.0625,21.281 L68.0625,21.011 C67.7835,20.903 67.3965,20.822 66.9735,20.822 C66.2895,20.822 65.8845,21.101 65.8845,21.56 L65.8845,21.578 C65.8845,22.037 66.2895,22.28 66.8025,22.28 C67.5225,22.28 68.0625,21.884 68.0625,21.281 Z M69.1155,23 L68.0355,23 L68.0355,22.415 C67.7115,22.802 67.2165,23.099 66.4965,23.099 C65.5965,23.099 64.8045,22.595 64.8045,21.632 L64.8045,21.614 C64.8045,20.561 65.6145,20.057 66.7305,20.057 C67.3065,20.057 67.6755,20.138 68.0445,20.255 L68.0445,20.165 C68.0445,19.508 67.6305,19.148 66.8745,19.148 C66.3345,19.148 65.9475,19.265 65.5155,19.445 L65.2185,18.572 C65.7495,18.329 66.2445,18.176 67.0275,18.176 C68.4405,18.176 69.1155,18.914 69.1155,20.183 L69.1155,23 Z M70.4115,23 L70.4115,18.248 L71.5005,18.248 L71.5005,18.986 C71.8065,18.536 72.2475,18.149 72.9855,18.149 C74.0655,18.149 74.6775,18.86 74.6775,19.976 L74.6775,23 L73.5885,23 L73.5885,20.3 C73.5885,19.553 73.2195,19.139 72.5715,19.139 C71.9325,19.139 71.5005,19.571 71.5005,20.318 L71.5005,23 L70.4115,23 Z M75.7305,24.305 L75.6135,23.846 C76.1625,23.738 76.4235,23.459 76.3785,23 L75.9195,23 L75.9195,21.767 L77.1165,21.767 L77.1165,22.811 C77.1165,23.819 76.6395,24.233 75.7305,24.305 Z M81.2385,23 L81.2385,16.7 L82.4175,16.7 L84.3345,19.679 L86.2515,16.7 L87.4305,16.7 L87.4305,23 L86.3235,23 L86.3235,18.482 L84.3345,21.452 L84.2985,21.452 L82.3275,18.5 L82.3275,23 L81.2385,23 Z M91.8585,21.281 L91.8585,21.011 C91.5795,20.903 91.1925,20.822 90.7695,20.822 C90.0855,20.822 89.6805,21.101 89.6805,21.56 L89.6805,21.578 C89.6805,22.037 90.0855,22.28 90.5985,22.28 C91.3185,22.28 91.8585,21.884 91.8585,21.281 Z M92.9115,23 L91.8315,23 L91.8315,22.415 C91.5075,22.802 91.0125,23.099 90.2925,23.099 C89.3925,23.099 88.6005,22.595 88.6005,21.632 L88.6005,21.614 C88.6005,20.561 89.4105,20.057 90.5265,20.057 C91.1025,20.057 91.4715,20.138 91.8405,20.255 L91.8405,20.165 C91.8405,19.508 91.4265,19.148 90.6705,19.148 C90.1305,19.148 89.7435,19.265 89.3115,19.445 L89.0145,18.572 C89.5455,18.329 90.0405,18.176 90.8235,18.176 C92.2365,18.176 92.9115,18.914 92.9115,20.183 L92.9115,23 Z M94.2075,23 L94.2075,18.248 L95.2965,18.248 L95.2965,19.319 C95.5935,18.599 96.1425,18.122 96.9795,18.158 L96.9795,19.31 L96.9165,19.31 C95.9535,19.31 95.2965,19.931 95.2965,21.191 L95.2965,23 L94.2075,23 Z M97.9875,23 L97.9875,18.248 L99.0765,18.248 L99.0765,23 L97.9875,23 Z M97.9425,17.519 L97.9425,16.484 L99.1125,16.484 L99.1125,17.519 L97.9425,17.519 Z M103.4325,21.281 L103.4325,21.011 C103.1535,20.903 102.7665,20.822 102.3435,20.822 C101.6595,20.822 101.2545,21.101 101.2545,21.56 L101.2545,21.578 C101.2545,22.037 101.6595,22.28 102.1725,22.28 C102.8925,22.28 103.4325,21.884 103.4325,21.281 Z M104.4855,23 L103.4055,23 L103.4055,22.415 C103.0815,22.802 102.5865,23.099 101.8665,23.099 C100.9665,23.099 100.1745,22.595 100.1745,21.632 L100.1745,21.614 C100.1745,20.561 100.9845,20.057 102.1005,20.057 C102.6765,20.057 103.0455,20.138 103.4145,20.255 L103.4145,20.165 C103.4145,19.508 103.0005,19.148 102.2445,19.148 C101.7045,19.148 101.3175,19.265 100.8855,19.445 L100.5885,18.572 C101.1195,18.329 101.6145,18.176 102.3975,18.176 C103.8105,18.176 104.4855,18.914 104.4855,20.183 L104.4855,23 Z M107.0145,21.992 L108.2565,21.992 C109.5795,21.992 110.4435,21.101 110.4435,19.868 L110.4435,19.85 C110.4435,18.617 109.5795,17.708 108.2565,17.708 L107.0145,17.708 L107.0145,21.992 Z M105.9075,23 L105.9075,16.7 L108.2565,16.7 C110.2365,16.7 111.6045,18.059 111.6045,19.832 L111.6045,19.85 C111.6045,21.623 110.2365,23 108.2565,23 L105.9075,23 Z M114.0345,22.019 L115.8705,22.019 C116.6265,22.019 117.0855,21.731 117.0855,21.155 L117.0855,21.137 C117.0855,20.597 116.6625,20.291 115.7895,20.291 L114.0345,20.291 L114.0345,22.019 Z M114.0345,19.355 L115.5465,19.355 C116.2665,19.355 116.7345,19.076 116.7345,18.5 L116.7345,18.482 C116.7345,17.978 116.3475,17.681 115.6275,17.681 L114.0345,17.681 L114.0345,19.355 Z M112.9455,23 L112.9455,16.7 L115.7715,16.7 C116.5005,16.7 117.0495,16.889 117.4185,17.258 C117.6975,17.537 117.8415,17.888 117.8415,18.302 L117.8415,18.32 C117.8415,19.085 117.4095,19.481 116.9415,19.724 C117.6885,19.985 118.1925,20.39 118.1925,21.254 L118.1925,21.272 C118.1925,22.397 117.2655,23 115.8615,23 L112.9455,23 Z" id="Debian,-MariaDB" fill="#FFFFFF"></path>
                <path d="M60.8985,36.54 L60.4215,37.269 C58.7745,36.369 57.9285,35.136 57.9285,33.417 C57.9285,31.698 58.7745,30.465 60.4215,29.565 L60.8985,30.294 C59.6205,31.14 59.0175,32.076 59.0175,33.417 C59.0175,34.758 59.6115,35.703 60.8985,36.54 Z M63.6345,36.09 C62.9505,36.09 62.2215,35.847 61.6185,35.379 L62.1045,34.641 C62.6175,35.028 63.1665,35.226 63.6615,35.226 C64.1295,35.226 64.3995,35.028 64.3995,34.713 L64.3995,34.695 C64.3995,34.335 63.8955,34.2 63.3375,34.029 C62.6445,33.84 61.8525,33.543 61.8525,32.634 L61.8525,32.616 C61.8525,31.716 62.5995,31.167 63.5445,31.167 C64.1475,31.167 64.7865,31.374 65.2905,31.707 L64.8585,32.481 C64.3995,32.202 63.9135,32.031 63.5175,32.031 C63.0945,32.031 62.8515,32.229 62.8515,32.508 L62.8515,32.526 C62.8515,32.85 63.3735,33.021 63.9225,33.192 C64.6065,33.408 65.3985,33.723 65.3985,34.578 L65.3985,34.596 C65.3985,35.595 64.6245,36.09 63.6345,36.09 Z M68.7285,35.154 C69.4575,35.154 70.1055,34.542 70.1055,33.633 L70.1055,33.615 C70.1055,32.697 69.4575,32.094 68.7285,32.094 C67.9815,32.094 67.3605,32.67 67.3605,33.615 L67.3605,33.633 C67.3605,34.551 67.9815,35.154 68.7285,35.154 Z M70.0875,37.44 L70.0875,35.208 C69.7365,35.703 69.2325,36.099 68.4675,36.099 C67.3515,36.099 66.2625,35.217 66.2625,33.633 L66.2625,33.615 C66.2625,32.031 67.3335,31.149 68.4675,31.149 C69.2505,31.149 69.7365,31.545 70.0875,31.986 L70.0875,31.248 L71.1765,31.248 L71.1765,37.44 L70.0875,37.44 Z M74.1735,36.099 C73.0935,36.099 72.4815,35.388 72.4815,34.272 L72.4815,31.248 L73.5705,31.248 L73.5705,33.948 C73.5705,34.695 73.9395,35.109 74.5875,35.109 C75.2265,35.109 75.6585,34.677 75.6585,33.93 L75.6585,31.248 L76.7475,31.248 L76.7475,36 L75.6585,36 L75.6585,35.262 C75.3435,35.721 74.9025,36.099 74.1735,36.099 Z M81.0495,34.281 L81.0495,34.011 C80.7705,33.903 80.3835,33.822 79.9605,33.822 C79.2765,33.822 78.8715,34.101 78.8715,34.56 L78.8715,34.578 C78.8715,35.037 79.2765,35.28 79.7895,35.28 C80.5095,35.28 81.0495,34.884 81.0495,34.281 Z M82.1025,36 L81.0225,36 L81.0225,35.415 C80.6985,35.802 80.2035,36.099 79.4835,36.099 C78.5835,36.099 77.7915,35.595 77.7915,34.632 L77.7915,34.614 C77.7915,33.561 78.6015,33.057 79.7175,33.057 C80.2935,33.057 80.6625,33.138 81.0315,33.255 L81.0315,33.165 C81.0315,32.508 80.6175,32.148 79.8615,32.148 C79.3215,32.148 78.9345,32.265 78.5025,32.445 L78.2055,31.572 C78.7365,31.329 79.2315,31.176 80.0145,31.176 C81.4275,31.176 82.1025,31.914 82.1025,33.183 L82.1025,36 Z M85.0275,36.09 C84.3435,36.09 83.6145,35.847 83.0115,35.379 L83.4975,34.641 C84.0105,35.028 84.5595,35.226 85.0545,35.226 C85.5225,35.226 85.7925,35.028 85.7925,34.713 L85.7925,34.695 C85.7925,34.335 85.2885,34.2 84.7305,34.029 C84.0375,33.84 83.2455,33.543 83.2455,32.634 L83.2455,32.616 C83.2455,31.716 83.9925,31.167 84.9375,31.167 C85.5405,31.167 86.1795,31.374 86.6835,31.707 L86.2515,32.481 C85.7925,32.202 85.3065,32.031 84.9105,32.031 C84.4875,32.031 84.2445,32.229 84.2445,32.508 L84.2445,32.526 C84.2445,32.85 84.7665,33.021 85.3155,33.192 C85.9995,33.408 86.7915,33.723 86.7915,34.578 L86.7915,34.596 C86.7915,35.595 86.0175,36.09 85.0275,36.09 Z M87.8985,36 L87.8985,29.43 L88.9875,29.43 L88.9875,31.986 C89.2935,31.536 89.7345,31.149 90.4725,31.149 C91.5525,31.149 92.1645,31.86 92.1645,32.976 L92.1645,36 L91.0755,36 L91.0755,33.3 C91.0755,32.553 90.7065,32.139 90.0585,32.139 C89.4195,32.139 88.9875,32.571 88.9875,33.318 L88.9875,36 L87.8985,36 Z M93.7215,36 L93.7215,32.184 L93.1185,32.184 L93.1185,31.275 L93.7215,31.275 L93.7215,30.933 C93.7215,30.402 93.8475,30.015 94.1085,29.754 C94.3605,29.502 94.7205,29.376 95.1795,29.376 C95.5665,29.376 95.8185,29.43 96.0615,29.502 L96.0615,30.42 C95.8455,30.348 95.6655,30.303 95.4225,30.303 C94.9995,30.303 94.7925,30.546 94.7925,31.023 L94.7925,31.284 L96.0525,31.284 L96.0525,32.184 L94.8105,32.184 L94.8105,36 L93.7215,36 Z M98.4915,36.09 C97.8075,36.09 97.0785,35.847 96.4755,35.379 L96.9615,34.641 C97.4745,35.028 98.0235,35.226 98.5185,35.226 C98.9865,35.226 99.2565,35.028 99.2565,34.713 L99.2565,34.695 C99.2565,34.335 98.7525,34.2 98.1945,34.029 C97.5015,33.84 96.7095,33.543 96.7095,32.634 L96.7095,32.616 C96.7095,31.716 97.4565,31.167 98.4015,31.167 C99.0045,31.167 99.6435,31.374 100.1475,31.707 L99.7155,32.481 C99.2565,32.202 98.7705,32.031 98.3745,32.031 C97.9515,32.031 97.7085,32.229 97.7085,32.508 L97.7085,32.526 C97.7085,32.85 98.2305,33.021 98.7795,33.192 C99.4635,33.408 100.2555,33.723 100.2555,34.578 L100.2555,34.596 C100.2555,35.595 99.4815,36.09 98.4915,36.09 Z M101.5875,37.269 L101.1105,36.54 C102.3885,35.694 102.9915,34.758 102.9915,33.417 C102.9915,32.076 102.3795,31.149 101.1105,30.294 L101.5875,29.565 C103.2165,30.465 104.0805,31.716 104.0805,33.417 C104.0805,35.118 103.2165,36.369 101.5875,37.269 Z" id="(squashfs)" fill="#FFFFFF"></path>
                <path d="M110.992,66.152 L115.06,57.818 L116.005,57.818 L111.937,66.152 L110.992,66.152 Z M116.59,65 L116.59,60.248 L117.679,60.248 L117.679,61.319 C117.976,60.599 118.525,60.122 119.362,60.158 L119.362,61.31 L119.299,61.31 C118.336,61.31 117.679,61.931 117.679,63.191 L117.679,65 L116.59,65 Z M121.945,65.099 C120.865,65.099 120.253,64.388 120.253,63.272 L120.253,60.248 L121.342,60.248 L121.342,62.948 C121.342,63.695 121.711,64.109 122.359,64.109 C122.998,64.109 123.43,63.677 123.43,62.93 L123.43,60.248 L124.519,60.248 L124.519,65 L123.43,65 L123.43,64.262 C123.115,64.721 122.674,65.099 121.945,65.099 Z M125.887,65 L125.887,60.248 L126.976,60.248 L126.976,60.986 C127.282,60.536 127.723,60.149 128.461,60.149 C129.541,60.149 130.153,60.86 130.153,61.976 L130.153,65 L129.064,65 L129.064,62.3 C129.064,61.553 128.695,61.139 128.047,61.139 C127.408,61.139 126.976,61.571 126.976,62.318 L126.976,65 L125.887,65 Z" id="/run" fill="#FFFFFF"></path>
                <path d="M102.631,78.54 L102.154,79.269 C100.507,78.369 99.661,77.136 99.661,75.417 C99.661,73.698 100.507,72.465 102.154,71.565 L102.631,72.294 C101.353,73.14 100.75,74.076 100.75,75.417 C100.75,76.758 101.344,77.703 102.631,78.54 Z M103.738,78 L103.738,73.248 L104.827,73.248 L104.827,74.319 C105.124,73.599 105.673,73.122 106.51,73.158 L106.51,74.31 L106.447,74.31 C105.484,74.31 104.827,74.931 104.827,76.191 L104.827,78 L103.738,78 Z M110.389,76.281 L110.389,76.011 C110.11,75.903 109.723,75.822 109.3,75.822 C108.616,75.822 108.211,76.101 108.211,76.56 L108.211,76.578 C108.211,77.037 108.616,77.28 109.129,77.28 C109.849,77.28 110.389,76.884 110.389,76.281 Z M111.442,78 L110.362,78 L110.362,77.415 C110.038,77.802 109.543,78.099 108.823,78.099 C107.923,78.099 107.131,77.595 107.131,76.632 L107.131,76.614 C107.131,75.561 107.941,75.057 109.057,75.057 C109.633,75.057 110.002,75.138 110.371,75.255 L110.371,75.165 C110.371,74.508 109.957,74.148 109.201,74.148 C108.661,74.148 108.274,74.265 107.842,74.445 L107.545,73.572 C108.076,73.329 108.571,73.176 109.354,73.176 C110.767,73.176 111.442,73.914 111.442,75.183 L111.442,78 Z M112.738,78 L112.738,73.248 L113.827,73.248 L113.827,73.968 C114.133,73.545 114.547,73.149 115.276,73.149 C115.96,73.149 116.437,73.482 116.689,73.986 C117.076,73.482 117.58,73.149 118.3,73.149 C119.344,73.149 119.965,73.806 119.965,74.967 L119.965,78 L118.876,78 L118.876,75.3 C118.876,74.544 118.525,74.139 117.913,74.139 C117.31,74.139 116.896,74.553 116.896,75.318 L116.896,78 L115.807,78 L115.807,75.291 C115.807,74.544 115.456,74.139 114.844,74.139 C114.232,74.139 113.827,74.58 113.827,75.327 L113.827,78 L112.738,78 Z M123.511,77.154 C124.24,77.154 124.888,76.542 124.888,75.633 L124.888,75.615 C124.888,74.697 124.24,74.094 123.511,74.094 C122.764,74.094 122.143,74.67 122.143,75.615 L122.143,75.633 C122.143,76.551 122.764,77.154 123.511,77.154 Z M123.25,78.099 C122.134,78.099 121.045,77.217 121.045,75.633 L121.045,75.615 C121.045,74.031 122.116,73.149 123.25,73.149 C124.033,73.149 124.519,73.545 124.87,73.986 L124.87,71.43 L125.959,71.43 L125.959,78 L124.87,78 L124.87,77.208 C124.519,77.703 124.015,78.099 123.25,78.099 Z M127.381,78 L127.381,73.248 L128.47,73.248 L128.47,78 L127.381,78 Z M127.336,72.519 L127.336,71.484 L128.506,71.484 L128.506,72.519 L127.336,72.519 Z M131.521,78.09 C130.837,78.09 130.108,77.847 129.505,77.379 L129.991,76.641 C130.504,77.028 131.053,77.226 131.548,77.226 C132.016,77.226 132.286,77.028 132.286,76.713 L132.286,76.695 C132.286,76.335 131.782,76.2 131.224,76.029 C130.531,75.84 129.739,75.543 129.739,74.634 L129.739,74.616 C129.739,73.716 130.486,73.167 131.431,73.167 C132.034,73.167 132.673,73.374 133.177,73.707 L132.745,74.481 C132.286,74.202 131.8,74.031 131.404,74.031 C130.981,74.031 130.738,74.229 130.738,74.508 L130.738,74.526 C130.738,74.85 131.26,75.021 131.809,75.192 C132.493,75.408 133.285,75.723 133.285,76.578 L133.285,76.596 C133.285,77.595 132.511,78.09 131.521,78.09 Z M134.392,78 L134.392,71.43 L135.481,71.43 L135.481,75.354 L137.452,73.248 L138.775,73.248 L136.885,75.183 L138.838,78 L137.578,78 L136.147,75.948 L135.481,76.641 L135.481,78 L134.392,78 Z M139.855,79.269 L139.378,78.54 C140.656,77.694 141.259,76.758 141.259,75.417 C141.259,74.076 140.647,73.149 139.378,72.294 L139.855,71.565 C141.484,72.465 142.348,73.716 142.348,75.417 C142.348,77.118 141.484,78.369 139.855,79.269 Z" id="(ramdisk)" fill="#FFFFFF"></path>
                <path d="M17.5595,64 L17.5595,57.7 L22.2485,57.7 L22.2485,58.708 L18.6665,58.708 L18.6665,60.427 L21.8435,60.427 L21.8435,61.435 L18.6665,61.435 L18.6665,64 L17.5595,64 Z M23.4005,64 L23.4005,59.248 L24.4895,59.248 L24.4895,64 L23.4005,64 Z M23.3555,58.519 L23.3555,57.484 L24.5255,57.484 L24.5255,58.519 L23.3555,58.519 Z M25.9745,64 L25.9745,57.43 L27.0635,57.43 L27.0635,64 L25.9745,64 Z M29.3045,61.291 L31.7435,61.291 C31.6715,60.598 31.2575,60.04 30.5375,60.04 C29.8625,60.04 29.4035,60.544 29.3045,61.291 Z M30.6635,64.108 C29.2955,64.108 28.2245,63.109 28.2245,61.642 L28.2245,61.624 C28.2245,60.256 29.1875,59.149 30.5465,59.149 C32.0585,59.149 32.8235,60.337 32.8235,61.705 C32.8235,61.804 32.8145,61.903 32.8055,62.011 L29.3135,62.011 C29.4305,62.794 29.9705,63.217 30.6815,63.217 C31.2215,63.217 31.5815,63.019 31.9685,62.65 L32.6075,63.217 C32.1485,63.757 31.5365,64.108 30.6635,64.108 Z M36.6215,64 L36.6215,59.248 L37.7105,59.248 L37.7105,59.968 C38.0165,59.545 38.4305,59.149 39.1595,59.149 C39.8435,59.149 40.3205,59.482 40.5725,59.986 C40.9595,59.482 41.4635,59.149 42.1835,59.149 C43.2275,59.149 43.8485,59.806 43.8485,60.967 L43.8485,64 L42.7595,64 L42.7595,61.3 C42.7595,60.544 42.4085,60.139 41.7965,60.139 C41.1935,60.139 40.7795,60.553 40.7795,61.318 L40.7795,64 L39.6905,64 L39.6905,61.291 C39.6905,60.544 39.3395,60.139 38.7275,60.139 C38.1155,60.139 37.7105,60.58 37.7105,61.327 L37.7105,64 L36.6215,64 Z M47.4485,63.163 C48.3395,63.163 48.8885,62.47 48.8885,61.651 L48.8885,61.633 C48.8885,60.796 48.2855,60.103 47.4305,60.103 C46.5575,60.103 45.9995,60.787 45.9995,61.615 L45.9995,61.633 C45.9995,62.461 46.6115,63.163 47.4485,63.163 Z M47.4305,64.108 C45.9815,64.108 44.9105,63.001 44.9105,61.651 L44.9105,61.633 C44.9105,60.274 45.9905,59.149 47.4485,59.149 C48.9155,59.149 49.9775,60.256 49.9775,61.615 L49.9775,61.633 C49.9775,62.974 48.8975,64.108 47.4305,64.108 Z M52.7225,64.099 C51.6425,64.099 51.0305,63.388 51.0305,62.272 L51.0305,59.248 L52.1195,59.248 L52.1195,61.948 C52.1195,62.695 52.4885,63.109 53.1365,63.109 C53.7755,63.109 54.2075,62.677 54.2075,61.93 L54.2075,59.248 L55.2965,59.248 L55.2965,64 L54.2075,64 L54.2075,63.262 C53.8925,63.721 53.4515,64.099 52.7225,64.099 Z M56.6645,64 L56.6645,59.248 L57.7535,59.248 L57.7535,59.986 C58.0595,59.536 58.5005,59.149 59.2385,59.149 C60.3185,59.149 60.9305,59.86 60.9305,60.976 L60.9305,64 L59.8415,64 L59.8415,61.3 C59.8415,60.553 59.4725,60.139 58.8245,60.139 C58.1855,60.139 57.7535,60.571 57.7535,61.318 L57.7535,64 L56.6645,64 Z M63.8375,64.081 C63.0365,64.081 62.4695,63.73 62.4695,62.686 L62.4695,60.184 L61.8665,60.184 L61.8665,59.248 L62.4695,59.248 L62.4695,57.943 L63.5585,57.943 L63.5585,59.248 L64.8365,59.248 L64.8365,60.184 L63.5585,60.184 L63.5585,62.515 C63.5585,62.938 63.7745,63.109 64.1435,63.109 C64.3775,63.109 64.6025,63.055 64.8185,62.947 L64.8185,63.838 C64.5395,63.991 64.2425,64.081 63.8375,64.081 Z" id="File-mount" fill="#FFFFFF"></path>
                <path d="M27.932,76.54 L27.455,77.269 C25.808,76.369 24.962,75.136 24.962,73.417 C24.962,71.698 25.808,70.465 27.455,69.565 L27.932,70.294 C26.654,71.14 26.051,72.076 26.051,73.417 C26.051,74.758 26.645,75.703 27.932,76.54 Z M29.039,76 L29.039,71.248 L30.128,71.248 L30.128,71.986 C30.434,71.536 30.875,71.149 31.613,71.149 C32.693,71.149 33.305,71.86 33.305,72.976 L33.305,76 L32.216,76 L32.216,73.3 C32.216,72.553 31.847,72.139 31.199,72.139 C30.56,72.139 30.128,72.571 30.128,73.318 L30.128,76 L29.039,76 Z M35.438,73.291 L37.877,73.291 C37.805,72.598 37.391,72.04 36.671,72.04 C35.996,72.04 35.537,72.544 35.438,73.291 Z M36.797,76.108 C35.429,76.108 34.358,75.109 34.358,73.642 L34.358,73.624 C34.358,72.256 35.321,71.149 36.68,71.149 C38.192,71.149 38.957,72.337 38.957,73.705 C38.957,73.804 38.948,73.903 38.939,74.011 L35.447,74.011 C35.564,74.794 36.104,75.217 36.815,75.217 C37.355,75.217 37.715,75.019 38.102,74.65 L38.741,75.217 C38.282,75.757 37.67,76.108 36.797,76.108 Z M41.648,76.081 C40.847,76.081 40.28,75.73 40.28,74.686 L40.28,72.184 L39.677,72.184 L39.677,71.248 L40.28,71.248 L40.28,69.943 L41.369,69.943 L41.369,71.248 L42.647,71.248 L42.647,72.184 L41.369,72.184 L41.369,74.515 C41.369,74.938 41.585,75.109 41.954,75.109 C42.188,75.109 42.413,75.055 42.629,74.947 L42.629,75.838 C42.35,75.991 42.053,76.081 41.648,76.081 Z M46.688,76 L46.688,72.184 L46.085,72.184 L46.085,71.275 L46.688,71.275 L46.688,70.933 C46.688,70.402 46.814,70.015 47.075,69.754 C47.327,69.502 47.687,69.376 48.146,69.376 C48.533,69.376 48.785,69.43 49.028,69.502 L49.028,70.42 C48.812,70.348 48.632,70.303 48.389,70.303 C47.966,70.303 47.759,70.546 47.759,71.023 L47.759,71.284 L49.019,71.284 L49.019,72.184 L47.777,72.184 L47.777,76 L46.688,76 Z M51.458,76.09 C50.774,76.09 50.045,75.847 49.442,75.379 L49.928,74.641 C50.441,75.028 50.99,75.226 51.485,75.226 C51.953,75.226 52.223,75.028 52.223,74.713 L52.223,74.695 C52.223,74.335 51.719,74.2 51.161,74.029 C50.468,73.84 49.676,73.543 49.676,72.634 L49.676,72.616 C49.676,71.716 50.423,71.167 51.368,71.167 C51.971,71.167 52.61,71.374 53.114,71.707 L52.682,72.481 C52.223,72.202 51.737,72.031 51.341,72.031 C50.918,72.031 50.675,72.229 50.675,72.508 L50.675,72.526 C50.675,72.85 51.197,73.021 51.746,73.192 C52.43,73.408 53.222,73.723 53.222,74.578 L53.222,74.596 C53.222,75.595 52.448,76.09 51.458,76.09 Z M54.554,77.269 L54.077,76.54 C55.355,75.694 55.958,74.758 55.958,73.417 C55.958,72.076 55.346,71.149 54.077,70.294 L54.554,69.565 C56.183,70.465 57.047,71.716 57.047,73.417 C57.047,75.118 56.183,76.369 54.554,77.269 Z" id="(net-fs)" fill="#FFFFFF"></path>
            </g>
            <g id="Group-3" transform="translate(447.000000, 48.000000)">
                <path d="M120.505263,48.0181818 L124,48.0181818 L124,89 L41,89 L41,48.0181818 L44.4947368,48.0181818 L44.4947368,41 C44.4947368,40.4477153 44.9424521,40 45.4947368,40 L57.4736842,40 C58.025969,40 58.4736842,40.4477153 58.4736842,41 L58.4736842,48.0181818 L65.1719298,48.0181818 L65.1719298,41 C65.1719298,40.4477153 65.6196451,40 66.1719298,40 L78.1508772,40 C78.7031619,40 79.1508772,40.4477153 79.1508772,41 L79.1508772,48.0181818 L85.8491228,48.0181818 L85.8491228,41 C85.8491228,40.4477153 86.2968381,40 86.8491228,40 L98.8280702,40 C99.3803549,40 99.8280702,40.4477153 99.8280702,41 L99.8280702,48.0181818 L106.526316,48.0181818 L106.526316,41 C106.526316,40.4477153 106.974031,40 107.526316,40 L119.505263,40 C120.057548,40 120.505263,40.4477153 120.505263,41 L120.505263,48.0181818 Z" id="Combined-Shape" fill="#FD716A"></path>
                <path d="M79.5052632,8.01818182 L83,8.01818182 L83,49 L0,49 L0,8.01818182 L3.49473684,8.01818182 L3.49473684,1 C3.49473684,0.44771525 3.94245209,1.01453063e-16 4.49473684,0 L16.4736842,0 C17.025969,-1.08250786e-15 17.4736842,0.44771525 17.4736842,1 L17.4736842,8.01818182 L24.1719298,8.01818182 L24.1719298,1 C24.1719298,0.44771525 24.6196451,1.01453063e-16 25.1719298,0 L37.1508772,0 C37.7031619,-1.01453063e-16 38.1508772,0.44771525 38.1508772,1 L38.1508772,8.01818182 L44.8491228,8.01818182 L44.8491228,1 C44.8491228,0.44771525 45.2968381,1.01453063e-16 45.8491228,0 L57.8280702,0 C58.3803549,8.7960173e-16 58.8280702,0.44771525 58.8280702,1 L58.8280702,8.01818182 L65.5263158,8.01818182 L65.5263158,1 C65.5263158,0.44771525 65.974031,1.01453063e-16 66.5263158,0 L78.5052632,0 C79.0575479,-1.08250786e-15 79.5052632,0.44771525 79.5052632,1 L79.5052632,8.01818182 Z" id="Combined-Shape" fill="#4786FF"></path>
                <path d="M11.8625,21.992 L13.1045,21.992 C14.4275,21.992 15.2915,21.101 15.2915,19.868 L15.2915,19.85 C15.2915,18.617 14.4275,17.708 13.1045,17.708 L11.8625,17.708 L11.8625,21.992 Z M10.7555,23 L10.7555,16.7 L13.1045,16.7 C15.0845,16.7 16.4525,18.059 16.4525,19.832 L16.4525,19.85 C16.4525,21.623 15.0845,23 13.1045,23 L10.7555,23 Z M18.4865,20.291 L20.9255,20.291 C20.8535,19.598 20.4395,19.04 19.7195,19.04 C19.0445,19.04 18.5855,19.544 18.4865,20.291 Z M19.8455,23.108 C18.4775,23.108 17.4065,22.109 17.4065,20.642 L17.4065,20.624 C17.4065,19.256 18.3695,18.149 19.7285,18.149 C21.2405,18.149 22.0055,19.337 22.0055,20.705 C22.0055,20.804 21.9965,20.903 21.9875,21.011 L18.4955,21.011 C18.6125,21.794 19.1525,22.217 19.8635,22.217 C20.4035,22.217 20.7635,22.019 21.1505,21.65 L21.7895,22.217 C21.3305,22.757 20.7185,23.108 19.8455,23.108 Z M25.5515,22.154 C26.2985,22.154 26.9105,21.569 26.9105,20.633 L26.9105,20.615 C26.9105,19.697 26.2985,19.094 25.5515,19.094 C24.8045,19.094 24.1655,19.706 24.1655,20.615 L24.1655,20.633 C24.1655,21.551 24.8045,22.154 25.5515,22.154 Z M25.8035,23.099 C25.0205,23.099 24.5255,22.703 24.1925,22.262 L24.1925,23 L23.1035,23 L23.1035,16.43 L24.1925,16.43 L24.1925,19.04 C24.5435,18.536 25.0385,18.149 25.8035,18.149 C26.9195,18.149 28.0175,19.031 28.0175,20.615 L28.0175,20.633 C28.0175,22.217 26.9375,23.099 25.8035,23.099 Z M29.1965,23 L29.1965,18.248 L30.2855,18.248 L30.2855,23 L29.1965,23 Z M29.1515,17.519 L29.1515,16.484 L30.3215,16.484 L30.3215,17.519 L29.1515,17.519 Z M34.6415,21.281 L34.6415,21.011 C34.3625,20.903 33.9755,20.822 33.5525,20.822 C32.8685,20.822 32.4635,21.101 32.4635,21.56 L32.4635,21.578 C32.4635,22.037 32.8685,22.28 33.3815,22.28 C34.1015,22.28 34.6415,21.884 34.6415,21.281 Z M35.6945,23 L34.6145,23 L34.6145,22.415 C34.2905,22.802 33.7955,23.099 33.0755,23.099 C32.1755,23.099 31.3835,22.595 31.3835,21.632 L31.3835,21.614 C31.3835,20.561 32.1935,20.057 33.3095,20.057 C33.8855,20.057 34.2545,20.138 34.6235,20.255 L34.6235,20.165 C34.6235,19.508 34.2095,19.148 33.4535,19.148 C32.9135,19.148 32.5265,19.265 32.0945,19.445 L31.7975,18.572 C32.3285,18.329 32.8235,18.176 33.6065,18.176 C35.0195,18.176 35.6945,18.914 35.6945,20.183 L35.6945,23 Z M36.9905,23 L36.9905,18.248 L38.0795,18.248 L38.0795,18.986 C38.3855,18.536 38.8265,18.149 39.5645,18.149 C40.6445,18.149 41.2565,18.86 41.2565,19.976 L41.2565,23 L40.1675,23 L40.1675,20.3 C40.1675,19.553 39.7985,19.139 39.1505,19.139 C38.5115,19.139 38.0795,19.571 38.0795,20.318 L38.0795,23 L36.9905,23 Z M42.3095,24.305 L42.1925,23.846 C42.7415,23.738 43.0025,23.459 42.9575,23 L42.4985,23 L42.4985,21.767 L43.6955,21.767 L43.6955,22.811 C43.6955,23.819 43.2185,24.233 42.3095,24.305 Z M48.9245,19.823 L50.5445,19.823 C51.3365,19.823 51.8405,19.418 51.8405,18.77 L51.8405,18.752 C51.8405,18.068 51.3635,17.708 50.5355,17.708 L48.9245,17.708 L48.9245,19.823 Z M47.8175,23 L47.8175,16.7 L50.6255,16.7 C51.4175,16.7 52.0385,16.934 52.4435,17.33 C52.7765,17.681 52.9655,18.14 52.9655,18.689 L52.9655,18.707 C52.9655,19.733 52.3445,20.381 51.4625,20.615 L53.1635,23 L51.8585,23 L50.3105,20.804 L48.9245,20.804 L48.9245,23 L47.8175,23 Z M55.0175,20.291 L57.4565,20.291 C57.3845,19.598 56.9705,19.04 56.2505,19.04 C55.5755,19.04 55.1165,19.544 55.0175,20.291 Z M56.3765,23.108 C55.0085,23.108 53.9375,22.109 53.9375,20.642 L53.9375,20.624 C53.9375,19.256 54.9005,18.149 56.2595,18.149 C57.7715,18.149 58.5365,19.337 58.5365,20.705 C58.5365,20.804 58.5275,20.903 58.5185,21.011 L55.0265,21.011 C55.1435,21.794 55.6835,22.217 56.3945,22.217 C56.9345,22.217 57.2945,22.019 57.6815,21.65 L58.3205,22.217 C57.8615,22.757 57.2495,23.108 56.3765,23.108 Z M61.8575,22.154 C62.5865,22.154 63.2345,21.542 63.2345,20.633 L63.2345,20.615 C63.2345,19.697 62.5865,19.094 61.8575,19.094 C61.1105,19.094 60.4895,19.67 60.4895,20.615 L60.4895,20.633 C60.4895,21.551 61.1105,22.154 61.8575,22.154 Z M61.5965,23.099 C60.4805,23.099 59.3915,22.217 59.3915,20.633 L59.3915,20.615 C59.3915,19.031 60.4625,18.149 61.5965,18.149 C62.3795,18.149 62.8655,18.545 63.2165,18.986 L63.2165,16.43 L64.3055,16.43 L64.3055,23 L63.2165,23 L63.2165,22.208 C62.8655,22.703 62.3615,23.099 61.5965,23.099 Z M65.7275,23 L65.7275,18.248 L66.8165,18.248 L66.8165,23 L65.7275,23 Z M65.6825,17.519 L65.6825,16.484 L66.8525,16.484 L66.8525,17.519 L65.6825,17.519 Z M69.8675,23.09 C69.1835,23.09 68.4545,22.847 67.8515,22.379 L68.3375,21.641 C68.8505,22.028 69.3995,22.226 69.8945,22.226 C70.3625,22.226 70.6325,22.028 70.6325,21.713 L70.6325,21.695 C70.6325,21.335 70.1285,21.2 69.5705,21.029 C68.8775,20.84 68.0855,20.543 68.0855,19.634 L68.0855,19.616 C68.0855,18.716 68.8325,18.167 69.7775,18.167 C70.3805,18.167 71.0195,18.374 71.5235,18.707 L71.0915,19.481 C70.6325,19.202 70.1465,19.031 69.7505,19.031 C69.3275,19.031 69.0845,19.229 69.0845,19.508 L69.0845,19.526 C69.0845,19.85 69.6065,20.021 70.1555,20.192 C70.8395,20.408 71.6315,20.723 71.6315,21.578 L71.6315,21.596 C71.6315,22.595 70.8575,23.09 69.8675,23.09 Z" id="Debian,-Redis" fill="#FFFFFF"></path>
                <path d="M20.8985,36.54 L20.4215,37.269 C18.7745,36.369 17.9285,35.136 17.9285,33.417 C17.9285,31.698 18.7745,30.465 20.4215,29.565 L20.8985,30.294 C19.6205,31.14 19.0175,32.076 19.0175,33.417 C19.0175,34.758 19.6115,35.703 20.8985,36.54 Z M23.6345,36.09 C22.9505,36.09 22.2215,35.847 21.6185,35.379 L22.1045,34.641 C22.6175,35.028 23.1665,35.226 23.6615,35.226 C24.1295,35.226 24.3995,35.028 24.3995,34.713 L24.3995,34.695 C24.3995,34.335 23.8955,34.2 23.3375,34.029 C22.6445,33.84 21.8525,33.543 21.8525,32.634 L21.8525,32.616 C21.8525,31.716 22.5995,31.167 23.5445,31.167 C24.1475,31.167 24.7865,31.374 25.2905,31.707 L24.8585,32.481 C24.3995,32.202 23.9135,32.031 23.5175,32.031 C23.0945,32.031 22.8515,32.229 22.8515,32.508 L22.8515,32.526 C22.8515,32.85 23.3735,33.021 23.9225,33.192 C24.6065,33.408 25.3985,33.723 25.3985,34.578 L25.3985,34.596 C25.3985,35.595 24.6245,36.09 23.6345,36.09 Z M28.7285,35.154 C29.4575,35.154 30.1055,34.542 30.1055,33.633 L30.1055,33.615 C30.1055,32.697 29.4575,32.094 28.7285,32.094 C27.9815,32.094 27.3605,32.67 27.3605,33.615 L27.3605,33.633 C27.3605,34.551 27.9815,35.154 28.7285,35.154 Z M30.0875,37.44 L30.0875,35.208 C29.7365,35.703 29.2325,36.099 28.4675,36.099 C27.3515,36.099 26.2625,35.217 26.2625,33.633 L26.2625,33.615 C26.2625,32.031 27.3335,31.149 28.4675,31.149 C29.2505,31.149 29.7365,31.545 30.0875,31.986 L30.0875,31.248 L31.1765,31.248 L31.1765,37.44 L30.0875,37.44 Z M34.1735,36.099 C33.0935,36.099 32.4815,35.388 32.4815,34.272 L32.4815,31.248 L33.5705,31.248 L33.5705,33.948 C33.5705,34.695 33.9395,35.109 34.5875,35.109 C35.2265,35.109 35.6585,34.677 35.6585,33.93 L35.6585,31.248 L36.7475,31.248 L36.7475,36 L35.6585,36 L35.6585,35.262 C35.3435,35.721 34.9025,36.099 34.1735,36.099 Z M41.0495,34.281 L41.0495,34.011 C40.7705,33.903 40.3835,33.822 39.9605,33.822 C39.2765,33.822 38.8715,34.101 38.8715,34.56 L38.8715,34.578 C38.8715,35.037 39.2765,35.28 39.7895,35.28 C40.5095,35.28 41.0495,34.884 41.0495,34.281 Z M42.1025,36 L41.0225,36 L41.0225,35.415 C40.6985,35.802 40.2035,36.099 39.4835,36.099 C38.5835,36.099 37.7915,35.595 37.7915,34.632 L37.7915,34.614 C37.7915,33.561 38.6015,33.057 39.7175,33.057 C40.2935,33.057 40.6625,33.138 41.0315,33.255 L41.0315,33.165 C41.0315,32.508 40.6175,32.148 39.8615,32.148 C39.3215,32.148 38.9345,32.265 38.5025,32.445 L38.2055,31.572 C38.7365,31.329 39.2315,31.176 40.0145,31.176 C41.4275,31.176 42.1025,31.914 42.1025,33.183 L42.1025,36 Z M45.0275,36.09 C44.3435,36.09 43.6145,35.847 43.0115,35.379 L43.4975,34.641 C44.0105,35.028 44.5595,35.226 45.0545,35.226 C45.5225,35.226 45.7925,35.028 45.7925,34.713 L45.7925,34.695 C45.7925,34.335 45.2885,34.2 44.7305,34.029 C44.0375,33.84 43.2455,33.543 43.2455,32.634 L43.2455,32.616 C43.2455,31.716 43.9925,31.167 44.9375,31.167 C45.5405,31.167 46.1795,31.374 46.6835,31.707 L46.2515,32.481 C45.7925,32.202 45.3065,32.031 44.9105,32.031 C44.4875,32.031 44.2445,32.229 44.2445,32.508 L44.2445,32.526 C44.2445,32.85 44.7665,33.021 45.3155,33.192 C45.9995,33.408 46.7915,33.723 46.7915,34.578 L46.7915,34.596 C46.7915,35.595 46.0175,36.09 45.0275,36.09 Z M47.8985,36 L47.8985,29.43 L48.9875,29.43 L48.9875,31.986 C49.2935,31.536 49.7345,31.149 50.4725,31.149 C51.5525,31.149 52.1645,31.86 52.1645,32.976 L52.1645,36 L51.0755,36 L51.0755,33.3 C51.0755,32.553 50.7065,32.139 50.0585,32.139 C49.4195,32.139 48.9875,32.571 48.9875,33.318 L48.9875,36 L47.8985,36 Z M53.7215,36 L53.7215,32.184 L53.1185,32.184 L53.1185,31.275 L53.7215,31.275 L53.7215,30.933 C53.7215,30.402 53.8475,30.015 54.1085,29.754 C54.3605,29.502 54.7205,29.376 55.1795,29.376 C55.5665,29.376 55.8185,29.43 56.0615,29.502 L56.0615,30.42 C55.8455,30.348 55.6655,30.303 55.4225,30.303 C54.9995,30.303 54.7925,30.546 54.7925,31.023 L54.7925,31.284 L56.0525,31.284 L56.0525,32.184 L54.8105,32.184 L54.8105,36 L53.7215,36 Z M58.4915,36.09 C57.8075,36.09 57.0785,35.847 56.4755,35.379 L56.9615,34.641 C57.4745,35.028 58.0235,35.226 58.5185,35.226 C58.9865,35.226 59.2565,35.028 59.2565,34.713 L59.2565,34.695 C59.2565,34.335 58.7525,34.2 58.1945,34.029 C57.5015,33.84 56.7095,33.543 56.7095,32.634 L56.7095,32.616 C56.7095,31.716 57.4565,31.167 58.4015,31.167 C59.0045,31.167 59.6435,31.374 60.1475,31.707 L59.7155,32.481 C59.2565,32.202 58.7705,32.031 58.3745,32.031 C57.9515,32.031 57.7085,32.229 57.7085,32.508 L57.7085,32.526 C57.7085,32.85 58.2305,33.021 58.7795,33.192 C59.4635,33.408 60.2555,33.723 60.2555,34.578 L60.2555,34.596 C60.2555,35.595 59.4815,36.09 58.4915,36.09 Z M61.5875,37.269 L61.1105,36.54 C62.3885,35.694 62.9915,34.758 62.9915,33.417 C62.9915,32.076 62.3795,31.149 61.1105,30.294 L61.5875,29.565 C63.2165,30.465 64.0805,31.716 64.0805,33.417 C64.0805,35.118 63.2165,36.369 61.5875,37.269 Z" id="(squashfs)" fill="#FFFFFF"></path>
                <path d="M72.992,68.152 L77.06,59.818 L78.005,59.818 L73.937,68.152 L72.992,68.152 Z M78.59,67 L78.59,62.248 L79.679,62.248 L79.679,63.319 C79.976,62.599 80.525,62.122 81.362,62.158 L81.362,63.31 L81.299,63.31 C80.336,63.31 79.679,63.931 79.679,65.191 L79.679,67 L78.59,67 Z M83.945,67.099 C82.865,67.099 82.253,66.388 82.253,65.272 L82.253,62.248 L83.342,62.248 L83.342,64.948 C83.342,65.695 83.711,66.109 84.359,66.109 C84.998,66.109 85.43,65.677 85.43,64.93 L85.43,62.248 L86.519,62.248 L86.519,67 L85.43,67 L85.43,66.262 C85.115,66.721 84.674,67.099 83.945,67.099 Z M87.887,67 L87.887,62.248 L88.976,62.248 L88.976,62.986 C89.282,62.536 89.723,62.149 90.461,62.149 C91.541,62.149 92.153,62.86 92.153,63.976 L92.153,67 L91.064,67 L91.064,64.3 C91.064,63.553 90.695,63.139 90.047,63.139 C89.408,63.139 88.976,63.571 88.976,64.318 L88.976,67 L87.887,67 Z" id="/run" fill="#FFFFFF"></path>
                <path d="M64.631,80.54 L64.154,81.269 C62.507,80.369 61.661,79.136 61.661,77.417 C61.661,75.698 62.507,74.465 64.154,73.565 L64.631,74.294 C63.353,75.14 62.75,76.076 62.75,77.417 C62.75,78.758 63.344,79.703 64.631,80.54 Z M65.738,80 L65.738,75.248 L66.827,75.248 L66.827,76.319 C67.124,75.599 67.673,75.122 68.51,75.158 L68.51,76.31 L68.447,76.31 C67.484,76.31 66.827,76.931 66.827,78.191 L66.827,80 L65.738,80 Z M72.389,78.281 L72.389,78.011 C72.11,77.903 71.723,77.822 71.3,77.822 C70.616,77.822 70.211,78.101 70.211,78.56 L70.211,78.578 C70.211,79.037 70.616,79.28 71.129,79.28 C71.849,79.28 72.389,78.884 72.389,78.281 Z M73.442,80 L72.362,80 L72.362,79.415 C72.038,79.802 71.543,80.099 70.823,80.099 C69.923,80.099 69.131,79.595 69.131,78.632 L69.131,78.614 C69.131,77.561 69.941,77.057 71.057,77.057 C71.633,77.057 72.002,77.138 72.371,77.255 L72.371,77.165 C72.371,76.508 71.957,76.148 71.201,76.148 C70.661,76.148 70.274,76.265 69.842,76.445 L69.545,75.572 C70.076,75.329 70.571,75.176 71.354,75.176 C72.767,75.176 73.442,75.914 73.442,77.183 L73.442,80 Z M74.738,80 L74.738,75.248 L75.827,75.248 L75.827,75.968 C76.133,75.545 76.547,75.149 77.276,75.149 C77.96,75.149 78.437,75.482 78.689,75.986 C79.076,75.482 79.58,75.149 80.3,75.149 C81.344,75.149 81.965,75.806 81.965,76.967 L81.965,80 L80.876,80 L80.876,77.3 C80.876,76.544 80.525,76.139 79.913,76.139 C79.31,76.139 78.896,76.553 78.896,77.318 L78.896,80 L77.807,80 L77.807,77.291 C77.807,76.544 77.456,76.139 76.844,76.139 C76.232,76.139 75.827,76.58 75.827,77.327 L75.827,80 L74.738,80 Z M85.511,79.154 C86.24,79.154 86.888,78.542 86.888,77.633 L86.888,77.615 C86.888,76.697 86.24,76.094 85.511,76.094 C84.764,76.094 84.143,76.67 84.143,77.615 L84.143,77.633 C84.143,78.551 84.764,79.154 85.511,79.154 Z M85.25,80.099 C84.134,80.099 83.045,79.217 83.045,77.633 L83.045,77.615 C83.045,76.031 84.116,75.149 85.25,75.149 C86.033,75.149 86.519,75.545 86.87,75.986 L86.87,73.43 L87.959,73.43 L87.959,80 L86.87,80 L86.87,79.208 C86.519,79.703 86.015,80.099 85.25,80.099 Z M89.381,80 L89.381,75.248 L90.47,75.248 L90.47,80 L89.381,80 Z M89.336,74.519 L89.336,73.484 L90.506,73.484 L90.506,74.519 L89.336,74.519 Z M93.521,80.09 C92.837,80.09 92.108,79.847 91.505,79.379 L91.991,78.641 C92.504,79.028 93.053,79.226 93.548,79.226 C94.016,79.226 94.286,79.028 94.286,78.713 L94.286,78.695 C94.286,78.335 93.782,78.2 93.224,78.029 C92.531,77.84 91.739,77.543 91.739,76.634 L91.739,76.616 C91.739,75.716 92.486,75.167 93.431,75.167 C94.034,75.167 94.673,75.374 95.177,75.707 L94.745,76.481 C94.286,76.202 93.8,76.031 93.404,76.031 C92.981,76.031 92.738,76.229 92.738,76.508 L92.738,76.526 C92.738,76.85 93.26,77.021 93.809,77.192 C94.493,77.408 95.285,77.723 95.285,78.578 L95.285,78.596 C95.285,79.595 94.511,80.09 93.521,80.09 Z M96.392,80 L96.392,73.43 L97.481,73.43 L97.481,77.354 L99.452,75.248 L100.775,75.248 L98.885,77.183 L100.838,80 L99.578,80 L98.147,77.948 L97.481,78.641 L97.481,80 L96.392,80 Z M101.855,81.269 L101.378,80.54 C102.656,79.694 103.259,78.758 103.259,77.417 C103.259,76.076 102.647,75.149 101.378,74.294 L101.855,73.565 C103.484,74.465 104.348,75.716 104.348,77.417 C104.348,79.118 103.484,80.369 101.855,81.269 Z" id="(ramdisk)" fill="#FFFFFF"></path>
            </g>
            <g id="Group" transform="translate(16.000000, 48.000000)">
                <path d="M74.7157895,81.3636364 L78,81.3636364 L78,119 L0,119 L0,81.3636364 L3.28421053,81.3636364 L3.28421053,75 C3.28421053,74.4477153 3.73192578,74 4.28421053,74 L15.4210526,74 C15.9733374,74 16.4210526,74.4477153 16.4210526,75 L16.4210526,81.3636364 L22.7157895,81.3636364 L22.7157895,75 C22.7157895,74.4477153 23.1635047,74 23.7157895,74 L34.8526316,74 C35.4049163,74 35.8526316,74.4477153 35.8526316,75 L35.8526316,81.3636364 L42.1473684,81.3636364 L42.1473684,75 C42.1473684,74.4477153 42.5950837,74 43.1473684,74 L54.2842105,74 C54.8364953,74 55.2842105,74.4477153 55.2842105,75 L55.2842105,81.3636364 L61.5789474,81.3636364 L61.5789474,75 C61.5789474,74.4477153 62.0266626,74 62.5789474,74 L73.7157895,74 C74.2680742,74 74.7157895,74.4477153 74.7157895,75 L74.7157895,81.3636364 Z" id="Combined-Shape" fill="#00C89C"></path>
                <path d="M94.7157895,44.3636364 L98,44.3636364 L98,82 L20,82 L20,44.3636364 L23.2842105,44.3636364 L23.2842105,38 C23.2842105,37.4477153 23.7319258,37 24.2842105,37 L35.4210526,37 C35.9733374,37 36.4210526,37.4477153 36.4210526,38 L36.4210526,44.3636364 L42.7157895,44.3636364 L42.7157895,38 C42.7157895,37.4477153 43.1635047,37 43.7157895,37 L54.8526316,37 C55.4049163,37 55.8526316,37.4477153 55.8526316,38 L55.8526316,44.3636364 L62.1473684,44.3636364 L62.1473684,38 C62.1473684,37.4477153 62.5950837,37 63.1473684,37 L74.2842105,37 C74.8364953,37 75.2842105,37.4477153 75.2842105,38 L75.2842105,44.3636364 L81.5789474,44.3636364 L81.5789474,38 C81.5789474,37.4477153 82.0266626,37 82.5789474,37 L93.7157895,37 C94.2680742,37 94.7157895,37.4477153 94.7157895,38 L94.7157895,44.3636364 Z" id="Combined-Shape" fill="#E1AD00"></path>
                <path d="M171.715789,44.3636364 L175,44.3636364 L175,82 L97,82 L97,44.3636364 L100.284211,44.3636364 L100.284211,38 C100.284211,37.4477153 100.731926,37 101.284211,37 L112.421053,37 C112.973337,37 113.421053,37.4477153 113.421053,38 L113.421053,44.3636364 L119.715789,44.3636364 L119.715789,38 C119.715789,37.4477153 120.163505,37 120.715789,37 L131.852632,37 C132.404916,37 132.852632,37.4477153 132.852632,38 L132.852632,44.3636364 L139.147368,44.3636364 L139.147368,38 C139.147368,37.4477153 139.595084,37 140.147368,37 L151.284211,37 C151.836495,37 152.284211,37.4477153 152.284211,38 L152.284211,44.3636364 L158.578947,44.3636364 L158.578947,38 C158.578947,37.4477153 159.026663,37 159.578947,37 L170.715789,37 C171.268074,37 171.715789,37.4477153 171.715789,38 L171.715789,44.3636364 Z" id="Combined-Shape" fill="#FD716A"></path>
                <path d="M133.715789,7.36363636 L137,7.36363636 L137,45 L59,45 L59,7.36363636 L62.2842105,7.36363636 L62.2842105,1 C62.2842105,0.44771525 62.7319258,5.45542273e-16 63.2842105,4.4408921e-16 L74.4210526,0 C74.9733374,-1.01453063e-16 75.4210526,0.44771525 75.4210526,1 L75.4210526,7.36363636 L81.7157895,7.36363636 L81.7157895,1 C81.7157895,0.44771525 82.1635047,5.45542273e-16 82.7157895,4.4408921e-16 L93.8526316,0 C94.4049163,-1.08250786e-15 94.8526316,0.44771525 94.8526316,1 L94.8526316,7.36363636 L101.147368,7.36363636 L101.147368,1 C101.147368,0.44771525 101.595084,5.45542273e-16 102.147368,4.4408921e-16 L113.284211,-1.11022302e-16 C113.836495,7.68579428e-16 114.284211,0.44771525 114.284211,1 L114.284211,7.36363636 L120.578947,7.36363636 L120.578947,1 C120.578947,0.44771525 121.026663,5.45542273e-16 121.578947,4.4408921e-16 L132.715789,0 C133.268074,-1.01453063e-16 133.715789,0.44771525 133.715789,1 L133.715789,7.36363636 Z" id="Combined-Shape" fill="#4786FF"></path>
                <path d="M71.3555,18.992 L72.5975,18.992 C73.9205,18.992 74.7845,18.101 74.7845,16.868 L74.7845,16.85 C74.7845,15.617 73.9205,14.708 72.5975,14.708 L71.3555,14.708 L71.3555,18.992 Z M70.2485,20 L70.2485,13.7 L72.5975,13.7 C74.5775,13.7 75.9455,15.059 75.9455,16.832 L75.9455,16.85 C75.9455,18.623 74.5775,20 72.5975,20 L70.2485,20 Z M77.9795,17.291 L80.4185,17.291 C80.3465,16.598 79.9325,16.04 79.2125,16.04 C78.5375,16.04 78.0785,16.544 77.9795,17.291 Z M79.3385,20.108 C77.9705,20.108 76.8995,19.109 76.8995,17.642 L76.8995,17.624 C76.8995,16.256 77.8625,15.149 79.2215,15.149 C80.7335,15.149 81.4985,16.337 81.4985,17.705 C81.4985,17.804 81.4895,17.903 81.4805,18.011 L77.9885,18.011 C78.1055,18.794 78.6455,19.217 79.3565,19.217 C79.8965,19.217 80.2565,19.019 80.6435,18.65 L81.2825,19.217 C80.8235,19.757 80.2115,20.108 79.3385,20.108 Z M85.0445,19.154 C85.7915,19.154 86.4035,18.569 86.4035,17.633 L86.4035,17.615 C86.4035,16.697 85.7915,16.094 85.0445,16.094 C84.2975,16.094 83.6585,16.706 83.6585,17.615 L83.6585,17.633 C83.6585,18.551 84.2975,19.154 85.0445,19.154 Z M85.2965,20.099 C84.5135,20.099 84.0185,19.703 83.6855,19.262 L83.6855,20 L82.5965,20 L82.5965,13.43 L83.6855,13.43 L83.6855,16.04 C84.0365,15.536 84.5315,15.149 85.2965,15.149 C86.4125,15.149 87.5105,16.031 87.5105,17.615 L87.5105,17.633 C87.5105,19.217 86.4305,20.099 85.2965,20.099 Z M88.6895,20 L88.6895,15.248 L89.7785,15.248 L89.7785,20 L88.6895,20 Z M88.6445,14.519 L88.6445,13.484 L89.8145,13.484 L89.8145,14.519 L88.6445,14.519 Z M94.1345,18.281 L94.1345,18.011 C93.8555,17.903 93.4685,17.822 93.0455,17.822 C92.3615,17.822 91.9565,18.101 91.9565,18.56 L91.9565,18.578 C91.9565,19.037 92.3615,19.28 92.8745,19.28 C93.5945,19.28 94.1345,18.884 94.1345,18.281 Z M95.1875,20 L94.1075,20 L94.1075,19.415 C93.7835,19.802 93.2885,20.099 92.5685,20.099 C91.6685,20.099 90.8765,19.595 90.8765,18.632 L90.8765,18.614 C90.8765,17.561 91.6865,17.057 92.8025,17.057 C93.3785,17.057 93.7475,17.138 94.1165,17.255 L94.1165,17.165 C94.1165,16.508 93.7025,16.148 92.9465,16.148 C92.4065,16.148 92.0195,16.265 91.5875,16.445 L91.2905,15.572 C91.8215,15.329 92.3165,15.176 93.0995,15.176 C94.5125,15.176 95.1875,15.914 95.1875,17.183 L95.1875,20 Z M96.4835,20 L96.4835,15.248 L97.5725,15.248 L97.5725,15.986 C97.8785,15.536 98.3195,15.149 99.0575,15.149 C100.1375,15.149 100.7495,15.86 100.7495,16.976 L100.7495,20 L99.6605,20 L99.6605,17.3 C99.6605,16.553 99.2915,16.139 98.6435,16.139 C98.0045,16.139 97.5725,16.571 97.5725,17.318 L97.5725,20 L96.4835,20 Z M101.8025,21.305 L101.6855,20.846 C102.2345,20.738 102.4955,20.459 102.4505,20 L101.9915,20 L101.9915,18.767 L103.1885,18.767 L103.1885,19.811 C103.1885,20.819 102.7115,21.233 101.8025,21.305 Z M109.6325,19.154 C110.3795,19.154 110.9915,18.569 110.9915,17.633 L110.9915,17.615 C110.9915,16.697 110.3795,16.094 109.6325,16.094 C108.8855,16.094 108.2465,16.706 108.2465,17.615 L108.2465,17.633 C108.2465,18.551 108.8855,19.154 109.6325,19.154 Z M107.1845,21.44 L107.1845,15.248 L108.2735,15.248 L108.2735,16.04 C108.6245,15.536 109.1195,15.149 109.8845,15.149 C111.0005,15.149 112.0985,16.031 112.0985,17.615 L112.0985,17.633 C112.0985,19.217 111.0185,20.099 109.8845,20.099 C109.1015,20.099 108.6065,19.703 108.2735,19.262 L108.2735,21.44 L107.1845,21.44 Z M113.2145,20 L113.2145,13.43 L114.3035,13.43 L114.3035,15.986 C114.6095,15.536 115.0505,15.149 115.7885,15.149 C116.8685,15.149 117.4805,15.86 117.4805,16.976 L117.4805,20 L116.3915,20 L116.3915,17.3 C116.3915,16.553 116.0225,16.139 115.3745,16.139 C114.7355,16.139 114.3035,16.571 114.3035,17.318 L114.3035,20 L113.2145,20 Z M121.2425,19.154 C121.9895,19.154 122.6015,18.569 122.6015,17.633 L122.6015,17.615 C122.6015,16.697 121.9895,16.094 121.2425,16.094 C120.4955,16.094 119.8565,16.706 119.8565,17.615 L119.8565,17.633 C119.8565,18.551 120.4955,19.154 121.2425,19.154 Z M118.7945,21.44 L118.7945,15.248 L119.8835,15.248 L119.8835,16.04 C120.2345,15.536 120.7295,15.149 121.4945,15.149 C122.6105,15.149 123.7085,16.031 123.7085,17.615 L123.7085,17.633 C123.7085,19.217 122.6285,20.099 121.4945,20.099 C120.7115,20.099 120.2165,19.703 119.8835,19.262 L119.8835,21.44 L118.7945,21.44 Z M124.5635,21.305 L124.4465,20.846 C124.9955,20.738 125.2565,20.459 125.2115,20 L124.7525,20 L124.7525,18.767 L125.9495,18.767 L125.9495,19.811 C125.9495,20.819 125.4725,21.233 124.5635,21.305 Z M85.553,28 L85.553,21.7 L86.579,21.7 L89.954,26.056 L89.954,21.7 L91.043,21.7 L91.043,28 L90.116,28 L86.642,23.518 L86.642,28 L85.553,28 Z M94.742,26.704 C95.498,26.704 96.137,26.164 96.137,25.399 L96.137,25.381 C96.137,24.598 95.498,24.067 94.742,24.067 C93.986,24.067 93.392,24.589 93.392,25.372 L93.392,25.39 C93.392,26.173 93.995,26.704 94.742,26.704 Z M94.652,29.458 C93.86,29.458 93.149,29.269 92.528,28.891 L92.933,28.072 C93.437,28.387 93.977,28.576 94.625,28.576 C95.597,28.576 96.128,28.081 96.128,27.118 L96.128,26.749 C95.732,27.262 95.237,27.622 94.454,27.622 C93.338,27.622 92.294,26.794 92.294,25.399 L92.294,25.381 C92.294,23.977 93.338,23.149 94.454,23.149 C95.255,23.149 95.75,23.518 96.119,23.959 L96.119,23.248 L97.208,23.248 L97.208,27.028 C97.208,27.82 97.01,28.414 96.605,28.819 C96.173,29.251 95.516,29.458 94.652,29.458 Z M98.63,28 L98.63,23.248 L99.719,23.248 L99.719,28 L98.63,28 Z M98.585,22.519 L98.585,21.484 L99.755,21.484 L99.755,22.519 L98.585,22.519 Z M101.141,28 L101.141,23.248 L102.23,23.248 L102.23,23.986 C102.536,23.536 102.977,23.149 103.715,23.149 C104.795,23.149 105.407,23.86 105.407,24.976 L105.407,28 L104.318,28 L104.318,25.3 C104.318,24.553 103.949,24.139 103.301,24.139 C102.662,24.139 102.23,24.571 102.23,25.318 L102.23,28 L101.141,28 Z M106.307,28 L108.053,25.588 L106.37,23.248 L107.558,23.248 L108.656,24.814 L109.754,23.248 L110.915,23.248 L109.232,25.561 L110.987,28 L109.799,28 L108.629,26.335 L107.468,28 L106.307,28 Z" id="Debian,-php,-Nginx" fill="#FFFFFF"></path>
                <path d="M77.3985,39.54 L76.9215,40.269 C75.2745,39.369 74.4285,38.136 74.4285,36.417 C74.4285,34.698 75.2745,33.465 76.9215,32.565 L77.3985,33.294 C76.1205,34.14 75.5175,35.076 75.5175,36.417 C75.5175,37.758 76.1115,38.703 77.3985,39.54 Z M80.1345,39.09 C79.4505,39.09 78.7215,38.847 78.1185,38.379 L78.6045,37.641 C79.1175,38.028 79.6665,38.226 80.1615,38.226 C80.6295,38.226 80.8995,38.028 80.8995,37.713 L80.8995,37.695 C80.8995,37.335 80.3955,37.2 79.8375,37.029 C79.1445,36.84 78.3525,36.543 78.3525,35.634 L78.3525,35.616 C78.3525,34.716 79.0995,34.167 80.0445,34.167 C80.6475,34.167 81.2865,34.374 81.7905,34.707 L81.3585,35.481 C80.8995,35.202 80.4135,35.031 80.0175,35.031 C79.5945,35.031 79.3515,35.229 79.3515,35.508 L79.3515,35.526 C79.3515,35.85 79.8735,36.021 80.4225,36.192 C81.1065,36.408 81.8985,36.723 81.8985,37.578 L81.8985,37.596 C81.8985,38.595 81.1245,39.09 80.1345,39.09 Z M85.2285,38.154 C85.9575,38.154 86.6055,37.542 86.6055,36.633 L86.6055,36.615 C86.6055,35.697 85.9575,35.094 85.2285,35.094 C84.4815,35.094 83.8605,35.67 83.8605,36.615 L83.8605,36.633 C83.8605,37.551 84.4815,38.154 85.2285,38.154 Z M86.5875,40.44 L86.5875,38.208 C86.2365,38.703 85.7325,39.099 84.9675,39.099 C83.8515,39.099 82.7625,38.217 82.7625,36.633 L82.7625,36.615 C82.7625,35.031 83.8335,34.149 84.9675,34.149 C85.7505,34.149 86.2365,34.545 86.5875,34.986 L86.5875,34.248 L87.6765,34.248 L87.6765,40.44 L86.5875,40.44 Z M90.6735,39.099 C89.5935,39.099 88.9815,38.388 88.9815,37.272 L88.9815,34.248 L90.0705,34.248 L90.0705,36.948 C90.0705,37.695 90.4395,38.109 91.0875,38.109 C91.7265,38.109 92.1585,37.677 92.1585,36.93 L92.1585,34.248 L93.2475,34.248 L93.2475,39 L92.1585,39 L92.1585,38.262 C91.8435,38.721 91.4025,39.099 90.6735,39.099 Z M97.5495,37.281 L97.5495,37.011 C97.2705,36.903 96.8835,36.822 96.4605,36.822 C95.7765,36.822 95.3715,37.101 95.3715,37.56 L95.3715,37.578 C95.3715,38.037 95.7765,38.28 96.2895,38.28 C97.0095,38.28 97.5495,37.884 97.5495,37.281 Z M98.6025,39 L97.5225,39 L97.5225,38.415 C97.1985,38.802 96.7035,39.099 95.9835,39.099 C95.0835,39.099 94.2915,38.595 94.2915,37.632 L94.2915,37.614 C94.2915,36.561 95.1015,36.057 96.2175,36.057 C96.7935,36.057 97.1625,36.138 97.5315,36.255 L97.5315,36.165 C97.5315,35.508 97.1175,35.148 96.3615,35.148 C95.8215,35.148 95.4345,35.265 95.0025,35.445 L94.7055,34.572 C95.2365,34.329 95.7315,34.176 96.5145,34.176 C97.9275,34.176 98.6025,34.914 98.6025,36.183 L98.6025,39 Z M101.5275,39.09 C100.8435,39.09 100.1145,38.847 99.5115,38.379 L99.9975,37.641 C100.5105,38.028 101.0595,38.226 101.5545,38.226 C102.0225,38.226 102.2925,38.028 102.2925,37.713 L102.2925,37.695 C102.2925,37.335 101.7885,37.2 101.2305,37.029 C100.5375,36.84 99.7455,36.543 99.7455,35.634 L99.7455,35.616 C99.7455,34.716 100.4925,34.167 101.4375,34.167 C102.0405,34.167 102.6795,34.374 103.1835,34.707 L102.7515,35.481 C102.2925,35.202 101.8065,35.031 101.4105,35.031 C100.9875,35.031 100.7445,35.229 100.7445,35.508 L100.7445,35.526 C100.7445,35.85 101.2665,36.021 101.8155,36.192 C102.4995,36.408 103.2915,36.723 103.2915,37.578 L103.2915,37.596 C103.2915,38.595 102.5175,39.09 101.5275,39.09 Z M104.3985,39 L104.3985,32.43 L105.4875,32.43 L105.4875,34.986 C105.7935,34.536 106.2345,34.149 106.9725,34.149 C108.0525,34.149 108.6645,34.86 108.6645,35.976 L108.6645,39 L107.5755,39 L107.5755,36.3 C107.5755,35.553 107.2065,35.139 106.5585,35.139 C105.9195,35.139 105.4875,35.571 105.4875,36.318 L105.4875,39 L104.3985,39 Z M110.2215,39 L110.2215,35.184 L109.6185,35.184 L109.6185,34.275 L110.2215,34.275 L110.2215,33.933 C110.2215,33.402 110.3475,33.015 110.6085,32.754 C110.8605,32.502 111.2205,32.376 111.6795,32.376 C112.0665,32.376 112.3185,32.43 112.5615,32.502 L112.5615,33.42 C112.3455,33.348 112.1655,33.303 111.9225,33.303 C111.4995,33.303 111.2925,33.546 111.2925,34.023 L111.2925,34.284 L112.5525,34.284 L112.5525,35.184 L111.3105,35.184 L111.3105,39 L110.2215,39 Z M114.9915,39.09 C114.3075,39.09 113.5785,38.847 112.9755,38.379 L113.4615,37.641 C113.9745,38.028 114.5235,38.226 115.0185,38.226 C115.4865,38.226 115.7565,38.028 115.7565,37.713 L115.7565,37.695 C115.7565,37.335 115.2525,37.2 114.6945,37.029 C114.0015,36.84 113.2095,36.543 113.2095,35.634 L113.2095,35.616 C113.2095,34.716 113.9565,34.167 114.9015,34.167 C115.5045,34.167 116.1435,34.374 116.6475,34.707 L116.2155,35.481 C115.7565,35.202 115.2705,35.031 114.8745,35.031 C114.4515,35.031 114.2085,35.229 114.2085,35.508 L114.2085,35.526 C114.2085,35.85 114.7305,36.021 115.2795,36.192 C115.9635,36.408 116.7555,36.723 116.7555,37.578 L116.7555,37.596 C116.7555,38.595 115.9815,39.09 114.9915,39.09 Z M118.0875,40.269 L117.6105,39.54 C118.8885,38.694 119.4915,37.758 119.4915,36.417 C119.4915,35.076 118.8795,34.149 117.6105,33.294 L118.0875,32.565 C119.7165,33.465 120.5805,34.716 120.5805,36.417 C120.5805,38.118 119.7165,39.369 118.0875,40.269 Z" id="(squashfs)" fill="#FFFFFF"></path>
                <path d="M51.372,59.498 L53.541,59.498 L52.452,56.978 L51.372,59.498 Z M49.185,62 L51.957,55.655 L52.983,55.655 L55.755,62 L54.585,62 L53.946,60.479 L50.967,60.479 L50.319,62 L49.185,62 Z M59.157,61.154 C59.904,61.154 60.516,60.569 60.516,59.633 L60.516,59.615 C60.516,58.697 59.904,58.094 59.157,58.094 C58.41,58.094 57.771,58.706 57.771,59.615 L57.771,59.633 C57.771,60.551 58.41,61.154 59.157,61.154 Z M56.709,63.44 L56.709,57.248 L57.798,57.248 L57.798,58.04 C58.149,57.536 58.644,57.149 59.409,57.149 C60.525,57.149 61.623,58.031 61.623,59.615 L61.623,59.633 C61.623,61.217 60.543,62.099 59.409,62.099 C58.626,62.099 58.131,61.703 57.798,61.262 L57.798,63.44 L56.709,63.44 Z M65.187,61.154 C65.934,61.154 66.546,60.569 66.546,59.633 L66.546,59.615 C66.546,58.697 65.934,58.094 65.187,58.094 C64.44,58.094 63.801,58.706 63.801,59.615 L63.801,59.633 C63.801,60.551 64.44,61.154 65.187,61.154 Z M62.739,63.44 L62.739,57.248 L63.828,57.248 L63.828,58.04 C64.179,57.536 64.674,57.149 65.439,57.149 C66.555,57.149 67.653,58.031 67.653,59.615 L67.653,59.633 C67.653,61.217 66.573,62.099 65.439,62.099 C64.656,62.099 64.161,61.703 63.828,61.262 L63.828,63.44 L62.739,63.44 Z" id="App" fill="#FFFFFF"></path>
                <path d="M38.3985,74.54 L37.9215,75.269 C36.2745,74.369 35.4285,73.136 35.4285,71.417 C35.4285,69.698 36.2745,68.465 37.9215,67.565 L38.3985,68.294 C37.1205,69.14 36.5175,70.076 36.5175,71.417 C36.5175,72.758 37.1115,73.703 38.3985,74.54 Z M41.1345,74.09 C40.4505,74.09 39.7215,73.847 39.1185,73.379 L39.6045,72.641 C40.1175,73.028 40.6665,73.226 41.1615,73.226 C41.6295,73.226 41.8995,73.028 41.8995,72.713 L41.8995,72.695 C41.8995,72.335 41.3955,72.2 40.8375,72.029 C40.1445,71.84 39.3525,71.543 39.3525,70.634 L39.3525,70.616 C39.3525,69.716 40.0995,69.167 41.0445,69.167 C41.6475,69.167 42.2865,69.374 42.7905,69.707 L42.3585,70.481 C41.8995,70.202 41.4135,70.031 41.0175,70.031 C40.5945,70.031 40.3515,70.229 40.3515,70.508 L40.3515,70.526 C40.3515,70.85 40.8735,71.021 41.4225,71.192 C42.1065,71.408 42.8985,71.723 42.8985,72.578 L42.8985,72.596 C42.8985,73.595 42.1245,74.09 41.1345,74.09 Z M46.2285,73.154 C46.9575,73.154 47.6055,72.542 47.6055,71.633 L47.6055,71.615 C47.6055,70.697 46.9575,70.094 46.2285,70.094 C45.4815,70.094 44.8605,70.67 44.8605,71.615 L44.8605,71.633 C44.8605,72.551 45.4815,73.154 46.2285,73.154 Z M47.5875,75.44 L47.5875,73.208 C47.2365,73.703 46.7325,74.099 45.9675,74.099 C44.8515,74.099 43.7625,73.217 43.7625,71.633 L43.7625,71.615 C43.7625,70.031 44.8335,69.149 45.9675,69.149 C46.7505,69.149 47.2365,69.545 47.5875,69.986 L47.5875,69.248 L48.6765,69.248 L48.6765,75.44 L47.5875,75.44 Z M51.6735,74.099 C50.5935,74.099 49.9815,73.388 49.9815,72.272 L49.9815,69.248 L51.0705,69.248 L51.0705,71.948 C51.0705,72.695 51.4395,73.109 52.0875,73.109 C52.7265,73.109 53.1585,72.677 53.1585,71.93 L53.1585,69.248 L54.2475,69.248 L54.2475,74 L53.1585,74 L53.1585,73.262 C52.8435,73.721 52.4025,74.099 51.6735,74.099 Z M58.5495,72.281 L58.5495,72.011 C58.2705,71.903 57.8835,71.822 57.4605,71.822 C56.7765,71.822 56.3715,72.101 56.3715,72.56 L56.3715,72.578 C56.3715,73.037 56.7765,73.28 57.2895,73.28 C58.0095,73.28 58.5495,72.884 58.5495,72.281 Z M59.6025,74 L58.5225,74 L58.5225,73.415 C58.1985,73.802 57.7035,74.099 56.9835,74.099 C56.0835,74.099 55.2915,73.595 55.2915,72.632 L55.2915,72.614 C55.2915,71.561 56.1015,71.057 57.2175,71.057 C57.7935,71.057 58.1625,71.138 58.5315,71.255 L58.5315,71.165 C58.5315,70.508 58.1175,70.148 57.3615,70.148 C56.8215,70.148 56.4345,70.265 56.0025,70.445 L55.7055,69.572 C56.2365,69.329 56.7315,69.176 57.5145,69.176 C58.9275,69.176 59.6025,69.914 59.6025,71.183 L59.6025,74 Z M62.5275,74.09 C61.8435,74.09 61.1145,73.847 60.5115,73.379 L60.9975,72.641 C61.5105,73.028 62.0595,73.226 62.5545,73.226 C63.0225,73.226 63.2925,73.028 63.2925,72.713 L63.2925,72.695 C63.2925,72.335 62.7885,72.2 62.2305,72.029 C61.5375,71.84 60.7455,71.543 60.7455,70.634 L60.7455,70.616 C60.7455,69.716 61.4925,69.167 62.4375,69.167 C63.0405,69.167 63.6795,69.374 64.1835,69.707 L63.7515,70.481 C63.2925,70.202 62.8065,70.031 62.4105,70.031 C61.9875,70.031 61.7445,70.229 61.7445,70.508 L61.7445,70.526 C61.7445,70.85 62.2665,71.021 62.8155,71.192 C63.4995,71.408 64.2915,71.723 64.2915,72.578 L64.2915,72.596 C64.2915,73.595 63.5175,74.09 62.5275,74.09 Z M65.3985,74 L65.3985,67.43 L66.4875,67.43 L66.4875,69.986 C66.7935,69.536 67.2345,69.149 67.9725,69.149 C69.0525,69.149 69.6645,69.86 69.6645,70.976 L69.6645,74 L68.5755,74 L68.5755,71.3 C68.5755,70.553 68.2065,70.139 67.5585,70.139 C66.9195,70.139 66.4875,70.571 66.4875,71.318 L66.4875,74 L65.3985,74 Z M71.2215,74 L71.2215,70.184 L70.6185,70.184 L70.6185,69.275 L71.2215,69.275 L71.2215,68.933 C71.2215,68.402 71.3475,68.015 71.6085,67.754 C71.8605,67.502 72.2205,67.376 72.6795,67.376 C73.0665,67.376 73.3185,67.43 73.5615,67.502 L73.5615,68.42 C73.3455,68.348 73.1655,68.303 72.9225,68.303 C72.4995,68.303 72.2925,68.546 72.2925,69.023 L72.2925,69.284 L73.5525,69.284 L73.5525,70.184 L72.3105,70.184 L72.3105,74 L71.2215,74 Z M75.9915,74.09 C75.3075,74.09 74.5785,73.847 73.9755,73.379 L74.4615,72.641 C74.9745,73.028 75.5235,73.226 76.0185,73.226 C76.4865,73.226 76.7565,73.028 76.7565,72.713 L76.7565,72.695 C76.7565,72.335 76.2525,72.2 75.6945,72.029 C75.0015,71.84 74.2095,71.543 74.2095,70.634 L74.2095,70.616 C74.2095,69.716 74.9565,69.167 75.9015,69.167 C76.5045,69.167 77.1435,69.374 77.6475,69.707 L77.2155,70.481 C76.7565,70.202 76.2705,70.031 75.8745,70.031 C75.4515,70.031 75.2085,70.229 75.2085,70.508 L75.2085,70.526 C75.2085,70.85 75.7305,71.021 76.2795,71.192 C76.9635,71.408 77.7555,71.723 77.7555,72.578 L77.7555,72.596 C77.7555,73.595 76.9815,74.09 75.9915,74.09 Z M79.0875,75.269 L78.6105,74.54 C79.8885,73.694 80.4915,72.758 80.4915,71.417 C80.4915,70.076 79.8795,69.149 78.6105,68.294 L79.0875,67.565 C80.7165,68.465 81.5805,69.716 81.5805,71.417 C81.5805,73.118 80.7165,74.369 79.0875,75.269 Z" id="(squashfs)" fill="#FFFFFF"></path>
                <path d="M126.492,63.152 L130.56,54.818 L131.505,54.818 L127.437,63.152 L126.492,63.152 Z M132.09,62 L132.09,57.248 L133.179,57.248 L133.179,58.319 C133.476,57.599 134.025,57.122 134.862,57.158 L134.862,58.31 L134.799,58.31 C133.836,58.31 133.179,58.931 133.179,60.191 L133.179,62 L132.09,62 Z M137.445,62.099 C136.365,62.099 135.753,61.388 135.753,60.272 L135.753,57.248 L136.842,57.248 L136.842,59.948 C136.842,60.695 137.211,61.109 137.859,61.109 C138.498,61.109 138.93,60.677 138.93,59.93 L138.93,57.248 L140.019,57.248 L140.019,62 L138.93,62 L138.93,61.262 C138.615,61.721 138.174,62.099 137.445,62.099 Z M141.387,62 L141.387,57.248 L142.476,57.248 L142.476,57.986 C142.782,57.536 143.223,57.149 143.961,57.149 C145.041,57.149 145.653,57.86 145.653,58.976 L145.653,62 L144.564,62 L144.564,59.3 C144.564,58.553 144.195,58.139 143.547,58.139 C142.908,58.139 142.476,58.571 142.476,59.318 L142.476,62 L141.387,62 Z" id="/run" fill="#FFFFFF"></path>
                <path d="M118.131,74.54 L117.654,75.269 C116.007,74.369 115.161,73.136 115.161,71.417 C115.161,69.698 116.007,68.465 117.654,67.565 L118.131,68.294 C116.853,69.14 116.25,70.076 116.25,71.417 C116.25,72.758 116.844,73.703 118.131,74.54 Z M119.238,74 L119.238,69.248 L120.327,69.248 L120.327,70.319 C120.624,69.599 121.173,69.122 122.01,69.158 L122.01,70.31 L121.947,70.31 C120.984,70.31 120.327,70.931 120.327,72.191 L120.327,74 L119.238,74 Z M125.889,72.281 L125.889,72.011 C125.61,71.903 125.223,71.822 124.8,71.822 C124.116,71.822 123.711,72.101 123.711,72.56 L123.711,72.578 C123.711,73.037 124.116,73.28 124.629,73.28 C125.349,73.28 125.889,72.884 125.889,72.281 Z M126.942,74 L125.862,74 L125.862,73.415 C125.538,73.802 125.043,74.099 124.323,74.099 C123.423,74.099 122.631,73.595 122.631,72.632 L122.631,72.614 C122.631,71.561 123.441,71.057 124.557,71.057 C125.133,71.057 125.502,71.138 125.871,71.255 L125.871,71.165 C125.871,70.508 125.457,70.148 124.701,70.148 C124.161,70.148 123.774,70.265 123.342,70.445 L123.045,69.572 C123.576,69.329 124.071,69.176 124.854,69.176 C126.267,69.176 126.942,69.914 126.942,71.183 L126.942,74 Z M128.238,74 L128.238,69.248 L129.327,69.248 L129.327,69.968 C129.633,69.545 130.047,69.149 130.776,69.149 C131.46,69.149 131.937,69.482 132.189,69.986 C132.576,69.482 133.08,69.149 133.8,69.149 C134.844,69.149 135.465,69.806 135.465,70.967 L135.465,74 L134.376,74 L134.376,71.3 C134.376,70.544 134.025,70.139 133.413,70.139 C132.81,70.139 132.396,70.553 132.396,71.318 L132.396,74 L131.307,74 L131.307,71.291 C131.307,70.544 130.956,70.139 130.344,70.139 C129.732,70.139 129.327,70.58 129.327,71.327 L129.327,74 L128.238,74 Z M139.011,73.154 C139.74,73.154 140.388,72.542 140.388,71.633 L140.388,71.615 C140.388,70.697 139.74,70.094 139.011,70.094 C138.264,70.094 137.643,70.67 137.643,71.615 L137.643,71.633 C137.643,72.551 138.264,73.154 139.011,73.154 Z M138.75,74.099 C137.634,74.099 136.545,73.217 136.545,71.633 L136.545,71.615 C136.545,70.031 137.616,69.149 138.75,69.149 C139.533,69.149 140.019,69.545 140.37,69.986 L140.37,67.43 L141.459,67.43 L141.459,74 L140.37,74 L140.37,73.208 C140.019,73.703 139.515,74.099 138.75,74.099 Z M142.881,74 L142.881,69.248 L143.97,69.248 L143.97,74 L142.881,74 Z M142.836,68.519 L142.836,67.484 L144.006,67.484 L144.006,68.519 L142.836,68.519 Z M147.021,74.09 C146.337,74.09 145.608,73.847 145.005,73.379 L145.491,72.641 C146.004,73.028 146.553,73.226 147.048,73.226 C147.516,73.226 147.786,73.028 147.786,72.713 L147.786,72.695 C147.786,72.335 147.282,72.2 146.724,72.029 C146.031,71.84 145.239,71.543 145.239,70.634 L145.239,70.616 C145.239,69.716 145.986,69.167 146.931,69.167 C147.534,69.167 148.173,69.374 148.677,69.707 L148.245,70.481 C147.786,70.202 147.3,70.031 146.904,70.031 C146.481,70.031 146.238,70.229 146.238,70.508 L146.238,70.526 C146.238,70.85 146.76,71.021 147.309,71.192 C147.993,71.408 148.785,71.723 148.785,72.578 L148.785,72.596 C148.785,73.595 148.011,74.09 147.021,74.09 Z M149.892,74 L149.892,67.43 L150.981,67.43 L150.981,71.354 L152.952,69.248 L154.275,69.248 L152.385,71.183 L154.338,74 L153.078,74 L151.647,71.948 L150.981,72.641 L150.981,74 L149.892,74 Z M155.355,75.269 L154.878,74.54 C156.156,73.694 156.759,72.758 156.759,71.417 C156.759,70.076 156.147,69.149 154.878,68.294 L155.355,67.565 C156.984,68.465 157.848,69.716 157.848,71.417 C157.848,73.118 156.984,74.369 155.355,75.269 Z" id="(ramdisk)" fill="#FFFFFF"></path>
                <path d="M16.0595,98 L16.0595,91.7 L20.7485,91.7 L20.7485,92.708 L17.1665,92.708 L17.1665,94.427 L20.3435,94.427 L20.3435,95.435 L17.1665,95.435 L17.1665,98 L16.0595,98 Z M21.9005,98 L21.9005,93.248 L22.9895,93.248 L22.9895,98 L21.9005,98 Z M21.8555,92.519 L21.8555,91.484 L23.0255,91.484 L23.0255,92.519 L21.8555,92.519 Z M24.4745,98 L24.4745,91.43 L25.5635,91.43 L25.5635,98 L24.4745,98 Z M27.8045,95.291 L30.2435,95.291 C30.1715,94.598 29.7575,94.04 29.0375,94.04 C28.3625,94.04 27.9035,94.544 27.8045,95.291 Z M29.1635,98.108 C27.7955,98.108 26.7245,97.109 26.7245,95.642 L26.7245,95.624 C26.7245,94.256 27.6875,93.149 29.0465,93.149 C30.5585,93.149 31.3235,94.337 31.3235,95.705 C31.3235,95.804 31.3145,95.903 31.3055,96.011 L27.8135,96.011 C27.9305,96.794 28.4705,97.217 29.1815,97.217 C29.7215,97.217 30.0815,97.019 30.4685,96.65 L31.1075,97.217 C30.6485,97.757 30.0365,98.108 29.1635,98.108 Z M35.1215,98 L35.1215,93.248 L36.2105,93.248 L36.2105,93.968 C36.5165,93.545 36.9305,93.149 37.6595,93.149 C38.3435,93.149 38.8205,93.482 39.0725,93.986 C39.4595,93.482 39.9635,93.149 40.6835,93.149 C41.7275,93.149 42.3485,93.806 42.3485,94.967 L42.3485,98 L41.2595,98 L41.2595,95.3 C41.2595,94.544 40.9085,94.139 40.2965,94.139 C39.6935,94.139 39.2795,94.553 39.2795,95.318 L39.2795,98 L38.1905,98 L38.1905,95.291 C38.1905,94.544 37.8395,94.139 37.2275,94.139 C36.6155,94.139 36.2105,94.58 36.2105,95.327 L36.2105,98 L35.1215,98 Z M45.9485,97.163 C46.8395,97.163 47.3885,96.47 47.3885,95.651 L47.3885,95.633 C47.3885,94.796 46.7855,94.103 45.9305,94.103 C45.0575,94.103 44.4995,94.787 44.4995,95.615 L44.4995,95.633 C44.4995,96.461 45.1115,97.163 45.9485,97.163 Z M45.9305,98.108 C44.4815,98.108 43.4105,97.001 43.4105,95.651 L43.4105,95.633 C43.4105,94.274 44.4905,93.149 45.9485,93.149 C47.4155,93.149 48.4775,94.256 48.4775,95.615 L48.4775,95.633 C48.4775,96.974 47.3975,98.108 45.9305,98.108 Z M51.2225,98.099 C50.1425,98.099 49.5305,97.388 49.5305,96.272 L49.5305,93.248 L50.6195,93.248 L50.6195,95.948 C50.6195,96.695 50.9885,97.109 51.6365,97.109 C52.2755,97.109 52.7075,96.677 52.7075,95.93 L52.7075,93.248 L53.7965,93.248 L53.7965,98 L52.7075,98 L52.7075,97.262 C52.3925,97.721 51.9515,98.099 51.2225,98.099 Z M55.1645,98 L55.1645,93.248 L56.2535,93.248 L56.2535,93.986 C56.5595,93.536 57.0005,93.149 57.7385,93.149 C58.8185,93.149 59.4305,93.86 59.4305,94.976 L59.4305,98 L58.3415,98 L58.3415,95.3 C58.3415,94.553 57.9725,94.139 57.3245,94.139 C56.6855,94.139 56.2535,94.571 56.2535,95.318 L56.2535,98 L55.1645,98 Z M62.3375,98.081 C61.5365,98.081 60.9695,97.73 60.9695,96.686 L60.9695,94.184 L60.3665,94.184 L60.3665,93.248 L60.9695,93.248 L60.9695,91.943 L62.0585,91.943 L62.0585,93.248 L63.3365,93.248 L63.3365,94.184 L62.0585,94.184 L62.0585,96.515 C62.0585,96.938 62.2745,97.109 62.6435,97.109 C62.8775,97.109 63.1025,97.055 63.3185,96.947 L63.3185,97.838 C63.0395,97.991 62.7425,98.081 62.3375,98.081 Z" id="File-mount" fill="#FFFFFF"></path>
                <path d="M26.432,110.54 L25.955,111.269 C24.308,110.369 23.462,109.136 23.462,107.417 C23.462,105.698 24.308,104.465 25.955,103.565 L26.432,104.294 C25.154,105.14 24.551,106.076 24.551,107.417 C24.551,108.758 25.145,109.703 26.432,110.54 Z M27.539,110 L27.539,105.248 L28.628,105.248 L28.628,105.986 C28.934,105.536 29.375,105.149 30.113,105.149 C31.193,105.149 31.805,105.86 31.805,106.976 L31.805,110 L30.716,110 L30.716,107.3 C30.716,106.553 30.347,106.139 29.699,106.139 C29.06,106.139 28.628,106.571 28.628,107.318 L28.628,110 L27.539,110 Z M33.938,107.291 L36.377,107.291 C36.305,106.598 35.891,106.04 35.171,106.04 C34.496,106.04 34.037,106.544 33.938,107.291 Z M35.297,110.108 C33.929,110.108 32.858,109.109 32.858,107.642 L32.858,107.624 C32.858,106.256 33.821,105.149 35.18,105.149 C36.692,105.149 37.457,106.337 37.457,107.705 C37.457,107.804 37.448,107.903 37.439,108.011 L33.947,108.011 C34.064,108.794 34.604,109.217 35.315,109.217 C35.855,109.217 36.215,109.019 36.602,108.65 L37.241,109.217 C36.782,109.757 36.17,110.108 35.297,110.108 Z M40.148,110.081 C39.347,110.081 38.78,109.73 38.78,108.686 L38.78,106.184 L38.177,106.184 L38.177,105.248 L38.78,105.248 L38.78,103.943 L39.869,103.943 L39.869,105.248 L41.147,105.248 L41.147,106.184 L39.869,106.184 L39.869,108.515 C39.869,108.938 40.085,109.109 40.454,109.109 C40.688,109.109 40.913,109.055 41.129,108.947 L41.129,109.838 C40.85,109.991 40.553,110.081 40.148,110.081 Z M45.188,110 L45.188,106.184 L44.585,106.184 L44.585,105.275 L45.188,105.275 L45.188,104.933 C45.188,104.402 45.314,104.015 45.575,103.754 C45.827,103.502 46.187,103.376 46.646,103.376 C47.033,103.376 47.285,103.43 47.528,103.502 L47.528,104.42 C47.312,104.348 47.132,104.303 46.889,104.303 C46.466,104.303 46.259,104.546 46.259,105.023 L46.259,105.284 L47.519,105.284 L47.519,106.184 L46.277,106.184 L46.277,110 L45.188,110 Z M49.958,110.09 C49.274,110.09 48.545,109.847 47.942,109.379 L48.428,108.641 C48.941,109.028 49.49,109.226 49.985,109.226 C50.453,109.226 50.723,109.028 50.723,108.713 L50.723,108.695 C50.723,108.335 50.219,108.2 49.661,108.029 C48.968,107.84 48.176,107.543 48.176,106.634 L48.176,106.616 C48.176,105.716 48.923,105.167 49.868,105.167 C50.471,105.167 51.11,105.374 51.614,105.707 L51.182,106.481 C50.723,106.202 50.237,106.031 49.841,106.031 C49.418,106.031 49.175,106.229 49.175,106.508 L49.175,106.526 C49.175,106.85 49.697,107.021 50.246,107.192 C50.93,107.408 51.722,107.723 51.722,108.578 L51.722,108.596 C51.722,109.595 50.948,110.09 49.958,110.09 Z M53.054,111.269 L52.577,110.54 C53.855,109.694 54.458,108.758 54.458,107.417 C54.458,106.076 53.846,105.149 52.577,104.294 L53.054,103.565 C54.683,104.465 55.547,105.716 55.547,107.417 C55.547,109.118 54.683,110.369 53.054,111.269 Z" id="(net-fs)" fill="#FFFFFF"></path>
            </g>
        </g>
    </g>
</svg>