<?xml version="1.0" encoding="UTF-8"?>
<svg width="189px" height="293px" viewBox="0 0 189 293" version="1.1" xmlns="http://www.w3.org/2000/svg" xmlns:xlink="http://www.w3.org/1999/xlink">
    <!-- Generator: Sketch 48.2 (47327) - http://www.bohemiancoding.com/sketch -->
    <title>platformsh filesystem</title>
    <desc>Created with Sketch.</desc>
    <defs>
        <path d="M26,13 L168,13 C169.656854,13 171,14.3431458 171,16 L171,271 C171,272.656854 169.656854,274 168,274 L26,274 C24.3431458,274 23,272.656854 23,271 L23,16 C23,14.3431458 24.3431458,13 26,13 Z" id="path-1"></path>
        <filter x="-10.5%" y="-4.4%" width="120.9%" height="111.9%" filterUnits="objectBoundingBox" id="filter-2">
            <feMorphology radius="0.5" operator="dilate" in="SourceAlpha" result="shadowSpreadOuter1"></feMorphology>
            <feOffset dx="0" dy="4" in="shadowSpreadOuter1" result="shadowOffsetOuter1"></feOffset>
            <feGaussianBlur stdDeviation="4" in="shadowOffsetOuter1" result="shadowBlurOuter1"></feGaussianBlur>
            <feColorMatrix values="0 0 0 0 0   0 0 0 0 0   0 0 0 0 0  0 0 0 0.1 0" type="matrix" in="shadowBlurOuter1"></feColorMatrix>
        </filter>
    </defs>
    <g id="Page-1" stroke="none" stroke-width="1" fill="none" fill-rule="evenodd">
        <g id="platformsh-filesystem">
            <g id="Rectangle">
                <use fill="black" fill-opacity="1" filter="url(#filter-2)" xlink:href="#path-1"></use>
                <use fill="#FFFFFF" fill-rule="evenodd" xlink:href="#path-1"></use>
            </g>
            <rect id="Rectangle-11" fill="#F5F7FA" x="77" y="197" width="91" height="44"></rect>
            <rect id="Rectangle-11" fill="#F5F7FA" x="46" y="243" width="63" height="23"></rect>
            <path d="M68,214 L68,198 L69,198 L69,208 L77,208 L77,209 L69,209 L69,214 L69,231 L77,231 L77,232 L68,232 L68,231 L68,214 Z M37,75 L45,75 L45,76 L37,76 L37,97 L45,97 L45,98 L37,98 L37,120 L46,120 L46,121 L37,121 L37,254 L45,254 L45,255 L37,255 L36,255 L36,44 L37,44 L37,52 L46,52 L46,53 L37,53 L37,75 Z M52,186 L52,159 L52,146 L52,130 L53,130 L53,141 L61,141 L61,142 L53,142 L53,146 L53,159 L53,163 L61,163 L61,164 L53,164 L53,186 L61,186 L61,187 L52,187 L52,186 Z" id="lines" fill-opacity="0.6" fill="#98A0AB"></path>
            <path d="M55.858,55.188 C57.258,55.188 58.406,54.152 58.406,52.402 L58.406,52.374 C58.406,50.652 57.244,49.574 55.858,49.574 C54.514,49.574 53.24,50.722 53.24,52.36 L53.24,52.388 C53.24,54.068 54.514,55.188 55.858,55.188 Z M56.054,56.154 C54.71,56.154 53.842,55.44 53.282,54.614 L53.282,56 L52.204,56 L52.204,45.78 L53.282,45.78 L53.282,50.218 C53.884,49.364 54.71,48.608 56.054,48.608 C57.79,48.608 59.512,49.98 59.512,52.36 L59.512,52.388 C59.512,54.74 57.804,56.154 56.054,56.154 Z M64.832,55.202 C66.4,55.202 67.492,53.928 67.492,52.416 L67.492,52.388 C67.492,50.834 66.33,49.56 64.804,49.56 C63.236,49.56 62.158,50.834 62.158,52.36 L62.158,52.388 C62.158,53.942 63.306,55.202 64.832,55.202 Z M64.804,56.168 C62.634,56.168 61.052,54.46 61.052,52.416 L61.052,52.388 C61.052,50.33 62.634,48.608 64.832,48.608 C67.016,48.608 68.598,50.316 68.598,52.36 L68.598,52.388 C68.598,54.446 66.988,56.168 64.804,56.168 Z M73.876,55.202 C75.444,55.202 76.536,53.928 76.536,52.416 L76.536,52.388 C76.536,50.834 75.374,49.56 73.848,49.56 C72.28,49.56 71.202,50.834 71.202,52.36 L71.202,52.388 C71.202,53.942 72.35,55.202 73.876,55.202 Z M73.848,56.168 C71.678,56.168 70.096,54.46 70.096,52.416 L70.096,52.388 C70.096,50.33 71.678,48.608 73.876,48.608 C76.06,48.608 77.642,50.316 77.642,52.36 L77.642,52.388 C77.642,54.446 76.032,56.168 73.848,56.168 Z M82.01,56.126 C80.834,56.126 79.966,55.552 79.966,54.082 L79.966,49.714 L78.958,49.714 L78.958,48.762 L79.966,48.762 L79.966,46.578 L81.044,46.578 L81.044,48.762 L83.34,48.762 L83.34,49.714 L81.044,49.714 L81.044,53.942 C81.044,54.838 81.534,55.146 82.262,55.146 C82.64,55.146 82.934,55.076 83.312,54.894 L83.312,55.818 C82.934,56.028 82.528,56.126 82.01,56.126 Z" id="boot" fill="#000000"></path>
            <path d="M56.628,121.326 L56.628,120.906 C56.194,120.738 55.592,120.612 54.934,120.612 C53.87,120.612 53.24,121.046 53.24,121.76 L53.24,121.788 C53.24,122.502 53.87,122.88 54.668,122.88 C55.788,122.88 56.628,122.264 56.628,121.326 Z M58.266,124 L56.586,124 L56.586,123.09 C56.082,123.692 55.312,124.154 54.192,124.154 C52.792,124.154 51.56,123.37 51.56,121.872 L51.56,121.844 C51.56,120.206 52.82,119.422 54.556,119.422 C55.452,119.422 56.026,119.548 56.6,119.73 L56.6,119.59 C56.6,118.568 55.956,118.008 54.78,118.008 C53.94,118.008 53.338,118.19 52.666,118.47 L52.204,117.112 C53.03,116.734 53.8,116.496 55.018,116.496 C57.216,116.496 58.266,117.644 58.266,119.618 L58.266,124 Z M64.09,122.684 C65.252,122.684 66.204,121.774 66.204,120.318 L66.204,120.29 C66.204,118.862 65.252,117.924 64.09,117.924 C62.928,117.924 61.934,118.876 61.934,120.29 L61.934,120.318 C61.934,121.746 62.928,122.684 64.09,122.684 Z M60.282,126.24 L60.282,116.608 L61.976,116.608 L61.976,117.84 C62.522,117.056 63.292,116.454 64.482,116.454 C66.218,116.454 67.926,117.826 67.926,120.29 L67.926,120.318 C67.926,122.782 66.246,124.154 64.482,124.154 C63.264,124.154 62.494,123.538 61.976,122.852 L61.976,126.24 L60.282,126.24 Z M73.47,122.684 C74.632,122.684 75.584,121.774 75.584,120.318 L75.584,120.29 C75.584,118.862 74.632,117.924 73.47,117.924 C72.308,117.924 71.314,118.876 71.314,120.29 L71.314,120.318 C71.314,121.746 72.308,122.684 73.47,122.684 Z M69.662,126.24 L69.662,116.608 L71.356,116.608 L71.356,117.84 C71.902,117.056 72.672,116.454 73.862,116.454 C75.598,116.454 77.306,117.826 77.306,120.29 L77.306,120.318 C77.306,122.782 75.626,124.154 73.862,124.154 C72.644,124.154 71.874,123.538 71.356,122.852 L71.356,126.24 L69.662,126.24 Z" id="app" fill="#4786FF"></path>
            <path d="M68.162,145 L68.162,137.608 L69.856,137.608 L69.856,145 L68.162,145 Z M68.092,136.474 L68.092,134.864 L69.912,134.864 L69.912,136.474 L68.092,136.474 Z M72.068,145 L72.068,137.608 L73.762,137.608 L73.762,138.756 C74.238,138.056 74.924,137.454 76.072,137.454 C77.752,137.454 78.704,138.56 78.704,140.296 L78.704,145 L77.01,145 L77.01,140.8 C77.01,139.638 76.436,138.994 75.428,138.994 C74.434,138.994 73.762,139.666 73.762,140.828 L73.762,145 L72.068,145 Z M84.206,143.684 C85.34,143.684 86.348,142.732 86.348,141.318 L86.348,141.29 C86.348,139.862 85.34,138.924 84.206,138.924 C83.044,138.924 82.078,139.82 82.078,141.29 L82.078,141.318 C82.078,142.746 83.044,143.684 84.206,143.684 Z M83.8,145.154 C82.064,145.154 80.37,143.782 80.37,141.318 L80.37,141.29 C80.37,138.826 82.036,137.454 83.8,137.454 C85.018,137.454 85.774,138.07 86.32,138.756 L86.32,134.78 L88.014,134.78 L88.014,145 L86.32,145 L86.32,143.768 C85.774,144.538 84.99,145.154 83.8,145.154 Z M91.402,140.786 L95.196,140.786 C95.084,139.708 94.44,138.84 93.32,138.84 C92.27,138.84 91.556,139.624 91.402,140.786 Z M93.516,145.168 C91.388,145.168 89.722,143.614 89.722,141.332 L89.722,141.304 C89.722,139.176 91.22,137.454 93.334,137.454 C95.686,137.454 96.876,139.302 96.876,141.43 C96.876,141.584 96.862,141.738 96.848,141.906 L91.416,141.906 C91.598,143.124 92.438,143.782 93.544,143.782 C94.384,143.782 94.944,143.474 95.546,142.9 L96.54,143.782 C95.826,144.622 94.874,145.168 93.516,145.168 Z M97.94,145 L100.656,141.248 L98.038,137.608 L99.886,137.608 L101.594,140.044 L103.302,137.608 L105.108,137.608 L102.49,141.206 L105.22,145 L103.372,145 L101.552,142.41 L99.746,145 L97.94,145 Z M106.592,145 L106.592,143.082 L108.454,143.082 L108.454,145 L106.592,145 Z M114.278,143.684 C115.44,143.684 116.392,142.774 116.392,141.318 L116.392,141.29 C116.392,139.862 115.44,138.924 114.278,138.924 C113.116,138.924 112.122,139.876 112.122,141.29 L112.122,141.318 C112.122,142.746 113.116,143.684 114.278,143.684 Z M110.47,147.24 L110.47,137.608 L112.164,137.608 L112.164,138.84 C112.71,138.056 113.48,137.454 114.67,137.454 C116.406,137.454 118.114,138.826 118.114,141.29 L118.114,141.318 C118.114,143.782 116.434,145.154 114.67,145.154 C113.452,145.154 112.682,144.538 112.164,143.852 L112.164,147.24 L110.47,147.24 Z M119.85,145 L119.85,134.78 L121.544,134.78 L121.544,138.756 C122.02,138.056 122.706,137.454 123.854,137.454 C125.534,137.454 126.486,138.56 126.486,140.296 L126.486,145 L124.792,145 L124.792,140.8 C124.792,139.638 124.218,138.994 123.21,138.994 C122.216,138.994 121.544,139.666 121.544,140.828 L121.544,145 L119.85,145 Z M132.338,143.684 C133.5,143.684 134.452,142.774 134.452,141.318 L134.452,141.29 C134.452,139.862 133.5,138.924 132.338,138.924 C131.176,138.924 130.182,139.876 130.182,141.29 L130.182,141.318 C130.182,142.746 131.176,143.684 132.338,143.684 Z M128.53,147.24 L128.53,137.608 L130.224,137.608 L130.224,138.84 C130.77,138.056 131.54,137.454 132.73,137.454 C134.466,137.454 136.174,138.826 136.174,141.29 L136.174,141.318 C136.174,143.782 134.494,145.154 132.73,145.154 C131.512,145.154 130.742,144.538 130.224,143.852 L130.224,147.24 L128.53,147.24 Z" id="index.php" fill="#E1AD00"></path>
            <path d="M70.402,167.056 L67.364,159.608 L69.184,159.608 L71.172,165.04 L73.174,159.608 L74.952,159.608 L71.928,167.056 L70.402,167.056 Z M77.668,162.786 L81.462,162.786 C81.35,161.708 80.706,160.84 79.586,160.84 C78.536,160.84 77.822,161.624 77.668,162.786 Z M79.782,167.168 C77.654,167.168 75.988,165.614 75.988,163.332 L75.988,163.304 C75.988,161.176 77.486,159.454 79.6,159.454 C81.952,159.454 83.142,161.302 83.142,163.43 C83.142,163.584 83.128,163.738 83.114,163.906 L77.682,163.906 C77.864,165.124 78.704,165.782 79.81,165.782 C80.65,165.782 81.21,165.474 81.812,164.9 L82.806,165.782 C82.092,166.622 81.14,167.168 79.782,167.168 Z M84.85,167 L84.85,159.608 L86.544,159.608 L86.544,160.756 C87.02,160.056 87.706,159.454 88.854,159.454 C90.534,159.454 91.486,160.56 91.486,162.296 L91.486,167 L89.792,167 L89.792,162.8 C89.792,161.638 89.218,160.994 88.21,160.994 C87.216,160.994 86.544,161.666 86.544,162.828 L86.544,167 L84.85,167 Z M96.988,165.684 C98.122,165.684 99.13,164.732 99.13,163.318 L99.13,163.29 C99.13,161.862 98.122,160.924 96.988,160.924 C95.826,160.924 94.86,161.82 94.86,163.29 L94.86,163.318 C94.86,164.746 95.826,165.684 96.988,165.684 Z M96.582,167.154 C94.846,167.154 93.152,165.782 93.152,163.318 L93.152,163.29 C93.152,160.826 94.818,159.454 96.582,159.454 C97.8,159.454 98.556,160.07 99.102,160.756 L99.102,156.78 L100.796,156.78 L100.796,167 L99.102,167 L99.102,165.768 C98.556,166.538 97.772,167.154 96.582,167.154 Z M106.452,165.698 C107.838,165.698 108.692,164.62 108.692,163.346 L108.692,163.318 C108.692,162.016 107.754,160.938 106.424,160.938 C105.066,160.938 104.198,162.002 104.198,163.29 L104.198,163.318 C104.198,164.606 105.15,165.698 106.452,165.698 Z M106.424,167.168 C104.17,167.168 102.504,165.446 102.504,163.346 L102.504,163.318 C102.504,161.204 104.184,159.454 106.452,159.454 C108.734,159.454 110.386,161.176 110.386,163.29 L110.386,163.318 C110.386,165.404 108.706,167.168 106.424,167.168 Z M112.108,167 L112.108,159.608 L113.802,159.608 L113.802,161.274 C114.264,160.154 115.118,159.412 116.42,159.468 L116.42,161.26 L116.322,161.26 C114.824,161.26 113.802,162.226 113.802,164.186 L113.802,167 L112.108,167 Z M120.424,167.14 C119.36,167.14 118.226,166.762 117.288,166.034 L118.044,164.886 C118.842,165.488 119.696,165.796 120.466,165.796 C121.194,165.796 121.614,165.488 121.614,164.998 L121.614,164.97 C121.614,164.41 120.83,164.2 119.962,163.934 C118.884,163.64 117.652,163.178 117.652,161.764 L117.652,161.736 C117.652,160.336 118.814,159.482 120.284,159.482 C121.222,159.482 122.216,159.804 123,160.322 L122.328,161.526 C121.614,161.092 120.858,160.826 120.242,160.826 C119.584,160.826 119.206,161.134 119.206,161.568 L119.206,161.596 C119.206,162.1 120.018,162.366 120.872,162.632 C121.936,162.968 123.168,163.458 123.168,164.788 L123.168,164.816 C123.168,166.37 121.964,167.14 120.424,167.14 Z" id="vendors" fill="#E1AD00"></path>
            <path d="M83.064,213 L83.064,205.608 L84.758,205.608 L84.758,207.274 C85.22,206.154 86.074,205.412 87.376,205.468 L87.376,207.26 L87.278,207.26 C85.78,207.26 84.758,208.226 84.758,210.186 L84.758,213 L83.064,213 Z M88.944,213 L88.944,205.608 L90.638,205.608 L90.638,213 L88.944,213 Z M88.874,204.474 L88.874,202.864 L90.694,202.864 L90.694,204.474 L88.874,204.474 Z M92.85,213 L92.85,202.78 L94.544,202.78 L94.544,208.884 L97.61,205.608 L99.668,205.608 L96.728,208.618 L99.766,213 L97.806,213 L95.58,209.808 L94.544,210.886 L94.544,213 L92.85,213 Z M102.272,208.786 L106.066,208.786 C105.954,207.708 105.31,206.84 104.19,206.84 C103.14,206.84 102.426,207.624 102.272,208.786 Z M104.386,213.168 C102.258,213.168 100.592,211.614 100.592,209.332 L100.592,209.304 C100.592,207.176 102.09,205.454 104.204,205.454 C106.556,205.454 107.746,207.302 107.746,209.43 C107.746,209.584 107.732,209.738 107.718,209.906 L102.286,209.906 C102.468,211.124 103.308,211.782 104.414,211.782 C105.254,211.782 105.814,211.474 106.416,210.9 L107.41,211.782 C106.696,212.622 105.744,213.168 104.386,213.168 Z M109.454,213 L109.454,205.608 L111.148,205.608 L111.148,207.274 C111.61,206.154 112.464,205.412 113.766,205.468 L113.766,207.26 L113.668,207.26 C112.17,207.26 111.148,208.226 111.148,210.186 L111.148,213 L109.454,213 Z M115.124,213 L115.124,211.082 L116.986,211.082 L116.986,213 L115.124,213 Z M122.432,210.984 C123.608,210.984 124.602,210.144 124.602,208.954 L124.602,208.926 C124.602,207.708 123.608,206.882 122.432,206.882 C121.256,206.882 120.332,207.694 120.332,208.912 L120.332,208.94 C120.332,210.158 121.27,210.984 122.432,210.984 Z M122.292,215.268 C121.06,215.268 119.954,214.974 118.988,214.386 L119.618,213.112 C120.402,213.602 121.242,213.896 122.25,213.896 C123.762,213.896 124.588,213.126 124.588,211.628 L124.588,211.054 C123.972,211.852 123.202,212.412 121.984,212.412 C120.248,212.412 118.624,211.124 118.624,208.954 L118.624,208.926 C118.624,206.742 120.248,205.454 121.984,205.454 C123.23,205.454 124,206.028 124.574,206.714 L124.574,205.608 L126.268,205.608 L126.268,211.488 C126.268,212.72 125.96,213.644 125.33,214.274 C124.658,214.946 123.636,215.268 122.292,215.268 Z M128.48,213 L128.48,205.608 L130.174,205.608 L130.174,213 L128.48,213 Z M128.41,204.474 L128.41,202.864 L130.23,202.864 L130.23,204.474 L128.41,204.474 Z M132.764,213 L132.764,207.064 L131.826,207.064 L131.826,205.65 L132.764,205.65 L132.764,205.118 C132.764,204.292 132.96,203.69 133.366,203.284 C133.758,202.892 134.318,202.696 135.032,202.696 C135.634,202.696 136.026,202.78 136.404,202.892 L136.404,204.32 C136.068,204.208 135.788,204.138 135.41,204.138 C134.752,204.138 134.43,204.516 134.43,205.258 L134.43,205.664 L136.39,205.664 L136.39,207.064 L134.458,207.064 L134.458,213 L132.764,213 Z" id="riker.gif" fill="#00C89C"></path>
            <path d="M85.542,235.126 C84.296,235.126 83.414,234.58 83.414,232.956 L83.414,229.064 L82.476,229.064 L82.476,227.608 L83.414,227.608 L83.414,225.578 L85.108,225.578 L85.108,227.608 L87.096,227.608 L87.096,229.064 L85.108,229.064 L85.108,232.69 C85.108,233.348 85.444,233.614 86.018,233.614 C86.382,233.614 86.732,233.53 87.068,233.362 L87.068,234.748 C86.634,234.986 86.172,235.126 85.542,235.126 Z M88.804,235 L88.804,227.608 L90.498,227.608 L90.498,229.274 C90.96,228.154 91.814,227.412 93.116,227.468 L93.116,229.26 L93.018,229.26 C91.52,229.26 90.498,230.226 90.498,232.186 L90.498,235 L88.804,235 Z M98.128,233.698 C99.514,233.698 100.368,232.62 100.368,231.346 L100.368,231.318 C100.368,230.016 99.43,228.938 98.1,228.938 C96.742,228.938 95.874,230.002 95.874,231.29 L95.874,231.318 C95.874,232.606 96.826,233.698 98.128,233.698 Z M98.1,235.168 C95.846,235.168 94.18,233.446 94.18,231.346 L94.18,231.318 C94.18,229.204 95.86,227.454 98.128,227.454 C100.41,227.454 102.062,229.176 102.062,231.29 L102.062,231.318 C102.062,233.404 100.382,235.168 98.1,235.168 Z M103.882,235 L103.882,227.608 L105.576,227.608 L105.576,235 L103.882,235 Z M103.812,226.474 L103.812,224.864 L105.632,224.864 L105.632,226.474 L103.812,226.474 Z M107.676,235 L107.676,233.082 L109.538,233.082 L109.538,235 L107.676,235 Z M115.362,233.684 C116.524,233.684 117.476,232.774 117.476,231.318 L117.476,231.29 C117.476,229.862 116.524,228.924 115.362,228.924 C114.2,228.924 113.206,229.876 113.206,231.29 L113.206,231.318 C113.206,232.746 114.2,233.684 115.362,233.684 Z M111.554,237.24 L111.554,227.608 L113.248,227.608 L113.248,228.84 C113.794,228.056 114.564,227.454 115.754,227.454 C117.49,227.454 119.198,228.826 119.198,231.29 L119.198,231.318 C119.198,233.782 117.518,235.154 115.754,235.154 C114.536,235.154 113.766,234.538 113.248,233.852 L113.248,237.24 L111.554,237.24 Z M120.934,235 L120.934,227.608 L122.628,227.608 L122.628,228.756 C123.104,228.056 123.79,227.454 124.938,227.454 C126.618,227.454 127.57,228.56 127.57,230.296 L127.57,235 L125.876,235 L125.876,230.8 C125.876,229.638 125.302,228.994 124.294,228.994 C123.3,228.994 122.628,229.666 122.628,230.828 L122.628,235 L120.934,235 Z M133.044,232.984 C134.22,232.984 135.214,232.144 135.214,230.954 L135.214,230.926 C135.214,229.708 134.22,228.882 133.044,228.882 C131.868,228.882 130.944,229.694 130.944,230.912 L130.944,230.94 C130.944,232.158 131.882,232.984 133.044,232.984 Z M132.904,237.268 C131.672,237.268 130.566,236.974 129.6,236.386 L130.23,235.112 C131.014,235.602 131.854,235.896 132.862,235.896 C134.374,235.896 135.2,235.126 135.2,233.628 L135.2,233.054 C134.584,233.852 133.814,234.412 132.596,234.412 C130.86,234.412 129.236,233.124 129.236,230.954 L129.236,230.926 C129.236,228.742 130.86,227.454 132.596,227.454 C133.842,227.454 134.612,228.028 135.186,228.714 L135.186,227.608 L136.88,227.608 L136.88,233.488 C136.88,234.72 136.572,235.644 135.942,236.274 C135.27,236.946 134.248,237.268 132.904,237.268 Z" id="troi.png" fill="#00C89C"></path>
            <path d="M70.612,190.154 C68.932,190.154 67.98,189.048 67.98,187.312 L67.98,182.608 L69.674,182.608 L69.674,186.808 C69.674,187.97 70.248,188.614 71.256,188.614 C72.25,188.614 72.922,187.942 72.922,186.78 L72.922,182.608 L74.616,182.608 L74.616,190 L72.922,190 L72.922,188.852 C72.432,189.566 71.746,190.154 70.612,190.154 Z M80.552,188.684 C81.714,188.684 82.666,187.774 82.666,186.318 L82.666,186.29 C82.666,184.862 81.714,183.924 80.552,183.924 C79.39,183.924 78.396,184.876 78.396,186.29 L78.396,186.318 C78.396,187.746 79.39,188.684 80.552,188.684 Z M76.744,192.24 L76.744,182.608 L78.438,182.608 L78.438,183.84 C78.984,183.056 79.754,182.454 80.944,182.454 C82.68,182.454 84.388,183.826 84.388,186.29 L84.388,186.318 C84.388,188.782 82.708,190.154 80.944,190.154 C79.726,190.154 78.956,189.538 78.438,188.852 L78.438,192.24 L76.744,192.24 Z M86.222,190 L86.222,179.78 L87.916,179.78 L87.916,190 L86.222,190 Z M93.67,188.698 C95.056,188.698 95.91,187.62 95.91,186.346 L95.91,186.318 C95.91,185.016 94.972,183.938 93.642,183.938 C92.284,183.938 91.416,185.002 91.416,186.29 L91.416,186.318 C91.416,187.606 92.368,188.698 93.67,188.698 Z M93.642,190.168 C91.388,190.168 89.722,188.446 89.722,186.346 L89.722,186.318 C89.722,184.204 91.402,182.454 93.67,182.454 C95.952,182.454 97.604,184.176 97.604,186.29 L97.604,186.318 C97.604,188.404 95.924,190.168 93.642,190.168 Z M103.89,187.326 L103.89,186.906 C103.456,186.738 102.854,186.612 102.196,186.612 C101.132,186.612 100.502,187.046 100.502,187.76 L100.502,187.788 C100.502,188.502 101.132,188.88 101.93,188.88 C103.05,188.88 103.89,188.264 103.89,187.326 Z M105.528,190 L103.848,190 L103.848,189.09 C103.344,189.692 102.574,190.154 101.454,190.154 C100.054,190.154 98.822,189.37 98.822,187.872 L98.822,187.844 C98.822,186.206 100.082,185.422 101.818,185.422 C102.714,185.422 103.288,185.548 103.862,185.73 L103.862,185.59 C103.862,184.568 103.218,184.008 102.042,184.008 C101.202,184.008 100.6,184.19 99.928,184.47 L99.466,183.112 C100.292,182.734 101.062,182.496 102.28,182.496 C104.478,182.496 105.528,183.644 105.528,185.618 L105.528,190 Z M111.002,188.684 C112.136,188.684 113.144,187.732 113.144,186.318 L113.144,186.29 C113.144,184.862 112.136,183.924 111.002,183.924 C109.84,183.924 108.874,184.82 108.874,186.29 L108.874,186.318 C108.874,187.746 109.84,188.684 111.002,188.684 Z M110.596,190.154 C108.86,190.154 107.166,188.782 107.166,186.318 L107.166,186.29 C107.166,183.826 108.832,182.454 110.596,182.454 C111.814,182.454 112.57,183.07 113.116,183.756 L113.116,179.78 L114.81,179.78 L114.81,190 L113.116,190 L113.116,188.768 C112.57,189.538 111.786,190.154 110.596,190.154 Z M119.458,190.14 C118.394,190.14 117.26,189.762 116.322,189.034 L117.078,187.886 C117.876,188.488 118.73,188.796 119.5,188.796 C120.228,188.796 120.648,188.488 120.648,187.998 L120.648,187.97 C120.648,187.41 119.864,187.2 118.996,186.934 C117.918,186.64 116.686,186.178 116.686,184.764 L116.686,184.736 C116.686,183.336 117.848,182.482 119.318,182.482 C120.256,182.482 121.25,182.804 122.034,183.322 L121.362,184.526 C120.648,184.092 119.892,183.826 119.276,183.826 C118.618,183.826 118.24,184.134 118.24,184.568 L118.24,184.596 C118.24,185.1 119.052,185.366 119.906,185.632 C120.97,185.968 122.202,186.458 122.202,187.788 L122.202,187.816 C122.202,189.37 120.998,190.14 119.458,190.14 Z" id="uploads" fill="#E1AD00"></path>
            <polygon id="/" fill="#4A4A4A" points="37.074 34.536 42.498 23.424 43.758 23.424 38.334 34.536"></polygon>
            <path d="M53.338,74.786 L57.132,74.786 C57.02,73.708 56.376,72.84 55.256,72.84 C54.206,72.84 53.492,73.624 53.338,74.786 Z M55.452,79.168 C53.324,79.168 51.658,77.614 51.658,75.332 L51.658,75.304 C51.658,73.176 53.156,71.454 55.27,71.454 C57.622,71.454 58.812,73.302 58.812,75.43 C58.812,75.584 58.798,75.738 58.784,75.906 L53.352,75.906 C53.534,77.124 54.374,77.782 55.48,77.782 C56.32,77.782 56.88,77.474 57.482,76.9 L58.476,77.782 C57.762,78.622 56.81,79.168 55.452,79.168 Z M62.998,79.126 C61.752,79.126 60.87,78.58 60.87,76.956 L60.87,73.064 L59.932,73.064 L59.932,71.608 L60.87,71.608 L60.87,69.578 L62.564,69.578 L62.564,71.608 L64.552,71.608 L64.552,73.064 L62.564,73.064 L62.564,76.69 C62.564,77.348 62.9,77.614 63.474,77.614 C63.838,77.614 64.188,77.53 64.524,77.362 L64.524,78.748 C64.09,78.986 63.628,79.126 62.998,79.126 Z M69.676,79.168 C67.478,79.168 65.854,77.446 65.854,75.346 L65.854,75.318 C65.854,73.218 67.478,71.454 69.69,71.454 C71.09,71.454 71.958,71.958 72.644,72.728 L71.594,73.862 C71.076,73.316 70.53,72.938 69.676,72.938 C68.444,72.938 67.548,74.002 67.548,75.29 L67.548,75.318 C67.548,76.62 68.458,77.698 69.76,77.698 C70.558,77.698 71.132,77.32 71.678,76.774 L72.7,77.782 C71.972,78.608 71.118,79.168 69.676,79.168 Z" id="etc" fill="#4786FF"></path>
            <path d="M55.872,54.684 C57.034,54.684 57.986,53.774 57.986,52.318 L57.986,52.29 C57.986,50.862 57.034,49.924 55.872,49.924 C54.71,49.924 53.716,50.876 53.716,52.29 L53.716,52.318 C53.716,53.746 54.71,54.684 55.872,54.684 Z M56.264,56.154 C55.046,56.154 54.276,55.538 53.758,54.852 L53.758,56 L52.064,56 L52.064,45.78 L53.758,45.78 L53.758,49.84 C54.304,49.056 55.074,48.454 56.264,48.454 C58,48.454 59.708,49.826 59.708,52.29 L59.708,52.318 C59.708,54.782 58.028,56.154 56.264,56.154 Z M64.986,54.698 C66.372,54.698 67.226,53.62 67.226,52.346 L67.226,52.318 C67.226,51.016 66.288,49.938 64.958,49.938 C63.6,49.938 62.732,51.002 62.732,52.29 L62.732,52.318 C62.732,53.606 63.684,54.698 64.986,54.698 Z M64.958,56.168 C62.704,56.168 61.038,54.446 61.038,52.346 L61.038,52.318 C61.038,50.204 62.718,48.454 64.986,48.454 C67.268,48.454 68.92,50.176 68.92,52.29 L68.92,52.318 C68.92,54.404 67.24,56.168 64.958,56.168 Z M74.184,54.698 C75.57,54.698 76.424,53.62 76.424,52.346 L76.424,52.318 C76.424,51.016 75.486,49.938 74.156,49.938 C72.798,49.938 71.93,51.002 71.93,52.29 L71.93,52.318 C71.93,53.606 72.882,54.698 74.184,54.698 Z M74.156,56.168 C71.902,56.168 70.236,54.446 70.236,52.346 L70.236,52.318 C70.236,50.204 71.916,48.454 74.184,48.454 C76.466,48.454 78.118,50.176 78.118,52.29 L78.118,52.318 C78.118,54.404 76.438,56.168 74.156,56.168 Z M82.318,56.126 C81.072,56.126 80.19,55.58 80.19,53.956 L80.19,50.064 L79.252,50.064 L79.252,48.608 L80.19,48.608 L80.19,46.578 L81.884,46.578 L81.884,48.608 L83.872,48.608 L83.872,50.064 L81.884,50.064 L81.884,53.69 C81.884,54.348 82.22,54.614 82.794,54.614 C83.158,54.614 83.508,54.53 83.844,54.362 L83.844,55.748 C83.41,55.986 82.948,56.126 82.318,56.126 Z" id="boot" fill="#4786FF"></path>
            <path d="M52.162,101 L52.162,90.78 L53.856,90.78 L53.856,101 L52.162,101 Z M56.166,101 L56.166,93.608 L57.86,93.608 L57.86,101 L56.166,101 Z M56.096,92.474 L56.096,90.864 L57.916,90.864 L57.916,92.474 L56.096,92.474 Z M63.88,99.684 C65.042,99.684 65.994,98.774 65.994,97.318 L65.994,97.29 C65.994,95.862 65.042,94.924 63.88,94.924 C62.718,94.924 61.724,95.876 61.724,97.29 L61.724,97.318 C61.724,98.746 62.718,99.684 63.88,99.684 Z M64.272,101.154 C63.054,101.154 62.284,100.538 61.766,99.852 L61.766,101 L60.072,101 L60.072,90.78 L61.766,90.78 L61.766,94.84 C62.312,94.056 63.082,93.454 64.272,93.454 C66.008,93.454 67.716,94.826 67.716,97.29 L67.716,97.318 C67.716,99.782 66.036,101.154 64.272,101.154 Z" id="lib" fill="#4786FF"></path>
            <path d="M52.064,258 L52.064,250.608 L53.758,250.608 L53.758,252.274 C54.22,251.154 55.074,250.412 56.376,250.468 L56.376,252.26 L56.278,252.26 C54.78,252.26 53.758,253.226 53.758,255.186 L53.758,258 L52.064,258 Z M60.394,258.154 C58.714,258.154 57.762,257.048 57.762,255.312 L57.762,250.608 L59.456,250.608 L59.456,254.808 C59.456,255.97 60.03,256.614 61.038,256.614 C62.032,256.614 62.704,255.942 62.704,254.78 L62.704,250.608 L64.398,250.608 L64.398,258 L62.704,258 L62.704,256.852 C62.214,257.566 61.528,258.154 60.394,258.154 Z M66.526,258 L66.526,250.608 L68.22,250.608 L68.22,251.756 C68.696,251.056 69.382,250.454 70.53,250.454 C72.21,250.454 73.162,251.56 73.162,253.296 L73.162,258 L71.468,258 L71.468,253.8 C71.468,252.638 70.894,251.994 69.886,251.994 C68.892,251.994 68.22,252.666 68.22,253.828 L68.22,258 L66.526,258 Z" id="run" fill="#FD716A"></path>
            <g id="ic_edit_black_24px" opacity="0.340523098" transform="translate(88.000000, 247.000000)">
                <path d="M1.75,10.0625 L1.75,12.25 L3.9375,12.25 L10.3891667,5.79833333 L8.20166667,3.61083333 L1.75,10.0625 Z M12.0808333,4.10666667 C12.3083333,3.87916667 12.3083333,3.51166667 12.0808333,3.28416667 L10.7158333,1.91916667 C10.4883333,1.69166667 10.1208333,1.69166667 9.89333333,1.91916667 L8.82583333,2.98666667 L11.0133333,5.17416667 L12.0808333,4.10666667 Z" id="Shape" fill="#000000" fill-rule="nonzero"></path>
                <polygon id="Shape" points="0 0 14 0 14 14 0 14"></polygon>
            </g>
            <g id="ic_edit_black_24px" opacity="0.340523098" transform="translate(148.000000, 210.000000)">
                <path d="M1.75,10.0625 L1.75,12.25 L3.9375,12.25 L10.3891667,5.79833333 L8.20166667,3.61083333 L1.75,10.0625 Z M12.0808333,4.10666667 C12.3083333,3.87916667 12.3083333,3.51166667 12.0808333,3.28416667 L10.7158333,1.91916667 C10.4883333,1.69166667 10.1208333,1.69166667 9.89333333,1.91916667 L8.82583333,2.98666667 L11.0133333,5.17416667 L12.0808333,4.10666667 Z" id="Shape" fill="#000000" fill-rule="nonzero"></path>
                <polygon id="Shape" points="0 0 14 0 14 14 0 14"></polygon>
            </g>
        </g>
    </g>
</svg>